%TF.GenerationSoftware,KiCad,Pcbnew,9.0.0*%
%TF.CreationDate,2025-12-27T14:24:40-08:00*%
%TF.ProjectId,esp_module_rev1,6573705f-6d6f-4647-956c-655f72657631,rev?*%
%TF.SameCoordinates,Original*%
%TF.FileFunction,Copper,L3,Inr*%
%TF.FilePolarity,Positive*%
%FSLAX46Y46*%
G04 Gerber Fmt 4.6, Leading zero omitted, Abs format (unit mm)*
G04 Created by KiCad (PCBNEW 9.0.0) date 2025-12-27 14:24:40*
%MOMM*%
%LPD*%
G01*
G04 APERTURE LIST*
%TA.AperFunction,HeatsinkPad*%
%ADD10C,0.600000*%
%TD*%
%TA.AperFunction,HeatsinkPad*%
%ADD11O,1.000000X2.100000*%
%TD*%
%TA.AperFunction,HeatsinkPad*%
%ADD12O,1.000000X1.800000*%
%TD*%
%TA.AperFunction,ComponentPad*%
%ADD13C,1.500000*%
%TD*%
%TA.AperFunction,ComponentPad*%
%ADD14C,0.700000*%
%TD*%
%TA.AperFunction,ComponentPad*%
%ADD15C,4.400000*%
%TD*%
%TA.AperFunction,ComponentPad*%
%ADD16C,2.000000*%
%TD*%
%TA.AperFunction,ViaPad*%
%ADD17C,0.600000*%
%TD*%
%TA.AperFunction,Conductor*%
%ADD18C,0.150000*%
%TD*%
%TA.AperFunction,Conductor*%
%ADD19C,0.200000*%
%TD*%
G04 APERTURE END LIST*
D10*
%TO.N,GND*%
%TO.C,U5*%
X147610000Y-88900000D03*
X147610000Y-90000000D03*
X148160000Y-88350000D03*
X148160000Y-89450000D03*
X148160000Y-90550000D03*
X148710000Y-88900000D03*
X148710000Y-90000000D03*
X149260000Y-88350000D03*
X149260000Y-89450000D03*
X149260000Y-90550000D03*
X149810000Y-88900000D03*
X149810000Y-90000000D03*
%TD*%
D11*
%TO.N,GND*%
%TO.C,J1*%
X143430000Y-116545000D03*
D12*
X143430000Y-120725000D03*
D11*
X152070000Y-116545000D03*
D12*
X152070000Y-120725000D03*
%TD*%
D13*
%TO.N,/I2C_SDA*%
%TO.C,TP8*%
X159100000Y-100300000D03*
%TD*%
%TO.N,/I2C_SCL*%
%TO.C,TP9*%
X166000000Y-85750000D03*
%TD*%
%TO.N,/LSM_INT2*%
%TO.C,TP15*%
X156400000Y-100300000D03*
%TD*%
%TO.N,/MAX_INT*%
%TO.C,TP12*%
X128000000Y-99600000D03*
%TD*%
%TO.N,Net-(D3-K)*%
%TO.C,TP5*%
X156500000Y-109150000D03*
%TD*%
%TO.N,/LSM_INT1*%
%TO.C,TP14*%
X136000000Y-97600000D03*
%TD*%
%TO.N,Net-(D2-K)*%
%TO.C,TP4*%
X128700000Y-111600000D03*
%TD*%
D14*
%TO.N,GND*%
%TO.C,H2*%
X164700000Y-119510000D03*
X165183274Y-118343274D03*
X165183274Y-120676726D03*
X166350000Y-117860000D03*
D15*
X166350000Y-119510000D03*
D14*
X166350000Y-121160000D03*
X167516726Y-118343274D03*
X167516726Y-120676726D03*
X168000000Y-119510000D03*
%TD*%
D16*
%TO.N,GND*%
%TO.C,SW1*%
X134250000Y-117360000D03*
X140750000Y-117360000D03*
%TO.N,/ESP32_EN*%
X134250000Y-121860000D03*
X140750000Y-121860000D03*
%TD*%
D13*
%TO.N,/ESP32_EN*%
%TO.C,TP19*%
X133200000Y-87550000D03*
%TD*%
%TO.N,Net-(R16-Pad1)*%
%TO.C,TP11*%
X168400000Y-84500000D03*
%TD*%
D14*
%TO.N,GND*%
%TO.C,H3*%
X127150000Y-90200000D03*
X127633274Y-89033274D03*
X127633274Y-91366726D03*
X128800000Y-88550000D03*
D15*
X128800000Y-90200000D03*
D14*
X128800000Y-91850000D03*
X129966726Y-89033274D03*
X129966726Y-91366726D03*
X130450000Y-90200000D03*
%TD*%
D13*
%TO.N,+USB_VBUS*%
%TO.C,TP16*%
X143400000Y-105550000D03*
%TD*%
%TO.N,+3V3*%
%TO.C,TP2*%
X131300000Y-112150000D03*
%TD*%
%TO.N,+USB_VBUSF*%
%TO.C,TP17*%
X148600000Y-101650000D03*
%TD*%
D16*
%TO.N,GND*%
%TO.C,SW2*%
X154800000Y-117260000D03*
X161300000Y-117260000D03*
%TO.N,/BOOT_SEL_GPIO9*%
X154800000Y-121760000D03*
X161300000Y-121760000D03*
%TD*%
D13*
%TO.N,/I2C_SDA_1V8*%
%TO.C,TP6*%
X166400000Y-112350000D03*
%TD*%
%TO.N,/I2C_SCL_1V8*%
%TO.C,TP7*%
X166200000Y-109300000D03*
%TD*%
%TO.N,+BATT*%
%TO.C,TP1*%
X133000000Y-100050000D03*
%TD*%
%TO.N,/BOOT_SEL_GPIO9*%
%TO.C,TP18*%
X133500000Y-95950000D03*
%TD*%
D14*
%TO.N,GND*%
%TO.C,H1*%
X127650000Y-119610000D03*
X128133274Y-118443274D03*
X128133274Y-120776726D03*
X129300000Y-117960000D03*
D15*
X129300000Y-119610000D03*
D14*
X129300000Y-121260000D03*
X130466726Y-118443274D03*
X130466726Y-120776726D03*
X130950000Y-119610000D03*
%TD*%
D13*
%TO.N,/VBATT_SENSE*%
%TO.C,TP10*%
X159300000Y-83850000D03*
%TD*%
%TO.N,/BMP_INT*%
%TO.C,TP13*%
X164550000Y-98950000D03*
%TD*%
%TO.N,+1V8*%
%TO.C,TP3*%
X163700000Y-112150000D03*
%TD*%
D17*
%TO.N,+BATT*%
X140400000Y-105100000D03*
X137200000Y-103500000D03*
X153000000Y-102200000D03*
X154300000Y-115100000D03*
%TO.N,GND*%
X142500000Y-95800000D03*
X150000000Y-109900000D03*
X145600000Y-112200000D03*
X167700000Y-104300000D03*
X128200000Y-85400000D03*
X130025000Y-105025000D03*
X147325000Y-102925000D03*
X142500000Y-107900000D03*
X162600000Y-98400000D03*
X160100000Y-105300000D03*
X140300000Y-95300000D03*
X154275000Y-90200000D03*
X151750000Y-98100000D03*
X133775000Y-108300000D03*
X150700000Y-106500000D03*
X137000000Y-88600000D03*
X163700000Y-85000000D03*
%TO.N,+USB_VBUSF*%
X144200000Y-109500000D03*
%TO.N,+USB_VBUS*%
X144700000Y-110562500D03*
%TO.N,Net-(D2-K)*%
X137800000Y-109500000D03*
%TO.N,+3V3*%
X128300000Y-83300000D03*
X140700000Y-83300000D03*
X141800000Y-95000000D03*
X151750000Y-99700000D03*
X127300000Y-95000000D03*
X162000000Y-88200000D03*
X150400000Y-84600000D03*
X135400000Y-99200000D03*
X158500000Y-94600000D03*
X161400000Y-99400000D03*
%TO.N,+1V8*%
X166550000Y-92800000D03*
X167000000Y-87300000D03*
%TO.N,/USB_CC2*%
X149500000Y-117000000D03*
%TO.N,/USB_CC1*%
X146500000Y-117000000D03*
%TO.N,/VBATT_SENSE*%
X141300000Y-107900000D03*
X140600000Y-92200000D03*
%TO.N,/I2C_SCL*%
X134000000Y-92200000D03*
X143700000Y-95500000D03*
X160200000Y-92150003D03*
X167200000Y-92100000D03*
%TO.N,/I2C_SDA*%
X143000000Y-94800000D03*
X142900000Y-92300000D03*
%TO.N,/I2C_SCL_1V8*%
X162500000Y-104525735D03*
X164700000Y-94200000D03*
%TO.N,/I2C_SDA_1V8*%
X166000000Y-94100000D03*
X167700000Y-102750000D03*
%TO.N,/LSM_INT2*%
X147300000Y-100000000D03*
X133900000Y-91400000D03*
%TO.N,/LSM_INT1*%
X136886863Y-89391962D03*
%TO.N,/MAX_INT*%
X145200000Y-93100000D03*
X140200000Y-87800000D03*
%TO.N,/BMP_INT*%
X153300000Y-86250000D03*
%TO.N,/USB_D-*%
X154525000Y-91425000D03*
X145700000Y-111000000D03*
%TO.N,/USB_D+*%
X155125000Y-89600000D03*
X149800000Y-111000000D03*
%TO.N,Net-(R16-Pad1)*%
X162700000Y-84300000D03*
X134500000Y-99200000D03*
X142100000Y-91100000D03*
%TO.N,Net-(U5-IO2)*%
X155100000Y-84800000D03*
%TD*%
D18*
%TO.N,/VBATT_SENSE*%
X141300000Y-107900000D02*
X141800000Y-107900000D01*
X139600000Y-103100000D02*
X139600000Y-92700000D01*
X139700000Y-103200000D02*
X139600000Y-103100000D01*
X141900000Y-107800000D02*
X141900000Y-104500000D01*
X140000000Y-92300000D02*
X140100000Y-92200000D01*
X141900000Y-104500000D02*
X140600000Y-103200000D01*
X141800000Y-107900000D02*
X141900000Y-107800000D01*
X140500000Y-103200000D02*
X139700000Y-103200000D01*
X139600000Y-92700000D02*
X140000000Y-92300000D01*
X140600000Y-103200000D02*
X140500000Y-103200000D01*
X140100000Y-92200000D02*
X140600000Y-92200000D01*
D19*
%TO.N,/I2C_SDA*%
X142900000Y-94700000D02*
X143000000Y-94800000D01*
X142900000Y-92300000D02*
X142900000Y-94700000D01*
%TO.N,/LSM_INT2*%
X156000000Y-100700000D02*
X156400000Y-100300000D01*
X147300000Y-100000000D02*
X150000000Y-100000000D01*
X150000000Y-100000000D02*
X150700000Y-100700000D01*
X150700000Y-100700000D02*
X156000000Y-100700000D01*
D18*
%TO.N,Net-(R16-Pad1)*%
X140600000Y-91100000D02*
X142100000Y-91100000D01*
X135200000Y-96500000D02*
X140600000Y-91100000D01*
X134500000Y-97200000D02*
X135200000Y-96500000D01*
X134500000Y-99200000D02*
X134500000Y-97200000D01*
%TD*%
%TA.AperFunction,Conductor*%
%TO.N,+3V3*%
G36*
X158744621Y-82520185D02*
G01*
X158790376Y-82572989D01*
X158800320Y-82642147D01*
X158771295Y-82705703D01*
X158733877Y-82734985D01*
X158644594Y-82780476D01*
X158553741Y-82846485D01*
X158485354Y-82896172D01*
X158485352Y-82896174D01*
X158485351Y-82896174D01*
X158346174Y-83035351D01*
X158346174Y-83035352D01*
X158346172Y-83035354D01*
X158296485Y-83103741D01*
X158230476Y-83194594D01*
X158141117Y-83369970D01*
X158080290Y-83557173D01*
X158049500Y-83751577D01*
X158049500Y-83948422D01*
X158080290Y-84142826D01*
X158141117Y-84330029D01*
X158227467Y-84499500D01*
X158230476Y-84505405D01*
X158346172Y-84664646D01*
X158485354Y-84803828D01*
X158644595Y-84919524D01*
X158684358Y-84939784D01*
X158819970Y-85008882D01*
X158819972Y-85008882D01*
X158819975Y-85008884D01*
X158886336Y-85030446D01*
X159007173Y-85069709D01*
X159201578Y-85100500D01*
X159201583Y-85100500D01*
X159398422Y-85100500D01*
X159592826Y-85069709D01*
X159780025Y-85008884D01*
X159955405Y-84919524D01*
X160114646Y-84803828D01*
X160253828Y-84664646D01*
X160369524Y-84505405D01*
X160458884Y-84330025D01*
X160494259Y-84221153D01*
X161899500Y-84221153D01*
X161899500Y-84378846D01*
X161930261Y-84533489D01*
X161930264Y-84533501D01*
X161990602Y-84679172D01*
X161990609Y-84679185D01*
X162078210Y-84810288D01*
X162078213Y-84810292D01*
X162189707Y-84921786D01*
X162189711Y-84921789D01*
X162320814Y-85009390D01*
X162320827Y-85009397D01*
X162466435Y-85069709D01*
X162466503Y-85069737D01*
X162591467Y-85094594D01*
X162621153Y-85100499D01*
X162621156Y-85100500D01*
X162621158Y-85100500D01*
X162778844Y-85100500D01*
X162784907Y-85099903D01*
X162785061Y-85101467D01*
X162847007Y-85107000D01*
X162902191Y-85149854D01*
X162923242Y-85198204D01*
X162930261Y-85233492D01*
X162930264Y-85233501D01*
X162990602Y-85379172D01*
X162990609Y-85379185D01*
X163078210Y-85510288D01*
X163078213Y-85510292D01*
X163189707Y-85621786D01*
X163189711Y-85621789D01*
X163320814Y-85709390D01*
X163320827Y-85709397D01*
X163394013Y-85739711D01*
X163466503Y-85769737D01*
X163621153Y-85800499D01*
X163621156Y-85800500D01*
X163621158Y-85800500D01*
X163778844Y-85800500D01*
X163778845Y-85800499D01*
X163933497Y-85769737D01*
X164079179Y-85709394D01*
X164210289Y-85621789D01*
X164321789Y-85510289D01*
X164409394Y-85379179D01*
X164469737Y-85233497D01*
X164500500Y-85078842D01*
X164500500Y-84921158D01*
X164500500Y-84921155D01*
X164500499Y-84921153D01*
X164494244Y-84889707D01*
X164469737Y-84766503D01*
X164450955Y-84721158D01*
X164409397Y-84620827D01*
X164409390Y-84620814D01*
X164321789Y-84489711D01*
X164321786Y-84489707D01*
X164210292Y-84378213D01*
X164210288Y-84378210D01*
X164079185Y-84290609D01*
X164079172Y-84290602D01*
X163933501Y-84230264D01*
X163933489Y-84230261D01*
X163778845Y-84199500D01*
X163778842Y-84199500D01*
X163621158Y-84199500D01*
X163621157Y-84199500D01*
X163615095Y-84200097D01*
X163614941Y-84198541D01*
X163552958Y-84192986D01*
X163497787Y-84150115D01*
X163476757Y-84101793D01*
X163469738Y-84066510D01*
X163469737Y-84066503D01*
X163469735Y-84066498D01*
X163409397Y-83920827D01*
X163409390Y-83920814D01*
X163321789Y-83789711D01*
X163321786Y-83789707D01*
X163210292Y-83678213D01*
X163210288Y-83678210D01*
X163079185Y-83590609D01*
X163079172Y-83590602D01*
X162933501Y-83530264D01*
X162933489Y-83530261D01*
X162778845Y-83499500D01*
X162778842Y-83499500D01*
X162621158Y-83499500D01*
X162621155Y-83499500D01*
X162466510Y-83530261D01*
X162466498Y-83530264D01*
X162320827Y-83590602D01*
X162320814Y-83590609D01*
X162189711Y-83678210D01*
X162189707Y-83678213D01*
X162078213Y-83789707D01*
X162078210Y-83789711D01*
X161990609Y-83920814D01*
X161990602Y-83920827D01*
X161930264Y-84066498D01*
X161930261Y-84066510D01*
X161899500Y-84221153D01*
X160494259Y-84221153D01*
X160519709Y-84142826D01*
X160537537Y-84030261D01*
X160550500Y-83948422D01*
X160550500Y-83751577D01*
X160519709Y-83557173D01*
X160478542Y-83430476D01*
X160458884Y-83369975D01*
X160458882Y-83369972D01*
X160458882Y-83369970D01*
X160397499Y-83249500D01*
X160369524Y-83194595D01*
X160253828Y-83035354D01*
X160114646Y-82896172D01*
X159955405Y-82780476D01*
X159866122Y-82734984D01*
X159815327Y-82687011D01*
X159798532Y-82619190D01*
X159821069Y-82553055D01*
X159875784Y-82509603D01*
X159922418Y-82500500D01*
X168034108Y-82500500D01*
X168095572Y-82500500D01*
X168104418Y-82500816D01*
X168304561Y-82515130D01*
X168322063Y-82517647D01*
X168513797Y-82559355D01*
X168530755Y-82564334D01*
X168677827Y-82619190D01*
X168714609Y-82632909D01*
X168730701Y-82640259D01*
X168902904Y-82734288D01*
X168917784Y-82743849D01*
X168966711Y-82780476D01*
X169074867Y-82861441D01*
X169088237Y-82873027D01*
X169226972Y-83011762D01*
X169238558Y-83025132D01*
X169356146Y-83182210D01*
X169365711Y-83197095D01*
X169459740Y-83369298D01*
X169467090Y-83385390D01*
X169513696Y-83510344D01*
X169518680Y-83580036D01*
X169485196Y-83641359D01*
X169423873Y-83674844D01*
X169354181Y-83669860D01*
X169309833Y-83641359D01*
X169214648Y-83546174D01*
X169214646Y-83546172D01*
X169055405Y-83430476D01*
X168880029Y-83341117D01*
X168692826Y-83280290D01*
X168498422Y-83249500D01*
X168498417Y-83249500D01*
X168301583Y-83249500D01*
X168301578Y-83249500D01*
X168107173Y-83280290D01*
X167919970Y-83341117D01*
X167744594Y-83430476D01*
X167653741Y-83496485D01*
X167585354Y-83546172D01*
X167585352Y-83546174D01*
X167585351Y-83546174D01*
X167446174Y-83685351D01*
X167446174Y-83685352D01*
X167446172Y-83685354D01*
X167398058Y-83751577D01*
X167330476Y-83844594D01*
X167241117Y-84019970D01*
X167180290Y-84207173D01*
X167149500Y-84401577D01*
X167149500Y-84598422D01*
X167180290Y-84792826D01*
X167205348Y-84869943D01*
X167207343Y-84939784D01*
X167171263Y-84999617D01*
X167108562Y-85030446D01*
X167039148Y-85022482D01*
X166987099Y-84981148D01*
X166953828Y-84935354D01*
X166814646Y-84796172D01*
X166655405Y-84680476D01*
X166652871Y-84679185D01*
X166480029Y-84591117D01*
X166292826Y-84530290D01*
X166098422Y-84499500D01*
X166098417Y-84499500D01*
X165901583Y-84499500D01*
X165901578Y-84499500D01*
X165707173Y-84530290D01*
X165519970Y-84591117D01*
X165344594Y-84680476D01*
X165288608Y-84721153D01*
X165185354Y-84796172D01*
X165185352Y-84796174D01*
X165185351Y-84796174D01*
X165046174Y-84935351D01*
X165046174Y-84935352D01*
X165046172Y-84935354D01*
X165012901Y-84981148D01*
X164930476Y-85094594D01*
X164841117Y-85269970D01*
X164780290Y-85457173D01*
X164749500Y-85651577D01*
X164749500Y-85848422D01*
X164780290Y-86042826D01*
X164841117Y-86230029D01*
X164906446Y-86358244D01*
X164930476Y-86405405D01*
X165046172Y-86564646D01*
X165185354Y-86703828D01*
X165344595Y-86819524D01*
X165427455Y-86861743D01*
X165519970Y-86908882D01*
X165519972Y-86908882D01*
X165519975Y-86908884D01*
X165556732Y-86920827D01*
X165707173Y-86969709D01*
X165901578Y-87000500D01*
X166092297Y-87000500D01*
X166159336Y-87020185D01*
X166205091Y-87072989D01*
X166215035Y-87142147D01*
X166213914Y-87148691D01*
X166199500Y-87221153D01*
X166199500Y-87378846D01*
X166230261Y-87533489D01*
X166230264Y-87533501D01*
X166290602Y-87679172D01*
X166290609Y-87679185D01*
X166378210Y-87810288D01*
X166378213Y-87810292D01*
X166489707Y-87921786D01*
X166489711Y-87921789D01*
X166620814Y-88009390D01*
X166620827Y-88009397D01*
X166766498Y-88069735D01*
X166766503Y-88069737D01*
X166921153Y-88100499D01*
X166921156Y-88100500D01*
X166921158Y-88100500D01*
X167078844Y-88100500D01*
X167078845Y-88100499D01*
X167233497Y-88069737D01*
X167379179Y-88009394D01*
X167510289Y-87921789D01*
X167621789Y-87810289D01*
X167709394Y-87679179D01*
X167769737Y-87533497D01*
X167800500Y-87378842D01*
X167800500Y-87221158D01*
X167800500Y-87221155D01*
X167800499Y-87221153D01*
X167786085Y-87148691D01*
X167769737Y-87066503D01*
X167769735Y-87066498D01*
X167709397Y-86920827D01*
X167709390Y-86920814D01*
X167621789Y-86789711D01*
X167621786Y-86789707D01*
X167510292Y-86678213D01*
X167510288Y-86678210D01*
X167379185Y-86590609D01*
X167379172Y-86590602D01*
X167233501Y-86530264D01*
X167233491Y-86530261D01*
X167187510Y-86521115D01*
X167125599Y-86488730D01*
X167091025Y-86428014D01*
X167094766Y-86358244D01*
X167101217Y-86343203D01*
X167107797Y-86330290D01*
X167158884Y-86230025D01*
X167219709Y-86042826D01*
X167223879Y-86016498D01*
X167250500Y-85848422D01*
X167250500Y-85651577D01*
X167219709Y-85457175D01*
X167219709Y-85457174D01*
X167194650Y-85380053D01*
X167192655Y-85310215D01*
X167228735Y-85250382D01*
X167291436Y-85219553D01*
X167360850Y-85227517D01*
X167412899Y-85268851D01*
X167413716Y-85269975D01*
X167446172Y-85314646D01*
X167585354Y-85453828D01*
X167744595Y-85569524D01*
X167805389Y-85600500D01*
X167919970Y-85658882D01*
X167919972Y-85658882D01*
X167919975Y-85658884D01*
X168020317Y-85691487D01*
X168107173Y-85719709D01*
X168301578Y-85750500D01*
X168301583Y-85750500D01*
X168498422Y-85750500D01*
X168692826Y-85719709D01*
X168724584Y-85709390D01*
X168880025Y-85658884D01*
X169055405Y-85569524D01*
X169214646Y-85453828D01*
X169353828Y-85314646D01*
X169375183Y-85285252D01*
X169430512Y-85242589D01*
X169500126Y-85236610D01*
X169561921Y-85269216D01*
X169596278Y-85330055D01*
X169599500Y-85358140D01*
X169599500Y-121395572D01*
X169599184Y-121404418D01*
X169599184Y-121404419D01*
X169584869Y-121604557D01*
X169582351Y-121622068D01*
X169540646Y-121813787D01*
X169535662Y-121830763D01*
X169467090Y-122014609D01*
X169459740Y-122030701D01*
X169365711Y-122202904D01*
X169356146Y-122217789D01*
X169238558Y-122374867D01*
X169226972Y-122388237D01*
X169088237Y-122526972D01*
X169074867Y-122538558D01*
X168917789Y-122656146D01*
X168902904Y-122665711D01*
X168730701Y-122759740D01*
X168714609Y-122767090D01*
X168530763Y-122835662D01*
X168513787Y-122840646D01*
X168322068Y-122882351D01*
X168304557Y-122884869D01*
X168123779Y-122897799D01*
X168104417Y-122899184D01*
X168095572Y-122899500D01*
X162570188Y-122899500D01*
X162503149Y-122879815D01*
X162457394Y-122827011D01*
X162447450Y-122757853D01*
X162469869Y-122702615D01*
X162583343Y-122546433D01*
X162690568Y-122335992D01*
X162763553Y-122111368D01*
X162767405Y-122087049D01*
X162800500Y-121878097D01*
X162800500Y-121641902D01*
X162763553Y-121408631D01*
X162723058Y-121284003D01*
X162690568Y-121184008D01*
X162690566Y-121184005D01*
X162690566Y-121184003D01*
X162583342Y-120973566D01*
X162444517Y-120782490D01*
X162277510Y-120615483D01*
X162086433Y-120476657D01*
X162072253Y-120469432D01*
X161875996Y-120369433D01*
X161651368Y-120296446D01*
X161418097Y-120259500D01*
X161418092Y-120259500D01*
X161181908Y-120259500D01*
X161181903Y-120259500D01*
X160948631Y-120296446D01*
X160724003Y-120369433D01*
X160513566Y-120476657D01*
X160404550Y-120555862D01*
X160322490Y-120615483D01*
X160322488Y-120615485D01*
X160322487Y-120615485D01*
X160155485Y-120782487D01*
X160155485Y-120782488D01*
X160155483Y-120782490D01*
X160129438Y-120818338D01*
X160016657Y-120973566D01*
X159909433Y-121184003D01*
X159836446Y-121408631D01*
X159799500Y-121641902D01*
X159799500Y-121878097D01*
X159836446Y-122111368D01*
X159909433Y-122335996D01*
X160006741Y-122526972D01*
X160016657Y-122546433D01*
X160130130Y-122702615D01*
X160153610Y-122768421D01*
X160137785Y-122836475D01*
X160087679Y-122885169D01*
X160029812Y-122899500D01*
X156070188Y-122899500D01*
X156003149Y-122879815D01*
X155957394Y-122827011D01*
X155947450Y-122757853D01*
X155969869Y-122702615D01*
X156083343Y-122546433D01*
X156190568Y-122335992D01*
X156263553Y-122111368D01*
X156267405Y-122087049D01*
X156300500Y-121878097D01*
X156300500Y-121641902D01*
X156263553Y-121408631D01*
X156223058Y-121284003D01*
X156190568Y-121184008D01*
X156190566Y-121184005D01*
X156190566Y-121184003D01*
X156083342Y-120973566D01*
X155944517Y-120782490D01*
X155777510Y-120615483D01*
X155586433Y-120476657D01*
X155572253Y-120469432D01*
X155375996Y-120369433D01*
X155151368Y-120296446D01*
X154918097Y-120259500D01*
X154918092Y-120259500D01*
X154681908Y-120259500D01*
X154681903Y-120259500D01*
X154448631Y-120296446D01*
X154224003Y-120369433D01*
X154013566Y-120476657D01*
X153904550Y-120555862D01*
X153822490Y-120615483D01*
X153822488Y-120615485D01*
X153822487Y-120615485D01*
X153655485Y-120782487D01*
X153655485Y-120782488D01*
X153655483Y-120782490D01*
X153629438Y-120818338D01*
X153516657Y-120973566D01*
X153409433Y-121184003D01*
X153336446Y-121408631D01*
X153299500Y-121641902D01*
X153299500Y-121878097D01*
X153336446Y-122111368D01*
X153409433Y-122335996D01*
X153506741Y-122526972D01*
X153516657Y-122546433D01*
X153630130Y-122702615D01*
X153653610Y-122768421D01*
X153637785Y-122836475D01*
X153587679Y-122885169D01*
X153529812Y-122899500D01*
X142092843Y-122899500D01*
X142025804Y-122879815D01*
X141980049Y-122827011D01*
X141970105Y-122757853D01*
X141992525Y-122702615D01*
X142011877Y-122675977D01*
X142033343Y-122646433D01*
X142140568Y-122435992D01*
X142213553Y-122211368D01*
X142219069Y-122176539D01*
X142250500Y-121978097D01*
X142250500Y-121741902D01*
X142213553Y-121508631D01*
X142176817Y-121395572D01*
X142140568Y-121284008D01*
X142140566Y-121284005D01*
X142140566Y-121284003D01*
X142109760Y-121223543D01*
X142429499Y-121223543D01*
X142467947Y-121416829D01*
X142467950Y-121416839D01*
X142543364Y-121598907D01*
X142543371Y-121598920D01*
X142652860Y-121762781D01*
X142652863Y-121762785D01*
X142792214Y-121902136D01*
X142792218Y-121902139D01*
X142956079Y-122011628D01*
X142956092Y-122011635D01*
X143138160Y-122087049D01*
X143138165Y-122087051D01*
X143138169Y-122087051D01*
X143138170Y-122087052D01*
X143331456Y-122125500D01*
X143331459Y-122125500D01*
X143528543Y-122125500D01*
X143658582Y-122099632D01*
X143721835Y-122087051D01*
X143903914Y-122011632D01*
X144067782Y-121902139D01*
X144207139Y-121762782D01*
X144316632Y-121598914D01*
X144392051Y-121416835D01*
X144430500Y-121223543D01*
X151069499Y-121223543D01*
X151107947Y-121416829D01*
X151107950Y-121416839D01*
X151183364Y-121598907D01*
X151183371Y-121598920D01*
X151292860Y-121762781D01*
X151292863Y-121762785D01*
X151432214Y-121902136D01*
X151432218Y-121902139D01*
X151596079Y-122011628D01*
X151596092Y-122011635D01*
X151778160Y-122087049D01*
X151778165Y-122087051D01*
X151778169Y-122087051D01*
X151778170Y-122087052D01*
X151971456Y-122125500D01*
X151971459Y-122125500D01*
X152168543Y-122125500D01*
X152298582Y-122099632D01*
X152361835Y-122087051D01*
X152543914Y-122011632D01*
X152707782Y-121902139D01*
X152847139Y-121762782D01*
X152956632Y-121598914D01*
X153032051Y-121416835D01*
X153070500Y-121223541D01*
X153070500Y-120226459D01*
X153070500Y-120226456D01*
X153032052Y-120033170D01*
X153032051Y-120033169D01*
X153032051Y-120033165D01*
X153003008Y-119963048D01*
X152956635Y-119851092D01*
X152956628Y-119851079D01*
X152847139Y-119687218D01*
X152847136Y-119687214D01*
X152707785Y-119547863D01*
X152707781Y-119547860D01*
X152573245Y-119457966D01*
X152543919Y-119438371D01*
X152543907Y-119438364D01*
X152361839Y-119362950D01*
X152361829Y-119362947D01*
X152338648Y-119358336D01*
X163649500Y-119358336D01*
X163649500Y-119661663D01*
X163683457Y-119963048D01*
X163683460Y-119963062D01*
X163750953Y-120258771D01*
X163750957Y-120258783D01*
X163851133Y-120545068D01*
X163982733Y-120818338D01*
X163982735Y-120818341D01*
X164144108Y-121075164D01*
X164333221Y-121312304D01*
X164547696Y-121526779D01*
X164784836Y-121715892D01*
X165041659Y-121877265D01*
X165314935Y-122008868D01*
X165529951Y-122084105D01*
X165601216Y-122109042D01*
X165601228Y-122109046D01*
X165896937Y-122176540D01*
X165896946Y-122176541D01*
X165896951Y-122176542D01*
X166097874Y-122199180D01*
X166198337Y-122210499D01*
X166198340Y-122210500D01*
X166198343Y-122210500D01*
X166501660Y-122210500D01*
X166501661Y-122210499D01*
X166655694Y-122193144D01*
X166803048Y-122176542D01*
X166803051Y-122176541D01*
X166803063Y-122176540D01*
X167098772Y-122109046D01*
X167385065Y-122008868D01*
X167658341Y-121877265D01*
X167915164Y-121715892D01*
X168152304Y-121526779D01*
X168366779Y-121312304D01*
X168555892Y-121075164D01*
X168717265Y-120818341D01*
X168848868Y-120545065D01*
X168949046Y-120258772D01*
X169016540Y-119963063D01*
X169029158Y-119851079D01*
X169039232Y-119761663D01*
X169050500Y-119661657D01*
X169050500Y-119358343D01*
X169016540Y-119056937D01*
X168949046Y-118761228D01*
X168848868Y-118474935D01*
X168717265Y-118201659D01*
X168555892Y-117944836D01*
X168366779Y-117707696D01*
X168152304Y-117493221D01*
X167915164Y-117304108D01*
X167658341Y-117142735D01*
X167658338Y-117142733D01*
X167385068Y-117011133D01*
X167098783Y-116910957D01*
X167098771Y-116910953D01*
X166839655Y-116851812D01*
X166803063Y-116843460D01*
X166803060Y-116843459D01*
X166803048Y-116843457D01*
X166501663Y-116809500D01*
X166501657Y-116809500D01*
X166198343Y-116809500D01*
X166198336Y-116809500D01*
X165896951Y-116843457D01*
X165896937Y-116843460D01*
X165601228Y-116910953D01*
X165601216Y-116910957D01*
X165314931Y-117011133D01*
X165041661Y-117142733D01*
X164784837Y-117304107D01*
X164547696Y-117493220D01*
X164333220Y-117707696D01*
X164144107Y-117944837D01*
X163982733Y-118201661D01*
X163851133Y-118474931D01*
X163750957Y-118761216D01*
X163750953Y-118761228D01*
X163683460Y-119056937D01*
X163683457Y-119056951D01*
X163649500Y-119358336D01*
X152338648Y-119358336D01*
X152168543Y-119324500D01*
X152168541Y-119324500D01*
X151971459Y-119324500D01*
X151971457Y-119324500D01*
X151778170Y-119362947D01*
X151778160Y-119362950D01*
X151596092Y-119438364D01*
X151596079Y-119438371D01*
X151432218Y-119547860D01*
X151432214Y-119547863D01*
X151292863Y-119687214D01*
X151292860Y-119687218D01*
X151183371Y-119851079D01*
X151183364Y-119851092D01*
X151107950Y-120033160D01*
X151107947Y-120033170D01*
X151069500Y-120226456D01*
X151069500Y-120226459D01*
X151069500Y-121223541D01*
X151069500Y-121223543D01*
X151069499Y-121223543D01*
X144430500Y-121223543D01*
X144430500Y-121223541D01*
X144430500Y-120226459D01*
X144430500Y-120226456D01*
X144392052Y-120033170D01*
X144392051Y-120033169D01*
X144392051Y-120033165D01*
X144363008Y-119963048D01*
X144316635Y-119851092D01*
X144316628Y-119851079D01*
X144207139Y-119687218D01*
X144207136Y-119687214D01*
X144067785Y-119547863D01*
X144067781Y-119547860D01*
X143903920Y-119438371D01*
X143903907Y-119438364D01*
X143721839Y-119362950D01*
X143721829Y-119362947D01*
X143528543Y-119324500D01*
X143528541Y-119324500D01*
X143331459Y-119324500D01*
X143331457Y-119324500D01*
X143138170Y-119362947D01*
X143138160Y-119362950D01*
X142956092Y-119438364D01*
X142956079Y-119438371D01*
X142792218Y-119547860D01*
X142792214Y-119547863D01*
X142652863Y-119687214D01*
X142652860Y-119687218D01*
X142543371Y-119851079D01*
X142543364Y-119851092D01*
X142467950Y-120033160D01*
X142467947Y-120033170D01*
X142429500Y-120226456D01*
X142429500Y-120226459D01*
X142429500Y-121223541D01*
X142429500Y-121223543D01*
X142429499Y-121223543D01*
X142109760Y-121223543D01*
X142084002Y-121172991D01*
X142033343Y-121073567D01*
X141894517Y-120882490D01*
X141727510Y-120715483D01*
X141536433Y-120576657D01*
X141325996Y-120469433D01*
X141101368Y-120396446D01*
X140868097Y-120359500D01*
X140868092Y-120359500D01*
X140631908Y-120359500D01*
X140631903Y-120359500D01*
X140398631Y-120396446D01*
X140174003Y-120469433D01*
X139963566Y-120576657D01*
X139854550Y-120655862D01*
X139772490Y-120715483D01*
X139772488Y-120715485D01*
X139772487Y-120715485D01*
X139605485Y-120882487D01*
X139605485Y-120882488D01*
X139605483Y-120882490D01*
X139579438Y-120918338D01*
X139466657Y-121073566D01*
X139359433Y-121284003D01*
X139286446Y-121508631D01*
X139249500Y-121741902D01*
X139249500Y-121978097D01*
X139286446Y-122211368D01*
X139359433Y-122435996D01*
X139466659Y-122646436D01*
X139507475Y-122702615D01*
X139530955Y-122768421D01*
X139515130Y-122836475D01*
X139465024Y-122885170D01*
X139407157Y-122899500D01*
X135592843Y-122899500D01*
X135525804Y-122879815D01*
X135480049Y-122827011D01*
X135470105Y-122757853D01*
X135492525Y-122702615D01*
X135511877Y-122675977D01*
X135533343Y-122646433D01*
X135640568Y-122435992D01*
X135713553Y-122211368D01*
X135719069Y-122176539D01*
X135750500Y-121978097D01*
X135750500Y-121741902D01*
X135713553Y-121508631D01*
X135676817Y-121395572D01*
X135640568Y-121284008D01*
X135640566Y-121284005D01*
X135640566Y-121284003D01*
X135584002Y-121172991D01*
X135533343Y-121073567D01*
X135394517Y-120882490D01*
X135227510Y-120715483D01*
X135036433Y-120576657D01*
X134825996Y-120469433D01*
X134601368Y-120396446D01*
X134368097Y-120359500D01*
X134368092Y-120359500D01*
X134131908Y-120359500D01*
X134131903Y-120359500D01*
X133898631Y-120396446D01*
X133674003Y-120469433D01*
X133463566Y-120576657D01*
X133354550Y-120655862D01*
X133272490Y-120715483D01*
X133272488Y-120715485D01*
X133272487Y-120715485D01*
X133105485Y-120882487D01*
X133105485Y-120882488D01*
X133105483Y-120882490D01*
X133079438Y-120918338D01*
X132966657Y-121073566D01*
X132859433Y-121284003D01*
X132786446Y-121508631D01*
X132749500Y-121741902D01*
X132749500Y-121978097D01*
X132786446Y-122211368D01*
X132859433Y-122435996D01*
X132966659Y-122646436D01*
X133007475Y-122702615D01*
X133030955Y-122768421D01*
X133015130Y-122836475D01*
X132965024Y-122885170D01*
X132907157Y-122899500D01*
X127504428Y-122899500D01*
X127495582Y-122899184D01*
X127473622Y-122897613D01*
X127295442Y-122884869D01*
X127277931Y-122882351D01*
X127086212Y-122840646D01*
X127069236Y-122835662D01*
X126885390Y-122767090D01*
X126869298Y-122759740D01*
X126697095Y-122665711D01*
X126682210Y-122656146D01*
X126525132Y-122538558D01*
X126511762Y-122526972D01*
X126373027Y-122388237D01*
X126361441Y-122374867D01*
X126243849Y-122217784D01*
X126234288Y-122202904D01*
X126140259Y-122030701D01*
X126132909Y-122014609D01*
X126118980Y-121977265D01*
X126064334Y-121830755D01*
X126059355Y-121813797D01*
X126017647Y-121622063D01*
X126015130Y-121604556D01*
X126014726Y-121598914D01*
X126000816Y-121404418D01*
X126000500Y-121395572D01*
X126000500Y-119458336D01*
X126599500Y-119458336D01*
X126599500Y-119761663D01*
X126633457Y-120063048D01*
X126633460Y-120063062D01*
X126700953Y-120358771D01*
X126700957Y-120358783D01*
X126801133Y-120645068D01*
X126932733Y-120918338D01*
X126932735Y-120918341D01*
X127094108Y-121175164D01*
X127180908Y-121284008D01*
X127280292Y-121408632D01*
X127283221Y-121412304D01*
X127497696Y-121626779D01*
X127734836Y-121815892D01*
X127991659Y-121977265D01*
X128264935Y-122108868D01*
X128458328Y-122176539D01*
X128551216Y-122209042D01*
X128551228Y-122209046D01*
X128846937Y-122276540D01*
X128846946Y-122276541D01*
X128846951Y-122276542D01*
X129047874Y-122299180D01*
X129148337Y-122310499D01*
X129148340Y-122310500D01*
X129148343Y-122310500D01*
X129451660Y-122310500D01*
X129451661Y-122310499D01*
X129605694Y-122293144D01*
X129753048Y-122276542D01*
X129753051Y-122276541D01*
X129753063Y-122276540D01*
X130048772Y-122209046D01*
X130335065Y-122108868D01*
X130608341Y-121977265D01*
X130865164Y-121815892D01*
X131102304Y-121626779D01*
X131316779Y-121412304D01*
X131505892Y-121175164D01*
X131667265Y-120918341D01*
X131798868Y-120645065D01*
X131899046Y-120358772D01*
X131966540Y-120063063D01*
X132000500Y-119761657D01*
X132000500Y-119458343D01*
X131966540Y-119156937D01*
X131899046Y-118861228D01*
X131798868Y-118574935D01*
X131667265Y-118301659D01*
X131505892Y-118044836D01*
X131316779Y-117807696D01*
X131102304Y-117593221D01*
X130865164Y-117404108D01*
X130752273Y-117333174D01*
X130608338Y-117242733D01*
X130606612Y-117241902D01*
X132749500Y-117241902D01*
X132749500Y-117478097D01*
X132786446Y-117711368D01*
X132859433Y-117935996D01*
X132921115Y-118057052D01*
X132966657Y-118146433D01*
X133105483Y-118337510D01*
X133272490Y-118504517D01*
X133463567Y-118643343D01*
X133562991Y-118694002D01*
X133674003Y-118750566D01*
X133674005Y-118750566D01*
X133674008Y-118750568D01*
X133794412Y-118789689D01*
X133898631Y-118823553D01*
X134131903Y-118860500D01*
X134131908Y-118860500D01*
X134368097Y-118860500D01*
X134601368Y-118823553D01*
X134825992Y-118750568D01*
X135036433Y-118643343D01*
X135227510Y-118504517D01*
X135394517Y-118337510D01*
X135533343Y-118146433D01*
X135640568Y-117935992D01*
X135713553Y-117711368D01*
X135727741Y-117621789D01*
X135750500Y-117478097D01*
X135750500Y-117241902D01*
X139249500Y-117241902D01*
X139249500Y-117478097D01*
X139286446Y-117711368D01*
X139359433Y-117935996D01*
X139421115Y-118057052D01*
X139466657Y-118146433D01*
X139605483Y-118337510D01*
X139772490Y-118504517D01*
X139963567Y-118643343D01*
X140062991Y-118694002D01*
X140174003Y-118750566D01*
X140174005Y-118750566D01*
X140174008Y-118750568D01*
X140294412Y-118789689D01*
X140398631Y-118823553D01*
X140631903Y-118860500D01*
X140631908Y-118860500D01*
X140868097Y-118860500D01*
X141101368Y-118823553D01*
X141325992Y-118750568D01*
X141536433Y-118643343D01*
X141727510Y-118504517D01*
X141894517Y-118337510D01*
X142033343Y-118146433D01*
X142140568Y-117935992D01*
X142213553Y-117711368D01*
X142236115Y-117568914D01*
X142250498Y-117478105D01*
X142250499Y-117478097D01*
X142250500Y-117478092D01*
X142250500Y-117478079D01*
X142250729Y-117475175D01*
X142251129Y-117474124D01*
X142251263Y-117473280D01*
X142251440Y-117473308D01*
X142275606Y-117409884D01*
X142331832Y-117368407D01*
X142401557Y-117363913D01*
X142462644Y-117397828D01*
X142488909Y-117437438D01*
X142543366Y-117568911D01*
X142543371Y-117568920D01*
X142652860Y-117732781D01*
X142652863Y-117732785D01*
X142792214Y-117872136D01*
X142792218Y-117872139D01*
X142956079Y-117981628D01*
X142956092Y-117981635D01*
X143138160Y-118057049D01*
X143138165Y-118057051D01*
X143138169Y-118057051D01*
X143138170Y-118057052D01*
X143331456Y-118095500D01*
X143331459Y-118095500D01*
X143528543Y-118095500D01*
X143658582Y-118069632D01*
X143721835Y-118057051D01*
X143903914Y-117981632D01*
X144067782Y-117872139D01*
X144207139Y-117732782D01*
X144316632Y-117568914D01*
X144350900Y-117486181D01*
X144394739Y-117431781D01*
X144461032Y-117409715D01*
X144528732Y-117426993D01*
X144546220Y-117440578D01*
X144546240Y-117440553D01*
X144552681Y-117445495D01*
X144552686Y-117445500D01*
X144635341Y-117493221D01*
X144664903Y-117510289D01*
X144666814Y-117511392D01*
X144794108Y-117545500D01*
X144794110Y-117545500D01*
X144925890Y-117545500D01*
X144925892Y-117545500D01*
X145053186Y-117511392D01*
X145167314Y-117445500D01*
X145260500Y-117352314D01*
X145326392Y-117238186D01*
X145360500Y-117110892D01*
X145360500Y-116979108D01*
X145344971Y-116921153D01*
X145699500Y-116921153D01*
X145699500Y-117078846D01*
X145730261Y-117233489D01*
X145730264Y-117233501D01*
X145790602Y-117379172D01*
X145790609Y-117379185D01*
X145878210Y-117510288D01*
X145878213Y-117510292D01*
X145989707Y-117621786D01*
X145989711Y-117621789D01*
X146120814Y-117709390D01*
X146120827Y-117709397D01*
X146266498Y-117769735D01*
X146266503Y-117769737D01*
X146421153Y-117800499D01*
X146421156Y-117800500D01*
X146421158Y-117800500D01*
X146578844Y-117800500D01*
X146578845Y-117800499D01*
X146733497Y-117769737D01*
X146846166Y-117723067D01*
X146879172Y-117709397D01*
X146879172Y-117709396D01*
X146879179Y-117709394D01*
X147010289Y-117621789D01*
X147121789Y-117510289D01*
X147209394Y-117379179D01*
X147269737Y-117233497D01*
X147300500Y-117078842D01*
X147300500Y-116921158D01*
X147300500Y-116921155D01*
X147300499Y-116921153D01*
X148699500Y-116921153D01*
X148699500Y-117078846D01*
X148730261Y-117233489D01*
X148730264Y-117233501D01*
X148790602Y-117379172D01*
X148790609Y-117379185D01*
X148878210Y-117510288D01*
X148878213Y-117510292D01*
X148989707Y-117621786D01*
X148989711Y-117621789D01*
X149120814Y-117709390D01*
X149120827Y-117709397D01*
X149266498Y-117769735D01*
X149266503Y-117769737D01*
X149421153Y-117800499D01*
X149421156Y-117800500D01*
X149421158Y-117800500D01*
X149578844Y-117800500D01*
X149578845Y-117800499D01*
X149733497Y-117769737D01*
X149846166Y-117723067D01*
X149879172Y-117709397D01*
X149879172Y-117709396D01*
X149879179Y-117709394D01*
X150010289Y-117621789D01*
X150121789Y-117510289D01*
X150148334Y-117470560D01*
X150201945Y-117425757D01*
X150271270Y-117417048D01*
X150326928Y-117441081D01*
X150332683Y-117445498D01*
X150332685Y-117445499D01*
X150332686Y-117445500D01*
X150389137Y-117478092D01*
X150444908Y-117510292D01*
X150446814Y-117511392D01*
X150574108Y-117545500D01*
X150574110Y-117545500D01*
X150705890Y-117545500D01*
X150705892Y-117545500D01*
X150833186Y-117511392D01*
X150947314Y-117445500D01*
X150947321Y-117445492D01*
X150953760Y-117440553D01*
X150954644Y-117441705D01*
X151008169Y-117412472D01*
X151077862Y-117417450D01*
X151133799Y-117459316D01*
X151149100Y-117486184D01*
X151183364Y-117568907D01*
X151183371Y-117568920D01*
X151292860Y-117732781D01*
X151292863Y-117732785D01*
X151432214Y-117872136D01*
X151432218Y-117872139D01*
X151596079Y-117981628D01*
X151596092Y-117981635D01*
X151778160Y-118057049D01*
X151778165Y-118057051D01*
X151778169Y-118057051D01*
X151778170Y-118057052D01*
X151971456Y-118095500D01*
X151971459Y-118095500D01*
X152168543Y-118095500D01*
X152298582Y-118069632D01*
X152361835Y-118057051D01*
X152543914Y-117981632D01*
X152707782Y-117872139D01*
X152847139Y-117732782D01*
X152956632Y-117568914D01*
X153032051Y-117386835D01*
X153051269Y-117290221D01*
X153053883Y-117277082D01*
X153086268Y-117215171D01*
X153146984Y-117180596D01*
X153216753Y-117184336D01*
X153273425Y-117225203D01*
X153299006Y-117290221D01*
X153299500Y-117301273D01*
X153299500Y-117378097D01*
X153336446Y-117611368D01*
X153409433Y-117835996D01*
X153515843Y-118044836D01*
X153516657Y-118046433D01*
X153655483Y-118237510D01*
X153822490Y-118404517D01*
X154013567Y-118543343D01*
X154075562Y-118574931D01*
X154224003Y-118650566D01*
X154224005Y-118650566D01*
X154224008Y-118650568D01*
X154344412Y-118689689D01*
X154448631Y-118723553D01*
X154681903Y-118760500D01*
X154681908Y-118760500D01*
X154918097Y-118760500D01*
X155151368Y-118723553D01*
X155375992Y-118650568D01*
X155586433Y-118543343D01*
X155777510Y-118404517D01*
X155944517Y-118237510D01*
X156083343Y-118046433D01*
X156190568Y-117835992D01*
X156263553Y-117611368D01*
X156270277Y-117568913D01*
X156300500Y-117378097D01*
X156300500Y-117141902D01*
X159799500Y-117141902D01*
X159799500Y-117378097D01*
X159836446Y-117611368D01*
X159909433Y-117835996D01*
X160015843Y-118044836D01*
X160016657Y-118046433D01*
X160155483Y-118237510D01*
X160322490Y-118404517D01*
X160513567Y-118543343D01*
X160575562Y-118574931D01*
X160724003Y-118650566D01*
X160724005Y-118650566D01*
X160724008Y-118650568D01*
X160844412Y-118689689D01*
X160948631Y-118723553D01*
X161181903Y-118760500D01*
X161181908Y-118760500D01*
X161418097Y-118760500D01*
X161651368Y-118723553D01*
X161875992Y-118650568D01*
X162086433Y-118543343D01*
X162277510Y-118404517D01*
X162444517Y-118237510D01*
X162583343Y-118046433D01*
X162690568Y-117835992D01*
X162763553Y-117611368D01*
X162770277Y-117568913D01*
X162800500Y-117378097D01*
X162800500Y-117141902D01*
X162763553Y-116908631D01*
X162729689Y-116804412D01*
X162690568Y-116684008D01*
X162690566Y-116684005D01*
X162690566Y-116684003D01*
X162596948Y-116500269D01*
X162583343Y-116473567D01*
X162444517Y-116282490D01*
X162277510Y-116115483D01*
X162086433Y-115976657D01*
X162072253Y-115969432D01*
X161875996Y-115869433D01*
X161651368Y-115796446D01*
X161418097Y-115759500D01*
X161418092Y-115759500D01*
X161181908Y-115759500D01*
X161181903Y-115759500D01*
X160948631Y-115796446D01*
X160724003Y-115869433D01*
X160513566Y-115976657D01*
X160404550Y-116055862D01*
X160322490Y-116115483D01*
X160322488Y-116115485D01*
X160322487Y-116115485D01*
X160155485Y-116282487D01*
X160155485Y-116282488D01*
X160155483Y-116282490D01*
X160095862Y-116364550D01*
X160016657Y-116473566D01*
X159909433Y-116684003D01*
X159836446Y-116908631D01*
X159799500Y-117141902D01*
X156300500Y-117141902D01*
X156263553Y-116908631D01*
X156229689Y-116804412D01*
X156190568Y-116684008D01*
X156190566Y-116684005D01*
X156190566Y-116684003D01*
X156096948Y-116500269D01*
X156083343Y-116473567D01*
X155944517Y-116282490D01*
X155777510Y-116115483D01*
X155586433Y-115976657D01*
X155572253Y-115969432D01*
X155375996Y-115869433D01*
X155151369Y-115796447D01*
X155022598Y-115776051D01*
X154959464Y-115746121D01*
X154922533Y-115686810D01*
X154923531Y-115616947D01*
X154938891Y-115584693D01*
X155009394Y-115479179D01*
X155069737Y-115333497D01*
X155100500Y-115178842D01*
X155100500Y-115021158D01*
X155100500Y-115021155D01*
X155100499Y-115021153D01*
X155069738Y-114866510D01*
X155069737Y-114866503D01*
X155069735Y-114866498D01*
X155009397Y-114720827D01*
X155009390Y-114720814D01*
X154921789Y-114589711D01*
X154921786Y-114589707D01*
X154810292Y-114478213D01*
X154810288Y-114478210D01*
X154679185Y-114390609D01*
X154679172Y-114390602D01*
X154533501Y-114330264D01*
X154533489Y-114330261D01*
X154378845Y-114299500D01*
X154378842Y-114299500D01*
X154221158Y-114299500D01*
X154221155Y-114299500D01*
X154066510Y-114330261D01*
X154066498Y-114330264D01*
X153920827Y-114390602D01*
X153920814Y-114390609D01*
X153789711Y-114478210D01*
X153789707Y-114478213D01*
X153678213Y-114589707D01*
X153678210Y-114589711D01*
X153590609Y-114720814D01*
X153590602Y-114720827D01*
X153530264Y-114866498D01*
X153530261Y-114866510D01*
X153499500Y-115021153D01*
X153499500Y-115178846D01*
X153530261Y-115333489D01*
X153530264Y-115333501D01*
X153590602Y-115479172D01*
X153590609Y-115479185D01*
X153678210Y-115610288D01*
X153678213Y-115610292D01*
X153789707Y-115721786D01*
X153789711Y-115721789D01*
X153920814Y-115809390D01*
X153920816Y-115809391D01*
X153920821Y-115809394D01*
X153921948Y-115809860D01*
X153922446Y-115810262D01*
X153926191Y-115812264D01*
X153925811Y-115812974D01*
X153976352Y-115853700D01*
X153998419Y-115919993D01*
X153981142Y-115987693D01*
X153947384Y-116024740D01*
X153822496Y-116115478D01*
X153822487Y-116115485D01*
X153655485Y-116282487D01*
X153655485Y-116282488D01*
X153655483Y-116282490D01*
X153595862Y-116364550D01*
X153516657Y-116473566D01*
X153409433Y-116684003D01*
X153336446Y-116908631D01*
X153316973Y-117031583D01*
X153287044Y-117094718D01*
X153227732Y-117131649D01*
X153157869Y-117130651D01*
X153099637Y-117092041D01*
X153071523Y-117028077D01*
X153070500Y-117012185D01*
X153070500Y-115896456D01*
X153032052Y-115703170D01*
X153032051Y-115703169D01*
X153032051Y-115703165D01*
X152993581Y-115610289D01*
X152956635Y-115521092D01*
X152956628Y-115521079D01*
X152847139Y-115357218D01*
X152847136Y-115357214D01*
X152707785Y-115217863D01*
X152707781Y-115217860D01*
X152543920Y-115108371D01*
X152543907Y-115108364D01*
X152361839Y-115032950D01*
X152361829Y-115032947D01*
X152168543Y-114994500D01*
X152168541Y-114994500D01*
X151971459Y-114994500D01*
X151971457Y-114994500D01*
X151778170Y-115032947D01*
X151778160Y-115032950D01*
X151596092Y-115108364D01*
X151596079Y-115108371D01*
X151432218Y-115217860D01*
X151432214Y-115217863D01*
X151292863Y-115357214D01*
X151292860Y-115357218D01*
X151183371Y-115521079D01*
X151183364Y-115521092D01*
X151107950Y-115703160D01*
X151107947Y-115703170D01*
X151069500Y-115896456D01*
X151069500Y-116500269D01*
X151049815Y-116567308D01*
X150997011Y-116613063D01*
X150927853Y-116623007D01*
X150883500Y-116607656D01*
X150833189Y-116578609D01*
X150833186Y-116578608D01*
X150705892Y-116544500D01*
X150574108Y-116544500D01*
X150446814Y-116578608D01*
X150446813Y-116578608D01*
X150446811Y-116578609D01*
X150446810Y-116578609D01*
X150355713Y-116631205D01*
X150287813Y-116647678D01*
X150221786Y-116624826D01*
X150190611Y-116592709D01*
X150121789Y-116489711D01*
X150121786Y-116489707D01*
X150010292Y-116378213D01*
X150010288Y-116378210D01*
X149879185Y-116290609D01*
X149879172Y-116290602D01*
X149733501Y-116230264D01*
X149733489Y-116230261D01*
X149578845Y-116199500D01*
X149578842Y-116199500D01*
X149421158Y-116199500D01*
X149421155Y-116199500D01*
X149266510Y-116230261D01*
X149266498Y-116230264D01*
X149120827Y-116290602D01*
X149120814Y-116290609D01*
X148989711Y-116378210D01*
X148989707Y-116378213D01*
X148878213Y-116489707D01*
X148878210Y-116489711D01*
X148790609Y-116620814D01*
X148790602Y-116620827D01*
X148730264Y-116766498D01*
X148730261Y-116766510D01*
X148699500Y-116921153D01*
X147300499Y-116921153D01*
X147294370Y-116890342D01*
X147269737Y-116766503D01*
X147257801Y-116737686D01*
X147209397Y-116620827D01*
X147209390Y-116620814D01*
X147121789Y-116489711D01*
X147121786Y-116489707D01*
X147010292Y-116378213D01*
X147010288Y-116378210D01*
X146879185Y-116290609D01*
X146879172Y-116290602D01*
X146733501Y-116230264D01*
X146733489Y-116230261D01*
X146578845Y-116199500D01*
X146578842Y-116199500D01*
X146421158Y-116199500D01*
X146421155Y-116199500D01*
X146266510Y-116230261D01*
X146266498Y-116230264D01*
X146120827Y-116290602D01*
X146120814Y-116290609D01*
X145989711Y-116378210D01*
X145989707Y-116378213D01*
X145878213Y-116489707D01*
X145878210Y-116489711D01*
X145790609Y-116620814D01*
X145790602Y-116620827D01*
X145730264Y-116766498D01*
X145730261Y-116766510D01*
X145699500Y-116921153D01*
X145344971Y-116921153D01*
X145326392Y-116851814D01*
X145260500Y-116737686D01*
X145167314Y-116644500D01*
X145110250Y-116611554D01*
X145053187Y-116578608D01*
X144989539Y-116561554D01*
X144925892Y-116544500D01*
X144794108Y-116544500D01*
X144666814Y-116578608D01*
X144666813Y-116578608D01*
X144666811Y-116578609D01*
X144666810Y-116578609D01*
X144616500Y-116607656D01*
X144548600Y-116624129D01*
X144482573Y-116601276D01*
X144439382Y-116546355D01*
X144430500Y-116500269D01*
X144430500Y-115896456D01*
X144392052Y-115703170D01*
X144392051Y-115703169D01*
X144392051Y-115703165D01*
X144353581Y-115610289D01*
X144316635Y-115521092D01*
X144316628Y-115521079D01*
X144207139Y-115357218D01*
X144207136Y-115357214D01*
X144067785Y-115217863D01*
X144067781Y-115217860D01*
X143903920Y-115108371D01*
X143903907Y-115108364D01*
X143721839Y-115032950D01*
X143721829Y-115032947D01*
X143528543Y-114994500D01*
X143528541Y-114994500D01*
X143331459Y-114994500D01*
X143331457Y-114994500D01*
X143138170Y-115032947D01*
X143138160Y-115032950D01*
X142956092Y-115108364D01*
X142956079Y-115108371D01*
X142792218Y-115217860D01*
X142792214Y-115217863D01*
X142652863Y-115357214D01*
X142652860Y-115357218D01*
X142543371Y-115521079D01*
X142543364Y-115521092D01*
X142467950Y-115703160D01*
X142467947Y-115703170D01*
X142429500Y-115896456D01*
X142429500Y-116890342D01*
X142409815Y-116957381D01*
X142357011Y-117003136D01*
X142287853Y-117013080D01*
X142224297Y-116984055D01*
X142187569Y-116928661D01*
X142169340Y-116872559D01*
X142140568Y-116784008D01*
X142140566Y-116784005D01*
X142140566Y-116784003D01*
X142059461Y-116624826D01*
X142033343Y-116573567D01*
X141894517Y-116382490D01*
X141727510Y-116215483D01*
X141536433Y-116076657D01*
X141325996Y-115969433D01*
X141101368Y-115896446D01*
X140868097Y-115859500D01*
X140868092Y-115859500D01*
X140631908Y-115859500D01*
X140631903Y-115859500D01*
X140398631Y-115896446D01*
X140174003Y-115969433D01*
X139963566Y-116076657D01*
X139854550Y-116155862D01*
X139772490Y-116215483D01*
X139772488Y-116215485D01*
X139772487Y-116215485D01*
X139605485Y-116382487D01*
X139605485Y-116382488D01*
X139605483Y-116382490D01*
X139545862Y-116464550D01*
X139466657Y-116573566D01*
X139359433Y-116784003D01*
X139286446Y-117008631D01*
X139249500Y-117241902D01*
X135750500Y-117241902D01*
X135713553Y-117008631D01*
X135675118Y-116890342D01*
X135640568Y-116784008D01*
X135640566Y-116784005D01*
X135640566Y-116784003D01*
X135559461Y-116624826D01*
X135533343Y-116573567D01*
X135394517Y-116382490D01*
X135227510Y-116215483D01*
X135036433Y-116076657D01*
X134825996Y-115969433D01*
X134601368Y-115896446D01*
X134368097Y-115859500D01*
X134368092Y-115859500D01*
X134131908Y-115859500D01*
X134131903Y-115859500D01*
X133898631Y-115896446D01*
X133674003Y-115969433D01*
X133463566Y-116076657D01*
X133354550Y-116155862D01*
X133272490Y-116215483D01*
X133272488Y-116215485D01*
X133272487Y-116215485D01*
X133105485Y-116382487D01*
X133105485Y-116382488D01*
X133105483Y-116382490D01*
X133045862Y-116464550D01*
X132966657Y-116573566D01*
X132859433Y-116784003D01*
X132786446Y-117008631D01*
X132749500Y-117241902D01*
X130606612Y-117241902D01*
X130335068Y-117111133D01*
X130048783Y-117010957D01*
X130048771Y-117010953D01*
X129820556Y-116958864D01*
X129753063Y-116943460D01*
X129753060Y-116943459D01*
X129753048Y-116943457D01*
X129451663Y-116909500D01*
X129451657Y-116909500D01*
X129148343Y-116909500D01*
X129148336Y-116909500D01*
X128846951Y-116943457D01*
X128846937Y-116943460D01*
X128551228Y-117010953D01*
X128551216Y-117010957D01*
X128264931Y-117111133D01*
X127991661Y-117242733D01*
X127734837Y-117404107D01*
X127497696Y-117593220D01*
X127283220Y-117807696D01*
X127094107Y-118044837D01*
X126932733Y-118301661D01*
X126801133Y-118574931D01*
X126700957Y-118861216D01*
X126700953Y-118861228D01*
X126633460Y-119156937D01*
X126633457Y-119156951D01*
X126599500Y-119458336D01*
X126000500Y-119458336D01*
X126000500Y-113193677D01*
X130609873Y-113193677D01*
X130609873Y-113193678D01*
X130644858Y-113219096D01*
X130820164Y-113308418D01*
X131007294Y-113369221D01*
X131201618Y-113400000D01*
X131398382Y-113400000D01*
X131592705Y-113369221D01*
X131779835Y-113308418D01*
X131955143Y-113219095D01*
X131990125Y-113193678D01*
X131990126Y-113193678D01*
X131300001Y-112503553D01*
X131300000Y-112503553D01*
X130609873Y-113193677D01*
X126000500Y-113193677D01*
X126000500Y-111501577D01*
X127449500Y-111501577D01*
X127449500Y-111698422D01*
X127480290Y-111892826D01*
X127541117Y-112080029D01*
X127626898Y-112248382D01*
X127630476Y-112255405D01*
X127746172Y-112414646D01*
X127885354Y-112553828D01*
X128044595Y-112669524D01*
X128124599Y-112710288D01*
X128219970Y-112758882D01*
X128219972Y-112758882D01*
X128219975Y-112758884D01*
X128320317Y-112791487D01*
X128407173Y-112819709D01*
X128601578Y-112850500D01*
X128601583Y-112850500D01*
X128798422Y-112850500D01*
X128992826Y-112819709D01*
X129180025Y-112758884D01*
X129355405Y-112669524D01*
X129514646Y-112553828D01*
X129653828Y-112414646D01*
X129769524Y-112255405D01*
X129815515Y-112165141D01*
X129863489Y-112114346D01*
X129931310Y-112097551D01*
X129997445Y-112120088D01*
X130040897Y-112174803D01*
X130050000Y-112221437D01*
X130050000Y-112248382D01*
X130080778Y-112442705D01*
X130141581Y-112629835D01*
X130230905Y-112805145D01*
X130256319Y-112840125D01*
X130256320Y-112840125D01*
X130946446Y-112150000D01*
X130946446Y-112149999D01*
X130900369Y-112103922D01*
X130950000Y-112103922D01*
X130950000Y-112196078D01*
X130973852Y-112285095D01*
X131019930Y-112364905D01*
X131085095Y-112430070D01*
X131164905Y-112476148D01*
X131253922Y-112500000D01*
X131346078Y-112500000D01*
X131435095Y-112476148D01*
X131514905Y-112430070D01*
X131580070Y-112364905D01*
X131626148Y-112285095D01*
X131650000Y-112196078D01*
X131650000Y-112149999D01*
X131653553Y-112149999D01*
X131653553Y-112150000D01*
X132343678Y-112840126D01*
X132343678Y-112840125D01*
X132369095Y-112805143D01*
X132458418Y-112629835D01*
X132519221Y-112442705D01*
X132550000Y-112248382D01*
X132550000Y-112051617D01*
X132519221Y-111857294D01*
X132458418Y-111670164D01*
X132369096Y-111494858D01*
X132343678Y-111459873D01*
X132343677Y-111459873D01*
X131653553Y-112149999D01*
X131650000Y-112149999D01*
X131650000Y-112103922D01*
X131626148Y-112014905D01*
X131580070Y-111935095D01*
X131514905Y-111869930D01*
X131435095Y-111823852D01*
X131346078Y-111800000D01*
X131253922Y-111800000D01*
X131164905Y-111823852D01*
X131085095Y-111869930D01*
X131019930Y-111935095D01*
X130973852Y-112014905D01*
X130950000Y-112103922D01*
X130900369Y-112103922D01*
X130256320Y-111459872D01*
X130256320Y-111459873D01*
X130230902Y-111494859D01*
X130184985Y-111584978D01*
X130137011Y-111635774D01*
X130069190Y-111652569D01*
X130003055Y-111630032D01*
X129959603Y-111575317D01*
X129950500Y-111528683D01*
X129950500Y-111501577D01*
X129919709Y-111307173D01*
X129895767Y-111233489D01*
X129858884Y-111119975D01*
X129858882Y-111119972D01*
X129858882Y-111119970D01*
X129851927Y-111106320D01*
X130609872Y-111106320D01*
X131300000Y-111796446D01*
X131300001Y-111796446D01*
X131990125Y-111106320D01*
X131990125Y-111106319D01*
X131955145Y-111080905D01*
X131779835Y-110991581D01*
X131592705Y-110930778D01*
X131398382Y-110900000D01*
X131201618Y-110900000D01*
X131007294Y-110930778D01*
X130820161Y-110991582D01*
X130644863Y-111080899D01*
X130644859Y-111080902D01*
X130609873Y-111106320D01*
X130609872Y-111106320D01*
X129851927Y-111106320D01*
X129769523Y-110944594D01*
X129653828Y-110785354D01*
X129514646Y-110646172D01*
X129355405Y-110530476D01*
X129338356Y-110521789D01*
X129180029Y-110441117D01*
X128992826Y-110380290D01*
X128798422Y-110349500D01*
X128798417Y-110349500D01*
X128601583Y-110349500D01*
X128601578Y-110349500D01*
X128407173Y-110380290D01*
X128219970Y-110441117D01*
X128044594Y-110530476D01*
X127953741Y-110596485D01*
X127885354Y-110646172D01*
X127885352Y-110646174D01*
X127885351Y-110646174D01*
X127746174Y-110785351D01*
X127746174Y-110785352D01*
X127746172Y-110785354D01*
X127696485Y-110853741D01*
X127630476Y-110944594D01*
X127541117Y-111119970D01*
X127480290Y-111307173D01*
X127449500Y-111501577D01*
X126000500Y-111501577D01*
X126000500Y-109421153D01*
X136999500Y-109421153D01*
X136999500Y-109578846D01*
X137030261Y-109733489D01*
X137030264Y-109733501D01*
X137090602Y-109879172D01*
X137090609Y-109879185D01*
X137178210Y-110010288D01*
X137178213Y-110010292D01*
X137289707Y-110121786D01*
X137289711Y-110121789D01*
X137420814Y-110209390D01*
X137420827Y-110209397D01*
X137566498Y-110269735D01*
X137566503Y-110269737D01*
X137721153Y-110300499D01*
X137721156Y-110300500D01*
X137721158Y-110300500D01*
X137878844Y-110300500D01*
X137878845Y-110300499D01*
X138033497Y-110269737D01*
X138179179Y-110209394D01*
X138310289Y-110121789D01*
X138421789Y-110010289D01*
X138509394Y-109879179D01*
X138569737Y-109733497D01*
X138600500Y-109578842D01*
X138600500Y-109421158D01*
X138600500Y-109421155D01*
X138600499Y-109421153D01*
X143399500Y-109421153D01*
X143399500Y-109578846D01*
X143430261Y-109733489D01*
X143430264Y-109733501D01*
X143490602Y-109879172D01*
X143490609Y-109879185D01*
X143578210Y-110010288D01*
X143578213Y-110010292D01*
X143689707Y-110121786D01*
X143689711Y-110121789D01*
X143820816Y-110209391D01*
X143820817Y-110209391D01*
X143820821Y-110209394D01*
X143849895Y-110221436D01*
X143904297Y-110265275D01*
X143926363Y-110331569D01*
X143924059Y-110360188D01*
X143899500Y-110483653D01*
X143899500Y-110641346D01*
X143930261Y-110795989D01*
X143930264Y-110796001D01*
X143990602Y-110941672D01*
X143990609Y-110941685D01*
X144078210Y-111072788D01*
X144078213Y-111072792D01*
X144189707Y-111184286D01*
X144189711Y-111184289D01*
X144320814Y-111271890D01*
X144320827Y-111271897D01*
X144466498Y-111332235D01*
X144466503Y-111332237D01*
X144617991Y-111362370D01*
X144621153Y-111362999D01*
X144621156Y-111363000D01*
X144621158Y-111363000D01*
X144778843Y-111363000D01*
X144797858Y-111359217D01*
X144874957Y-111343881D01*
X144894867Y-111345662D01*
X144914601Y-111342465D01*
X144928955Y-111348712D01*
X144944547Y-111350108D01*
X144960333Y-111362370D01*
X144978665Y-111370350D01*
X144997270Y-111391063D01*
X144999725Y-111392970D01*
X145002250Y-111396607D01*
X145053485Y-111473285D01*
X145074363Y-111539962D01*
X145055879Y-111607342D01*
X145038064Y-111629857D01*
X144978213Y-111689707D01*
X144978210Y-111689711D01*
X144890609Y-111820814D01*
X144890602Y-111820827D01*
X144830264Y-111966498D01*
X144830261Y-111966510D01*
X144799500Y-112121153D01*
X144799500Y-112278846D01*
X144830261Y-112433489D01*
X144830264Y-112433501D01*
X144890602Y-112579172D01*
X144890609Y-112579185D01*
X144978210Y-112710288D01*
X144978213Y-112710292D01*
X145089707Y-112821786D01*
X145089711Y-112821789D01*
X145220814Y-112909390D01*
X145220827Y-112909397D01*
X145354217Y-112964648D01*
X145366503Y-112969737D01*
X145521153Y-113000499D01*
X145521156Y-113000500D01*
X145521158Y-113000500D01*
X145678844Y-113000500D01*
X145678845Y-113000499D01*
X145833497Y-112969737D01*
X145979179Y-112909394D01*
X146110289Y-112821789D01*
X146221789Y-112710289D01*
X146309394Y-112579179D01*
X146369737Y-112433497D01*
X146400500Y-112278842D01*
X146400500Y-112121158D01*
X146400500Y-112121155D01*
X146390504Y-112070903D01*
X146390504Y-112070902D01*
X146386660Y-112051577D01*
X162449500Y-112051577D01*
X162449500Y-112248422D01*
X162480290Y-112442826D01*
X162541117Y-112630029D01*
X162630343Y-112805143D01*
X162630476Y-112805405D01*
X162746172Y-112964646D01*
X162885354Y-113103828D01*
X163044595Y-113219524D01*
X163127455Y-113261743D01*
X163219970Y-113308882D01*
X163219972Y-113308882D01*
X163219975Y-113308884D01*
X163320317Y-113341487D01*
X163407173Y-113369709D01*
X163601578Y-113400500D01*
X163601583Y-113400500D01*
X163798422Y-113400500D01*
X163992826Y-113369709D01*
X163994328Y-113369221D01*
X164180025Y-113308884D01*
X164355405Y-113219524D01*
X164514646Y-113103828D01*
X164653828Y-112964646D01*
X164769524Y-112805405D01*
X164858884Y-112630025D01*
X164913993Y-112460417D01*
X164953429Y-112402743D01*
X165017788Y-112375545D01*
X165086634Y-112387460D01*
X165138110Y-112434704D01*
X165154396Y-112479338D01*
X165180291Y-112642827D01*
X165241117Y-112830029D01*
X165309708Y-112964646D01*
X165330476Y-113005405D01*
X165446172Y-113164646D01*
X165585354Y-113303828D01*
X165744595Y-113419524D01*
X165827455Y-113461743D01*
X165919970Y-113508882D01*
X165919972Y-113508882D01*
X165919975Y-113508884D01*
X166020317Y-113541487D01*
X166107173Y-113569709D01*
X166301578Y-113600500D01*
X166301583Y-113600500D01*
X166498422Y-113600500D01*
X166692826Y-113569709D01*
X166880025Y-113508884D01*
X167055405Y-113419524D01*
X167214646Y-113303828D01*
X167353828Y-113164646D01*
X167469524Y-113005405D01*
X167558884Y-112830025D01*
X167619709Y-112642826D01*
X167621736Y-112630027D01*
X167650500Y-112448422D01*
X167650500Y-112251577D01*
X167619709Y-112057173D01*
X167580043Y-111935095D01*
X167558884Y-111869975D01*
X167558882Y-111869972D01*
X167558882Y-111869970D01*
X167507811Y-111769738D01*
X167469524Y-111694595D01*
X167353828Y-111535354D01*
X167214646Y-111396172D01*
X167055405Y-111280476D01*
X167038554Y-111271890D01*
X166880029Y-111191117D01*
X166692826Y-111130290D01*
X166498422Y-111099500D01*
X166498417Y-111099500D01*
X166301583Y-111099500D01*
X166301578Y-111099500D01*
X166107173Y-111130290D01*
X165919970Y-111191117D01*
X165744594Y-111280476D01*
X165673355Y-111332235D01*
X165585354Y-111396172D01*
X165585352Y-111396174D01*
X165585351Y-111396174D01*
X165446174Y-111535351D01*
X165446174Y-111535352D01*
X165446172Y-111535354D01*
X165396485Y-111603741D01*
X165330476Y-111694594D01*
X165241117Y-111869970D01*
X165186007Y-112039581D01*
X165146569Y-112097256D01*
X165082210Y-112124454D01*
X165013364Y-112112539D01*
X164961888Y-112065295D01*
X164945603Y-112020660D01*
X164919709Y-111857173D01*
X164868125Y-111698417D01*
X164858884Y-111669975D01*
X164858882Y-111669972D01*
X164858882Y-111669970D01*
X164792639Y-111539962D01*
X164769524Y-111494595D01*
X164653828Y-111335354D01*
X164514646Y-111196172D01*
X164355405Y-111080476D01*
X164340318Y-111072789D01*
X164180029Y-110991117D01*
X163992826Y-110930290D01*
X163798422Y-110899500D01*
X163798417Y-110899500D01*
X163601583Y-110899500D01*
X163601578Y-110899500D01*
X163407173Y-110930290D01*
X163219970Y-110991117D01*
X163044594Y-111080476D01*
X162976032Y-111130290D01*
X162885354Y-111196172D01*
X162885352Y-111196174D01*
X162885351Y-111196174D01*
X162746174Y-111335351D01*
X162746174Y-111335352D01*
X162746172Y-111335354D01*
X162741006Y-111342465D01*
X162630476Y-111494594D01*
X162541117Y-111669970D01*
X162480290Y-111857173D01*
X162449500Y-112051577D01*
X146386660Y-112051577D01*
X146369738Y-111966510D01*
X146369737Y-111966503D01*
X146369735Y-111966498D01*
X146309397Y-111820827D01*
X146309390Y-111820814D01*
X146246514Y-111726714D01*
X146225636Y-111660037D01*
X146244120Y-111592656D01*
X146261928Y-111570149D01*
X146321789Y-111510289D01*
X146409394Y-111379179D01*
X146416357Y-111362370D01*
X146453831Y-111271897D01*
X146469737Y-111233497D01*
X146500500Y-111078842D01*
X146500500Y-110921158D01*
X146500500Y-110921155D01*
X146500499Y-110921153D01*
X148999500Y-110921153D01*
X148999500Y-111078846D01*
X149030261Y-111233489D01*
X149030264Y-111233501D01*
X149090602Y-111379172D01*
X149090609Y-111379185D01*
X149178210Y-111510288D01*
X149178213Y-111510292D01*
X149289707Y-111621786D01*
X149289711Y-111621789D01*
X149420814Y-111709390D01*
X149420827Y-111709397D01*
X149462635Y-111726714D01*
X149566503Y-111769737D01*
X149718644Y-111800000D01*
X149721153Y-111800499D01*
X149721156Y-111800500D01*
X149721158Y-111800500D01*
X149878844Y-111800500D01*
X149878845Y-111800499D01*
X150033497Y-111769737D01*
X150179179Y-111709394D01*
X150310289Y-111621789D01*
X150421789Y-111510289D01*
X150509394Y-111379179D01*
X150516357Y-111362370D01*
X150553831Y-111271897D01*
X150569737Y-111233497D01*
X150600500Y-111078842D01*
X150600500Y-110921158D01*
X150600500Y-110921155D01*
X150600499Y-110921153D01*
X150596192Y-110899500D01*
X150569737Y-110766503D01*
X150569735Y-110766498D01*
X150512357Y-110627973D01*
X150504888Y-110558504D01*
X150536163Y-110496025D01*
X150539210Y-110492867D01*
X150621789Y-110410289D01*
X150709394Y-110279179D01*
X150769737Y-110133497D01*
X150800500Y-109978842D01*
X150800500Y-109821158D01*
X150800500Y-109821155D01*
X150800499Y-109821153D01*
X150769737Y-109666503D01*
X150754629Y-109630029D01*
X150709397Y-109520827D01*
X150709390Y-109520814D01*
X150621789Y-109389711D01*
X150621786Y-109389707D01*
X150510292Y-109278213D01*
X150510288Y-109278210D01*
X150379185Y-109190609D01*
X150379172Y-109190602D01*
X150308361Y-109161272D01*
X150233501Y-109130264D01*
X150233489Y-109130261D01*
X150078845Y-109099500D01*
X150078842Y-109099500D01*
X149921158Y-109099500D01*
X149921155Y-109099500D01*
X149766510Y-109130261D01*
X149766498Y-109130264D01*
X149620827Y-109190602D01*
X149620814Y-109190609D01*
X149489711Y-109278210D01*
X149489707Y-109278213D01*
X149378213Y-109389707D01*
X149378210Y-109389711D01*
X149290609Y-109520814D01*
X149290602Y-109520827D01*
X149230264Y-109666498D01*
X149230261Y-109666510D01*
X149199500Y-109821153D01*
X149199500Y-109978846D01*
X149230261Y-110133489D01*
X149230264Y-110133501D01*
X149287642Y-110272025D01*
X149295111Y-110341494D01*
X149263835Y-110403973D01*
X149260763Y-110407158D01*
X149178210Y-110489711D01*
X149090609Y-110620814D01*
X149090602Y-110620827D01*
X149030264Y-110766498D01*
X149030261Y-110766510D01*
X148999500Y-110921153D01*
X146500499Y-110921153D01*
X146496192Y-110899500D01*
X146469737Y-110766503D01*
X146469735Y-110766498D01*
X146409397Y-110620827D01*
X146409390Y-110620814D01*
X146321789Y-110489711D01*
X146321786Y-110489707D01*
X146210292Y-110378213D01*
X146210288Y-110378210D01*
X146079185Y-110290609D01*
X146079172Y-110290602D01*
X145933501Y-110230264D01*
X145933489Y-110230261D01*
X145778845Y-110199500D01*
X145778842Y-110199500D01*
X145621158Y-110199500D01*
X145621153Y-110199500D01*
X145525041Y-110218618D01*
X145455449Y-110212391D01*
X145400272Y-110169528D01*
X145397748Y-110165891D01*
X145321792Y-110052215D01*
X145321786Y-110052207D01*
X145210292Y-109940713D01*
X145210288Y-109940710D01*
X145079185Y-109853109D01*
X145079170Y-109853101D01*
X145050103Y-109841061D01*
X144995700Y-109797220D01*
X144973636Y-109730925D01*
X144975939Y-109702315D01*
X144991765Y-109622752D01*
X145000500Y-109578844D01*
X145000500Y-109421155D01*
X145000499Y-109421153D01*
X144995977Y-109398422D01*
X144969737Y-109266503D01*
X144962246Y-109248417D01*
X144909397Y-109120827D01*
X144909390Y-109120814D01*
X144863127Y-109051577D01*
X155249500Y-109051577D01*
X155249500Y-109248422D01*
X155280290Y-109442826D01*
X155341117Y-109630029D01*
X155393833Y-109733489D01*
X155430476Y-109805405D01*
X155546172Y-109964646D01*
X155685354Y-110103828D01*
X155844595Y-110219524D01*
X155848346Y-110221435D01*
X156019970Y-110308882D01*
X156019972Y-110308882D01*
X156019975Y-110308884D01*
X156081895Y-110329003D01*
X156207173Y-110369709D01*
X156401578Y-110400500D01*
X156401583Y-110400500D01*
X156598422Y-110400500D01*
X156792826Y-110369709D01*
X156822128Y-110360188D01*
X156980025Y-110308884D01*
X157155405Y-110219524D01*
X157314646Y-110103828D01*
X157453828Y-109964646D01*
X157569524Y-109805405D01*
X157658884Y-109630025D01*
X157719709Y-109442826D01*
X157726743Y-109398417D01*
X157750500Y-109248422D01*
X157750500Y-109201577D01*
X164949500Y-109201577D01*
X164949500Y-109398422D01*
X164980290Y-109592826D01*
X165041117Y-109780029D01*
X165122989Y-109940711D01*
X165130476Y-109955405D01*
X165246172Y-110114646D01*
X165385354Y-110253828D01*
X165544595Y-110369524D01*
X165618456Y-110407158D01*
X165719970Y-110458882D01*
X165719972Y-110458882D01*
X165719975Y-110458884D01*
X165796206Y-110483653D01*
X165907173Y-110519709D01*
X166101578Y-110550500D01*
X166101583Y-110550500D01*
X166298422Y-110550500D01*
X166492826Y-110519709D01*
X166565717Y-110496025D01*
X166680025Y-110458884D01*
X166855405Y-110369524D01*
X167014646Y-110253828D01*
X167153828Y-110114646D01*
X167269524Y-109955405D01*
X167358884Y-109780025D01*
X167419709Y-109592826D01*
X167421924Y-109578842D01*
X167450500Y-109398422D01*
X167450500Y-109201577D01*
X167419709Y-109007173D01*
X167358882Y-108819970D01*
X167287145Y-108679179D01*
X167269524Y-108644595D01*
X167153828Y-108485354D01*
X167014646Y-108346172D01*
X166855405Y-108230476D01*
X166837117Y-108221158D01*
X166680029Y-108141117D01*
X166492826Y-108080290D01*
X166298422Y-108049500D01*
X166298417Y-108049500D01*
X166101583Y-108049500D01*
X166101578Y-108049500D01*
X165907173Y-108080290D01*
X165719970Y-108141117D01*
X165544594Y-108230476D01*
X165477571Y-108279172D01*
X165385354Y-108346172D01*
X165385352Y-108346174D01*
X165385351Y-108346174D01*
X165246174Y-108485351D01*
X165246174Y-108485352D01*
X165246172Y-108485354D01*
X165219700Y-108521790D01*
X165130476Y-108644594D01*
X165041117Y-108819970D01*
X164980290Y-109007173D01*
X164949500Y-109201577D01*
X157750500Y-109201577D01*
X157750500Y-109051577D01*
X157719709Y-108857173D01*
X157668477Y-108699500D01*
X157658884Y-108669975D01*
X157658882Y-108669972D01*
X157658882Y-108669970D01*
X157583378Y-108521786D01*
X157569524Y-108494595D01*
X157453828Y-108335354D01*
X157314646Y-108196172D01*
X157155405Y-108080476D01*
X157127995Y-108066510D01*
X156980029Y-107991117D01*
X156792826Y-107930290D01*
X156598422Y-107899500D01*
X156598417Y-107899500D01*
X156401583Y-107899500D01*
X156401578Y-107899500D01*
X156207173Y-107930290D01*
X156019970Y-107991117D01*
X155844594Y-108080476D01*
X155771629Y-108133489D01*
X155685354Y-108196172D01*
X155685352Y-108196174D01*
X155685351Y-108196174D01*
X155546174Y-108335351D01*
X155546174Y-108335352D01*
X155546172Y-108335354D01*
X155514573Y-108378846D01*
X155430476Y-108494594D01*
X155341117Y-108669970D01*
X155280290Y-108857173D01*
X155249500Y-109051577D01*
X144863127Y-109051577D01*
X144821789Y-108989711D01*
X144821786Y-108989707D01*
X144710292Y-108878213D01*
X144710288Y-108878210D01*
X144579185Y-108790609D01*
X144579172Y-108790602D01*
X144433501Y-108730264D01*
X144433489Y-108730261D01*
X144278845Y-108699500D01*
X144278842Y-108699500D01*
X144121158Y-108699500D01*
X144121155Y-108699500D01*
X143966510Y-108730261D01*
X143966498Y-108730264D01*
X143820827Y-108790602D01*
X143820814Y-108790609D01*
X143689711Y-108878210D01*
X143689707Y-108878213D01*
X143578213Y-108989707D01*
X143578210Y-108989711D01*
X143490609Y-109120814D01*
X143490602Y-109120827D01*
X143430264Y-109266498D01*
X143430261Y-109266510D01*
X143399500Y-109421153D01*
X138600499Y-109421153D01*
X138595977Y-109398422D01*
X138569737Y-109266503D01*
X138562246Y-109248417D01*
X138509397Y-109120827D01*
X138509390Y-109120814D01*
X138421789Y-108989711D01*
X138421786Y-108989707D01*
X138310292Y-108878213D01*
X138310288Y-108878210D01*
X138179185Y-108790609D01*
X138179172Y-108790602D01*
X138033501Y-108730264D01*
X138033489Y-108730261D01*
X137878845Y-108699500D01*
X137878842Y-108699500D01*
X137721158Y-108699500D01*
X137721155Y-108699500D01*
X137566510Y-108730261D01*
X137566498Y-108730264D01*
X137420827Y-108790602D01*
X137420814Y-108790609D01*
X137289711Y-108878210D01*
X137289707Y-108878213D01*
X137178213Y-108989707D01*
X137178210Y-108989711D01*
X137090609Y-109120814D01*
X137090602Y-109120827D01*
X137030264Y-109266498D01*
X137030261Y-109266510D01*
X136999500Y-109421153D01*
X126000500Y-109421153D01*
X126000500Y-108221153D01*
X132974500Y-108221153D01*
X132974500Y-108378846D01*
X133005261Y-108533489D01*
X133005264Y-108533501D01*
X133065602Y-108679172D01*
X133065609Y-108679185D01*
X133153210Y-108810288D01*
X133153213Y-108810292D01*
X133264707Y-108921786D01*
X133264711Y-108921789D01*
X133395814Y-109009390D01*
X133395827Y-109009397D01*
X133497675Y-109051583D01*
X133541503Y-109069737D01*
X133691131Y-109099500D01*
X133696153Y-109100499D01*
X133696156Y-109100500D01*
X133696158Y-109100500D01*
X133853844Y-109100500D01*
X133853845Y-109100499D01*
X134008497Y-109069737D01*
X134154179Y-109009394D01*
X134285289Y-108921789D01*
X134396789Y-108810289D01*
X134484394Y-108679179D01*
X134488209Y-108669970D01*
X134544735Y-108533501D01*
X134544737Y-108533497D01*
X134575500Y-108378842D01*
X134575500Y-108221158D01*
X134575500Y-108221155D01*
X134575499Y-108221153D01*
X134559579Y-108141117D01*
X134544737Y-108066503D01*
X134537694Y-108049500D01*
X134484397Y-107920827D01*
X134484390Y-107920814D01*
X134396789Y-107789711D01*
X134396786Y-107789707D01*
X134285292Y-107678213D01*
X134285288Y-107678210D01*
X134154185Y-107590609D01*
X134154172Y-107590602D01*
X134008501Y-107530264D01*
X134008489Y-107530261D01*
X133853845Y-107499500D01*
X133853842Y-107499500D01*
X133696158Y-107499500D01*
X133696155Y-107499500D01*
X133541510Y-107530261D01*
X133541498Y-107530264D01*
X133395827Y-107590602D01*
X133395814Y-107590609D01*
X133264711Y-107678210D01*
X133264707Y-107678213D01*
X133153213Y-107789707D01*
X133153210Y-107789711D01*
X133065609Y-107920814D01*
X133065602Y-107920827D01*
X133005264Y-108066498D01*
X133005261Y-108066510D01*
X132974500Y-108221153D01*
X126000500Y-108221153D01*
X126000500Y-104946153D01*
X129224500Y-104946153D01*
X129224500Y-105103846D01*
X129255261Y-105258489D01*
X129255264Y-105258501D01*
X129315602Y-105404172D01*
X129315609Y-105404185D01*
X129403210Y-105535288D01*
X129403213Y-105535292D01*
X129514707Y-105646786D01*
X129514711Y-105646789D01*
X129645814Y-105734390D01*
X129645827Y-105734397D01*
X129781520Y-105790602D01*
X129791503Y-105794737D01*
X129946153Y-105825499D01*
X129946156Y-105825500D01*
X129946158Y-105825500D01*
X130103844Y-105825500D01*
X130103845Y-105825499D01*
X130258497Y-105794737D01*
X130404179Y-105734394D01*
X130535289Y-105646789D01*
X130646789Y-105535289D01*
X130734394Y-105404179D01*
X130794737Y-105258497D01*
X130825500Y-105103842D01*
X130825500Y-104946158D01*
X130825500Y-104946155D01*
X130825499Y-104946153D01*
X130809657Y-104866510D01*
X130794737Y-104791503D01*
X130771478Y-104735351D01*
X130734397Y-104645827D01*
X130734390Y-104645814D01*
X130646789Y-104514711D01*
X130646786Y-104514707D01*
X130535292Y-104403213D01*
X130535288Y-104403210D01*
X130404185Y-104315609D01*
X130404172Y-104315602D01*
X130258501Y-104255264D01*
X130258489Y-104255261D01*
X130103845Y-104224500D01*
X130103842Y-104224500D01*
X129946158Y-104224500D01*
X129946155Y-104224500D01*
X129791510Y-104255261D01*
X129791498Y-104255264D01*
X129645827Y-104315602D01*
X129645814Y-104315609D01*
X129514711Y-104403210D01*
X129514707Y-104403213D01*
X129403213Y-104514707D01*
X129403210Y-104514711D01*
X129315609Y-104645814D01*
X129315602Y-104645827D01*
X129255264Y-104791498D01*
X129255261Y-104791510D01*
X129224500Y-104946153D01*
X126000500Y-104946153D01*
X126000500Y-103421153D01*
X136399500Y-103421153D01*
X136399500Y-103578846D01*
X136430261Y-103733489D01*
X136430264Y-103733501D01*
X136490602Y-103879172D01*
X136490609Y-103879185D01*
X136578210Y-104010288D01*
X136578213Y-104010292D01*
X136689707Y-104121786D01*
X136689711Y-104121789D01*
X136820814Y-104209390D01*
X136820827Y-104209397D01*
X136966498Y-104269735D01*
X136966503Y-104269737D01*
X137079658Y-104292245D01*
X137121153Y-104300499D01*
X137121156Y-104300500D01*
X137121158Y-104300500D01*
X137278844Y-104300500D01*
X137278845Y-104300499D01*
X137433497Y-104269737D01*
X137579179Y-104209394D01*
X137710289Y-104121789D01*
X137821789Y-104010289D01*
X137909394Y-103879179D01*
X137969737Y-103733497D01*
X138000500Y-103578842D01*
X138000500Y-103421158D01*
X138000500Y-103421155D01*
X138000499Y-103421153D01*
X137969738Y-103266510D01*
X137969737Y-103266503D01*
X137932153Y-103175766D01*
X137909397Y-103120827D01*
X137909390Y-103120814D01*
X137821789Y-102989711D01*
X137821786Y-102989707D01*
X137710292Y-102878213D01*
X137710288Y-102878210D01*
X137579185Y-102790609D01*
X137579172Y-102790602D01*
X137433501Y-102730264D01*
X137433489Y-102730261D01*
X137278845Y-102699500D01*
X137278842Y-102699500D01*
X137121158Y-102699500D01*
X137121155Y-102699500D01*
X136966510Y-102730261D01*
X136966498Y-102730264D01*
X136820827Y-102790602D01*
X136820814Y-102790609D01*
X136689711Y-102878210D01*
X136689707Y-102878213D01*
X136578213Y-102989707D01*
X136578210Y-102989711D01*
X136490609Y-103120814D01*
X136490602Y-103120827D01*
X136430264Y-103266498D01*
X136430261Y-103266510D01*
X136399500Y-103421153D01*
X126000500Y-103421153D01*
X126000500Y-99501577D01*
X126749500Y-99501577D01*
X126749500Y-99698422D01*
X126780290Y-99892826D01*
X126841117Y-100080029D01*
X126903049Y-100201577D01*
X126930476Y-100255405D01*
X127046172Y-100414646D01*
X127185354Y-100553828D01*
X127344595Y-100669524D01*
X127393812Y-100694601D01*
X127519970Y-100758882D01*
X127519972Y-100758882D01*
X127519975Y-100758884D01*
X127620317Y-100791487D01*
X127707173Y-100819709D01*
X127901578Y-100850500D01*
X127901583Y-100850500D01*
X128098422Y-100850500D01*
X128292826Y-100819709D01*
X128480025Y-100758884D01*
X128655405Y-100669524D01*
X128814646Y-100553828D01*
X128953828Y-100414646D01*
X129069524Y-100255405D01*
X129158884Y-100080025D01*
X129200620Y-99951577D01*
X131749500Y-99951577D01*
X131749500Y-100148422D01*
X131780290Y-100342826D01*
X131841117Y-100530029D01*
X131909093Y-100663439D01*
X131930476Y-100705405D01*
X132046172Y-100864646D01*
X132185354Y-101003828D01*
X132344595Y-101119524D01*
X132427455Y-101161743D01*
X132519970Y-101208882D01*
X132519972Y-101208882D01*
X132519975Y-101208884D01*
X132620317Y-101241487D01*
X132707173Y-101269709D01*
X132901578Y-101300500D01*
X132901583Y-101300500D01*
X133098422Y-101300500D01*
X133292826Y-101269709D01*
X133341702Y-101253828D01*
X133480025Y-101208884D01*
X133655405Y-101119524D01*
X133814646Y-101003828D01*
X133953828Y-100864646D01*
X134069524Y-100705405D01*
X134158884Y-100530025D01*
X134219709Y-100342826D01*
X134233555Y-100255405D01*
X134250500Y-100148422D01*
X134250500Y-100117648D01*
X134270185Y-100050609D01*
X134322989Y-100004854D01*
X134392147Y-99994910D01*
X134398672Y-99996027D01*
X134421158Y-100000500D01*
X134578844Y-100000500D01*
X134578845Y-100000499D01*
X134733497Y-99969737D01*
X134879179Y-99909394D01*
X135010289Y-99821789D01*
X135121789Y-99710289D01*
X135209394Y-99579179D01*
X135213209Y-99569970D01*
X135223067Y-99546166D01*
X135269737Y-99433497D01*
X135300500Y-99278842D01*
X135300500Y-99121158D01*
X135300500Y-99121155D01*
X135300499Y-99121153D01*
X135286031Y-99048417D01*
X135269737Y-98966503D01*
X135222417Y-98852263D01*
X135214949Y-98782795D01*
X135246224Y-98720316D01*
X135306313Y-98684664D01*
X135376138Y-98687158D01*
X135393274Y-98694327D01*
X135519970Y-98758882D01*
X135519972Y-98758882D01*
X135519975Y-98758884D01*
X135582455Y-98779185D01*
X135707173Y-98819709D01*
X135901578Y-98850500D01*
X135901583Y-98850500D01*
X136098422Y-98850500D01*
X136292826Y-98819709D01*
X136324584Y-98809390D01*
X136480025Y-98758884D01*
X136655405Y-98669524D01*
X136814646Y-98553828D01*
X136953828Y-98414646D01*
X137069524Y-98255405D01*
X137158884Y-98080025D01*
X137219709Y-97892826D01*
X137235818Y-97791117D01*
X137250500Y-97698422D01*
X137250500Y-97501577D01*
X137219709Y-97307173D01*
X137175647Y-97171566D01*
X137158884Y-97119975D01*
X137158882Y-97119972D01*
X137158882Y-97119970D01*
X137069523Y-96944594D01*
X136953828Y-96785354D01*
X136814646Y-96646172D01*
X136655405Y-96530476D01*
X136480025Y-96441116D01*
X136365082Y-96403768D01*
X136307407Y-96364331D01*
X136280209Y-96299973D01*
X136292124Y-96231126D01*
X136315717Y-96198160D01*
X138812821Y-93701057D01*
X138874142Y-93667574D01*
X138943834Y-93672558D01*
X138999767Y-93714430D01*
X139024184Y-93779894D01*
X139024500Y-93788740D01*
X139024500Y-103175765D01*
X139063719Y-103322136D01*
X139092385Y-103371786D01*
X139139485Y-103453365D01*
X139239485Y-103553365D01*
X139346635Y-103660515D01*
X139397261Y-103689744D01*
X139477865Y-103736281D01*
X139624233Y-103775500D01*
X139624234Y-103775500D01*
X140310258Y-103775500D01*
X140377297Y-103795185D01*
X140397939Y-103811819D01*
X140697578Y-104111458D01*
X140731063Y-104172781D01*
X140726079Y-104242473D01*
X140684207Y-104298406D01*
X140618743Y-104322823D01*
X140585706Y-104320756D01*
X140478845Y-104299500D01*
X140478842Y-104299500D01*
X140321158Y-104299500D01*
X140321155Y-104299500D01*
X140166510Y-104330261D01*
X140166498Y-104330264D01*
X140020827Y-104390602D01*
X140020814Y-104390609D01*
X139889711Y-104478210D01*
X139889707Y-104478213D01*
X139778213Y-104589707D01*
X139778210Y-104589711D01*
X139690609Y-104720814D01*
X139690602Y-104720827D01*
X139630264Y-104866498D01*
X139630261Y-104866510D01*
X139599500Y-105021153D01*
X139599500Y-105178846D01*
X139630261Y-105333489D01*
X139630264Y-105333501D01*
X139690602Y-105479172D01*
X139690609Y-105479185D01*
X139778210Y-105610288D01*
X139778213Y-105610292D01*
X139889707Y-105721786D01*
X139889711Y-105721789D01*
X140020814Y-105809390D01*
X140020827Y-105809397D01*
X140166498Y-105869735D01*
X140166503Y-105869737D01*
X140321153Y-105900499D01*
X140321156Y-105900500D01*
X140321158Y-105900500D01*
X140478844Y-105900500D01*
X140478845Y-105900499D01*
X140633497Y-105869737D01*
X140779179Y-105809394D01*
X140910289Y-105721789D01*
X141021789Y-105610289D01*
X141065304Y-105545163D01*
X141097398Y-105497133D01*
X141151010Y-105452328D01*
X141220335Y-105443621D01*
X141283363Y-105473775D01*
X141320082Y-105533219D01*
X141324500Y-105566024D01*
X141324500Y-106977179D01*
X141304815Y-107044218D01*
X141252011Y-107089973D01*
X141224692Y-107098796D01*
X141066508Y-107130261D01*
X141066498Y-107130264D01*
X140920827Y-107190602D01*
X140920814Y-107190609D01*
X140789711Y-107278210D01*
X140789707Y-107278213D01*
X140678213Y-107389707D01*
X140678210Y-107389711D01*
X140590609Y-107520814D01*
X140590602Y-107520827D01*
X140530264Y-107666498D01*
X140530261Y-107666510D01*
X140499500Y-107821153D01*
X140499500Y-107978846D01*
X140530261Y-108133489D01*
X140530264Y-108133501D01*
X140590602Y-108279172D01*
X140590609Y-108279185D01*
X140678210Y-108410288D01*
X140678213Y-108410292D01*
X140789707Y-108521786D01*
X140789711Y-108521789D01*
X140920814Y-108609390D01*
X140920827Y-108609397D01*
X141005804Y-108644595D01*
X141066503Y-108669737D01*
X141216131Y-108699500D01*
X141221153Y-108700499D01*
X141221156Y-108700500D01*
X141221158Y-108700500D01*
X141378844Y-108700500D01*
X141378845Y-108700499D01*
X141533497Y-108669737D01*
X141679179Y-108609394D01*
X141810289Y-108521789D01*
X141812306Y-108519771D01*
X141813625Y-108519051D01*
X141814999Y-108517924D01*
X141815212Y-108518184D01*
X141873622Y-108486278D01*
X141943314Y-108491251D01*
X141984939Y-108517998D01*
X141985001Y-108517924D01*
X141985638Y-108518447D01*
X141987680Y-108519759D01*
X141989707Y-108521786D01*
X141989711Y-108521789D01*
X142120814Y-108609390D01*
X142120827Y-108609397D01*
X142205804Y-108644595D01*
X142266503Y-108669737D01*
X142416131Y-108699500D01*
X142421153Y-108700499D01*
X142421156Y-108700500D01*
X142421158Y-108700500D01*
X142578844Y-108700500D01*
X142578845Y-108700499D01*
X142733497Y-108669737D01*
X142879179Y-108609394D01*
X143010289Y-108521789D01*
X143121789Y-108410289D01*
X143209394Y-108279179D01*
X143269737Y-108133497D01*
X143300500Y-107978842D01*
X143300500Y-107821158D01*
X143300500Y-107821155D01*
X143300499Y-107821153D01*
X143272066Y-107678211D01*
X143269737Y-107666503D01*
X143238298Y-107590602D01*
X143209397Y-107520827D01*
X143209390Y-107520814D01*
X143121789Y-107389711D01*
X143121786Y-107389707D01*
X143010292Y-107278213D01*
X143010288Y-107278210D01*
X142879185Y-107190609D01*
X142879172Y-107190602D01*
X142733501Y-107130264D01*
X142733491Y-107130261D01*
X142575308Y-107098796D01*
X142513397Y-107066411D01*
X142478823Y-107005695D01*
X142475500Y-106977179D01*
X142475500Y-106667378D01*
X142495185Y-106600339D01*
X142547989Y-106554584D01*
X142617147Y-106544640D01*
X142672386Y-106567061D01*
X142744590Y-106619521D01*
X142744592Y-106619522D01*
X142744595Y-106619524D01*
X142823930Y-106659946D01*
X142919970Y-106708882D01*
X142919972Y-106708882D01*
X142919975Y-106708884D01*
X142995701Y-106733489D01*
X143107173Y-106769709D01*
X143301578Y-106800500D01*
X143301583Y-106800500D01*
X143498422Y-106800500D01*
X143692826Y-106769709D01*
X143880025Y-106708884D01*
X144055405Y-106619524D01*
X144214646Y-106503828D01*
X144297321Y-106421153D01*
X149899500Y-106421153D01*
X149899500Y-106578846D01*
X149930261Y-106733489D01*
X149930264Y-106733501D01*
X149990602Y-106879172D01*
X149990609Y-106879185D01*
X150078210Y-107010288D01*
X150078213Y-107010292D01*
X150189707Y-107121786D01*
X150189711Y-107121789D01*
X150320814Y-107209390D01*
X150320827Y-107209397D01*
X150466498Y-107269735D01*
X150466503Y-107269737D01*
X150621153Y-107300499D01*
X150621156Y-107300500D01*
X150621158Y-107300500D01*
X150778844Y-107300500D01*
X150778845Y-107300499D01*
X150933497Y-107269737D01*
X151079179Y-107209394D01*
X151210289Y-107121789D01*
X151321789Y-107010289D01*
X151409394Y-106879179D01*
X151469737Y-106733497D01*
X151500500Y-106578842D01*
X151500500Y-106421158D01*
X151500500Y-106421155D01*
X151500499Y-106421153D01*
X151469738Y-106266510D01*
X151469737Y-106266503D01*
X151444430Y-106205405D01*
X151409397Y-106120827D01*
X151409390Y-106120814D01*
X151321789Y-105989711D01*
X151321786Y-105989707D01*
X151210292Y-105878213D01*
X151210288Y-105878210D01*
X151079185Y-105790609D01*
X151079172Y-105790602D01*
X150933501Y-105730264D01*
X150933489Y-105730261D01*
X150778845Y-105699500D01*
X150778842Y-105699500D01*
X150621158Y-105699500D01*
X150621155Y-105699500D01*
X150466510Y-105730261D01*
X150466498Y-105730264D01*
X150320827Y-105790602D01*
X150320814Y-105790609D01*
X150189711Y-105878210D01*
X150189707Y-105878213D01*
X150078213Y-105989707D01*
X150078210Y-105989711D01*
X149990609Y-106120814D01*
X149990602Y-106120827D01*
X149930264Y-106266498D01*
X149930261Y-106266510D01*
X149899500Y-106421153D01*
X144297321Y-106421153D01*
X144353828Y-106364646D01*
X144469524Y-106205405D01*
X144558884Y-106030025D01*
X144619709Y-105842826D01*
X144624862Y-105810289D01*
X144650500Y-105648422D01*
X144650500Y-105451577D01*
X144625775Y-105295473D01*
X144619709Y-105257174D01*
X144608005Y-105221153D01*
X159299500Y-105221153D01*
X159299500Y-105378846D01*
X159330261Y-105533489D01*
X159330264Y-105533501D01*
X159390602Y-105679172D01*
X159390609Y-105679185D01*
X159478210Y-105810288D01*
X159478213Y-105810292D01*
X159589707Y-105921786D01*
X159589711Y-105921789D01*
X159720814Y-106009390D01*
X159720827Y-106009397D01*
X159866498Y-106069735D01*
X159866503Y-106069737D01*
X160021153Y-106100499D01*
X160021156Y-106100500D01*
X160021158Y-106100500D01*
X160178844Y-106100500D01*
X160178845Y-106100499D01*
X160333497Y-106069737D01*
X160479179Y-106009394D01*
X160610289Y-105921789D01*
X160721789Y-105810289D01*
X160809394Y-105679179D01*
X160869737Y-105533497D01*
X160900500Y-105378842D01*
X160900500Y-105221158D01*
X160900500Y-105221155D01*
X160900499Y-105221153D01*
X160869737Y-105066503D01*
X160809794Y-104921786D01*
X160809397Y-104920827D01*
X160809390Y-104920814D01*
X160721789Y-104789711D01*
X160721786Y-104789707D01*
X160610292Y-104678213D01*
X160610288Y-104678210D01*
X160479185Y-104590609D01*
X160479172Y-104590602D01*
X160394093Y-104555362D01*
X160333501Y-104530264D01*
X160333489Y-104530261D01*
X160178845Y-104499500D01*
X160178842Y-104499500D01*
X160021158Y-104499500D01*
X160021155Y-104499500D01*
X159866510Y-104530261D01*
X159866498Y-104530264D01*
X159720827Y-104590602D01*
X159720814Y-104590609D01*
X159589711Y-104678210D01*
X159589707Y-104678213D01*
X159478213Y-104789707D01*
X159478210Y-104789711D01*
X159390609Y-104920814D01*
X159390602Y-104920827D01*
X159330264Y-105066498D01*
X159330261Y-105066510D01*
X159299500Y-105221153D01*
X144608005Y-105221153D01*
X144558884Y-105069975D01*
X144558882Y-105069972D01*
X144558882Y-105069970D01*
X144483378Y-104921786D01*
X144469524Y-104894595D01*
X144353828Y-104735354D01*
X144214646Y-104596172D01*
X144055405Y-104480476D01*
X144050958Y-104478210D01*
X143989485Y-104446888D01*
X161699500Y-104446888D01*
X161699500Y-104604581D01*
X161730261Y-104759224D01*
X161730264Y-104759236D01*
X161790602Y-104904907D01*
X161790609Y-104904920D01*
X161878210Y-105036023D01*
X161878213Y-105036027D01*
X161989707Y-105147521D01*
X161989711Y-105147524D01*
X162120814Y-105235125D01*
X162120827Y-105235132D01*
X162177246Y-105258501D01*
X162266503Y-105295472D01*
X162421153Y-105326234D01*
X162421156Y-105326235D01*
X162421158Y-105326235D01*
X162578844Y-105326235D01*
X162578845Y-105326234D01*
X162733497Y-105295472D01*
X162879179Y-105235129D01*
X163010289Y-105147524D01*
X163121789Y-105036024D01*
X163209394Y-104904914D01*
X163269737Y-104759232D01*
X163300500Y-104604577D01*
X163300500Y-104446893D01*
X163300500Y-104446890D01*
X163300499Y-104446888D01*
X163289303Y-104390602D01*
X163269737Y-104292238D01*
X163240293Y-104221153D01*
X163209397Y-104146562D01*
X163209390Y-104146549D01*
X163121789Y-104015446D01*
X163121786Y-104015442D01*
X163010292Y-103903948D01*
X163010288Y-103903945D01*
X162879185Y-103816344D01*
X162879172Y-103816337D01*
X162733501Y-103755999D01*
X162733489Y-103755996D01*
X162578845Y-103725235D01*
X162578842Y-103725235D01*
X162421158Y-103725235D01*
X162421155Y-103725235D01*
X162266510Y-103755996D01*
X162266498Y-103755999D01*
X162120827Y-103816337D01*
X162120814Y-103816344D01*
X161989711Y-103903945D01*
X161989707Y-103903948D01*
X161878213Y-104015442D01*
X161878210Y-104015446D01*
X161790609Y-104146549D01*
X161790602Y-104146562D01*
X161730264Y-104292233D01*
X161730261Y-104292245D01*
X161699500Y-104446888D01*
X143989485Y-104446888D01*
X143880029Y-104391117D01*
X143692826Y-104330290D01*
X143498422Y-104299500D01*
X143498417Y-104299500D01*
X143301583Y-104299500D01*
X143301578Y-104299500D01*
X143107173Y-104330290D01*
X142919970Y-104391117D01*
X142744591Y-104480478D01*
X142672385Y-104532939D01*
X142606579Y-104556419D01*
X142538525Y-104540594D01*
X142489830Y-104490488D01*
X142475500Y-104432621D01*
X142475500Y-104424236D01*
X142475500Y-104424234D01*
X142436281Y-104277865D01*
X142360515Y-104146635D01*
X142253365Y-104039485D01*
X140953365Y-102739485D01*
X140870258Y-102691503D01*
X140822136Y-102663719D01*
X140748950Y-102644109D01*
X140675766Y-102624500D01*
X140675765Y-102624500D01*
X140299500Y-102624500D01*
X140232461Y-102604815D01*
X140186706Y-102552011D01*
X140175500Y-102500500D01*
X140175500Y-99921153D01*
X146499500Y-99921153D01*
X146499500Y-100078846D01*
X146530261Y-100233489D01*
X146530264Y-100233501D01*
X146590602Y-100379172D01*
X146590609Y-100379185D01*
X146678210Y-100510288D01*
X146678213Y-100510292D01*
X146789707Y-100621786D01*
X146789711Y-100621789D01*
X146920814Y-100709390D01*
X146920827Y-100709397D01*
X147040301Y-100758884D01*
X147066503Y-100769737D01*
X147189798Y-100794262D01*
X147221153Y-100800499D01*
X147221156Y-100800500D01*
X147221158Y-100800500D01*
X147378842Y-100800500D01*
X147410201Y-100794262D01*
X147479791Y-100800488D01*
X147534969Y-100843350D01*
X147558215Y-100909239D01*
X147542148Y-100977237D01*
X147534715Y-100988759D01*
X147530478Y-100994591D01*
X147441117Y-101169970D01*
X147380290Y-101357173D01*
X147349500Y-101551577D01*
X147349500Y-101748422D01*
X147380291Y-101942827D01*
X147380292Y-101942833D01*
X147386579Y-101962180D01*
X147388576Y-102032021D01*
X147352496Y-102091854D01*
X147289796Y-102122683D01*
X147268649Y-102124500D01*
X147246155Y-102124500D01*
X147091510Y-102155261D01*
X147091498Y-102155264D01*
X146945827Y-102215602D01*
X146945814Y-102215609D01*
X146814711Y-102303210D01*
X146814707Y-102303213D01*
X146703213Y-102414707D01*
X146703210Y-102414711D01*
X146615609Y-102545814D01*
X146615602Y-102545827D01*
X146555264Y-102691498D01*
X146555261Y-102691510D01*
X146524500Y-102846153D01*
X146524500Y-103003846D01*
X146555261Y-103158489D01*
X146555264Y-103158501D01*
X146615602Y-103304172D01*
X146615609Y-103304185D01*
X146703210Y-103435288D01*
X146703213Y-103435292D01*
X146814707Y-103546786D01*
X146814711Y-103546789D01*
X146945814Y-103634390D01*
X146945827Y-103634397D01*
X147091498Y-103694735D01*
X147091503Y-103694737D01*
X147244826Y-103725235D01*
X147246153Y-103725499D01*
X147246156Y-103725500D01*
X147246158Y-103725500D01*
X147403844Y-103725500D01*
X147403845Y-103725499D01*
X147558497Y-103694737D01*
X147704179Y-103634394D01*
X147835289Y-103546789D01*
X147946789Y-103435289D01*
X148034394Y-103304179D01*
X148094737Y-103158497D01*
X148125500Y-103003842D01*
X148125500Y-102981351D01*
X148145185Y-102914312D01*
X148197989Y-102868557D01*
X148267147Y-102858613D01*
X148287820Y-102863421D01*
X148307166Y-102869707D01*
X148307169Y-102869707D01*
X148307174Y-102869709D01*
X148397213Y-102883969D01*
X148501578Y-102900500D01*
X148501583Y-102900500D01*
X148698422Y-102900500D01*
X148892826Y-102869709D01*
X148912178Y-102863421D01*
X149080025Y-102808884D01*
X149255405Y-102719524D01*
X149414646Y-102603828D01*
X149553828Y-102464646D01*
X149669524Y-102305405D01*
X149758884Y-102130025D01*
X149819709Y-101942826D01*
X149839032Y-101820827D01*
X149850500Y-101748422D01*
X149850500Y-101551577D01*
X149819709Y-101357173D01*
X149771526Y-101208884D01*
X149758884Y-101169975D01*
X149758882Y-101169972D01*
X149758882Y-101169970D01*
X149707289Y-101068713D01*
X149669524Y-100994595D01*
X149553828Y-100835354D01*
X149530655Y-100812181D01*
X149520042Y-100792744D01*
X149505542Y-100776011D01*
X149503625Y-100762679D01*
X149497170Y-100750858D01*
X149498749Y-100728771D01*
X149495598Y-100706853D01*
X149501193Y-100694601D01*
X149502154Y-100681166D01*
X149515424Y-100663439D01*
X149524623Y-100643297D01*
X149535954Y-100636014D01*
X149544026Y-100625233D01*
X149564771Y-100617495D01*
X149583401Y-100605523D01*
X149605319Y-100602371D01*
X149609490Y-100600816D01*
X149618336Y-100600500D01*
X149699903Y-100600500D01*
X149766942Y-100620185D01*
X149787584Y-100636819D01*
X150215139Y-101064374D01*
X150215149Y-101064385D01*
X150219479Y-101068715D01*
X150219480Y-101068716D01*
X150331284Y-101180520D01*
X150331286Y-101180521D01*
X150331290Y-101180524D01*
X150380412Y-101208884D01*
X150468216Y-101259577D01*
X150580019Y-101289534D01*
X150620942Y-101300500D01*
X150620943Y-101300500D01*
X152496561Y-101300500D01*
X152563600Y-101320185D01*
X152609355Y-101372989D01*
X152619299Y-101442147D01*
X152590274Y-101505703D01*
X152565452Y-101527602D01*
X152489711Y-101578210D01*
X152489707Y-101578213D01*
X152378213Y-101689707D01*
X152378210Y-101689711D01*
X152290609Y-101820814D01*
X152290602Y-101820827D01*
X152230264Y-101966498D01*
X152230261Y-101966510D01*
X152199500Y-102121153D01*
X152199500Y-102278846D01*
X152230261Y-102433489D01*
X152230264Y-102433501D01*
X152290602Y-102579172D01*
X152290609Y-102579185D01*
X152378210Y-102710288D01*
X152378213Y-102710292D01*
X152489707Y-102821786D01*
X152489711Y-102821789D01*
X152620814Y-102909390D01*
X152620827Y-102909397D01*
X152766498Y-102969735D01*
X152766503Y-102969737D01*
X152921153Y-103000499D01*
X152921156Y-103000500D01*
X152921158Y-103000500D01*
X153078844Y-103000500D01*
X153078845Y-103000499D01*
X153233497Y-102969737D01*
X153379179Y-102909394D01*
X153510289Y-102821789D01*
X153621789Y-102710289D01*
X153647938Y-102671153D01*
X166899500Y-102671153D01*
X166899500Y-102828846D01*
X166930261Y-102983489D01*
X166930264Y-102983501D01*
X166990602Y-103129172D01*
X166990609Y-103129185D01*
X167078210Y-103260288D01*
X167078213Y-103260292D01*
X167189707Y-103371786D01*
X167189711Y-103371789D01*
X167264703Y-103421898D01*
X167309508Y-103475511D01*
X167318215Y-103544836D01*
X167288060Y-103607863D01*
X167264703Y-103628102D01*
X167189711Y-103678210D01*
X167189707Y-103678213D01*
X167078213Y-103789707D01*
X167078210Y-103789711D01*
X166990609Y-103920814D01*
X166990602Y-103920827D01*
X166930264Y-104066498D01*
X166930261Y-104066510D01*
X166899500Y-104221153D01*
X166899500Y-104378846D01*
X166930261Y-104533489D01*
X166930264Y-104533501D01*
X166990602Y-104679172D01*
X166990609Y-104679185D01*
X167078210Y-104810288D01*
X167078213Y-104810292D01*
X167189707Y-104921786D01*
X167189711Y-104921789D01*
X167320814Y-105009390D01*
X167320827Y-105009397D01*
X167458683Y-105066498D01*
X167466503Y-105069737D01*
X167621153Y-105100499D01*
X167621156Y-105100500D01*
X167621158Y-105100500D01*
X167778844Y-105100500D01*
X167778845Y-105100499D01*
X167933497Y-105069737D01*
X168079179Y-105009394D01*
X168210289Y-104921789D01*
X168321789Y-104810289D01*
X168409394Y-104679179D01*
X168469737Y-104533497D01*
X168500500Y-104378842D01*
X168500500Y-104221158D01*
X168500500Y-104221155D01*
X168500499Y-104221153D01*
X168485662Y-104146562D01*
X168469737Y-104066503D01*
X168446452Y-104010288D01*
X168409397Y-103920827D01*
X168409390Y-103920814D01*
X168321789Y-103789711D01*
X168321786Y-103789707D01*
X168210292Y-103678213D01*
X168210288Y-103678210D01*
X168135296Y-103628102D01*
X168090491Y-103574490D01*
X168081784Y-103505165D01*
X168111938Y-103442138D01*
X168135296Y-103421898D01*
X168154055Y-103409363D01*
X168210289Y-103371789D01*
X168321789Y-103260289D01*
X168409394Y-103129179D01*
X168412854Y-103120827D01*
X168462694Y-103000500D01*
X168469737Y-102983497D01*
X168500500Y-102828842D01*
X168500500Y-102671158D01*
X168500500Y-102671155D01*
X168500499Y-102671153D01*
X168487107Y-102603828D01*
X168469737Y-102516503D01*
X168469735Y-102516498D01*
X168409397Y-102370827D01*
X168409390Y-102370814D01*
X168321789Y-102239711D01*
X168321786Y-102239707D01*
X168210292Y-102128213D01*
X168210288Y-102128210D01*
X168079185Y-102040609D01*
X168079172Y-102040602D01*
X167933501Y-101980264D01*
X167933489Y-101980261D01*
X167778845Y-101949500D01*
X167778842Y-101949500D01*
X167621158Y-101949500D01*
X167621155Y-101949500D01*
X167466510Y-101980261D01*
X167466498Y-101980264D01*
X167320827Y-102040602D01*
X167320814Y-102040609D01*
X167189711Y-102128210D01*
X167189707Y-102128213D01*
X167078213Y-102239707D01*
X167078210Y-102239711D01*
X166990609Y-102370814D01*
X166990602Y-102370827D01*
X166930264Y-102516498D01*
X166930261Y-102516510D01*
X166899500Y-102671153D01*
X153647938Y-102671153D01*
X153670537Y-102637331D01*
X153698038Y-102596175D01*
X153698038Y-102596174D01*
X153709394Y-102579179D01*
X153769737Y-102433497D01*
X153800500Y-102278842D01*
X153800500Y-102121158D01*
X153800500Y-102121155D01*
X153800499Y-102121153D01*
X153794671Y-102091854D01*
X153769737Y-101966503D01*
X153759930Y-101942826D01*
X153709397Y-101820827D01*
X153709390Y-101820814D01*
X153621789Y-101689711D01*
X153621786Y-101689707D01*
X153510292Y-101578213D01*
X153510288Y-101578210D01*
X153434548Y-101527602D01*
X153389743Y-101473990D01*
X153381036Y-101404665D01*
X153411190Y-101341637D01*
X153470634Y-101304918D01*
X153503439Y-101300500D01*
X155609301Y-101300500D01*
X155676340Y-101320185D01*
X155682186Y-101324182D01*
X155739121Y-101365547D01*
X155744595Y-101369524D01*
X155803427Y-101399500D01*
X155919970Y-101458882D01*
X155919972Y-101458882D01*
X155919975Y-101458884D01*
X156017605Y-101490606D01*
X156107173Y-101519709D01*
X156301578Y-101550500D01*
X156301583Y-101550500D01*
X156498422Y-101550500D01*
X156692826Y-101519709D01*
X156880025Y-101458884D01*
X157055405Y-101369524D01*
X157214646Y-101253828D01*
X157353828Y-101114646D01*
X157469524Y-100955405D01*
X157558884Y-100780025D01*
X157619709Y-100592826D01*
X157627527Y-100543466D01*
X157657456Y-100480331D01*
X157716768Y-100443400D01*
X157786630Y-100444398D01*
X157844863Y-100483008D01*
X157872473Y-100543466D01*
X157880290Y-100592826D01*
X157941117Y-100780029D01*
X157984233Y-100864648D01*
X158030476Y-100955405D01*
X158146172Y-101114646D01*
X158285354Y-101253828D01*
X158444595Y-101369524D01*
X158503427Y-101399500D01*
X158619970Y-101458882D01*
X158619972Y-101458882D01*
X158619975Y-101458884D01*
X158717605Y-101490606D01*
X158807173Y-101519709D01*
X159001578Y-101550500D01*
X159001583Y-101550500D01*
X159198422Y-101550500D01*
X159392826Y-101519709D01*
X159580025Y-101458884D01*
X159755405Y-101369524D01*
X159914646Y-101253828D01*
X160053828Y-101114646D01*
X160169524Y-100955405D01*
X160258884Y-100780025D01*
X160319709Y-100592826D01*
X160332781Y-100510292D01*
X160350500Y-100398422D01*
X160350500Y-100201577D01*
X160319709Y-100007173D01*
X160286129Y-99903825D01*
X160258884Y-99819975D01*
X160258882Y-99819972D01*
X160258882Y-99819970D01*
X160202998Y-99710292D01*
X160169524Y-99644595D01*
X160053828Y-99485354D01*
X159914646Y-99346172D01*
X159755405Y-99230476D01*
X159754983Y-99230261D01*
X159580029Y-99141117D01*
X159392826Y-99080290D01*
X159198422Y-99049500D01*
X159198417Y-99049500D01*
X159001583Y-99049500D01*
X159001578Y-99049500D01*
X158807173Y-99080290D01*
X158619970Y-99141117D01*
X158444594Y-99230476D01*
X158378020Y-99278846D01*
X158285354Y-99346172D01*
X158285352Y-99346174D01*
X158285351Y-99346174D01*
X158146174Y-99485351D01*
X158146174Y-99485352D01*
X158146172Y-99485354D01*
X158134381Y-99501583D01*
X158030476Y-99644594D01*
X157941117Y-99819970D01*
X157880290Y-100007173D01*
X157872473Y-100056533D01*
X157842544Y-100119668D01*
X157783232Y-100156599D01*
X157713369Y-100155601D01*
X157655137Y-100116991D01*
X157627527Y-100056533D01*
X157619709Y-100007173D01*
X157586129Y-99903825D01*
X157558884Y-99819975D01*
X157558882Y-99819972D01*
X157558882Y-99819970D01*
X157502998Y-99710292D01*
X157469524Y-99644595D01*
X157353828Y-99485354D01*
X157214646Y-99346172D01*
X157055405Y-99230476D01*
X157054983Y-99230261D01*
X156880029Y-99141117D01*
X156692826Y-99080290D01*
X156498422Y-99049500D01*
X156498417Y-99049500D01*
X156301583Y-99049500D01*
X156301578Y-99049500D01*
X156107173Y-99080290D01*
X155919970Y-99141117D01*
X155744594Y-99230476D01*
X155678020Y-99278846D01*
X155585354Y-99346172D01*
X155585352Y-99346174D01*
X155585351Y-99346174D01*
X155446174Y-99485351D01*
X155446174Y-99485352D01*
X155446172Y-99485354D01*
X155434381Y-99501583D01*
X155330476Y-99644594D01*
X155241117Y-99819972D01*
X155241116Y-99819974D01*
X155241116Y-99819975D01*
X155180292Y-100007173D01*
X155178786Y-100011807D01*
X155177047Y-100011242D01*
X155146147Y-100065047D01*
X155084117Y-100097205D01*
X155060372Y-100099500D01*
X151000097Y-100099500D01*
X150933058Y-100079815D01*
X150912416Y-100063181D01*
X150487590Y-99638355D01*
X150487588Y-99638352D01*
X150368717Y-99519481D01*
X150368716Y-99519480D01*
X150281904Y-99469360D01*
X150281904Y-99469359D01*
X150281900Y-99469358D01*
X150231785Y-99440423D01*
X150079057Y-99399499D01*
X149920943Y-99399499D01*
X149913347Y-99399499D01*
X149913331Y-99399500D01*
X147879766Y-99399500D01*
X147812727Y-99379815D01*
X147810875Y-99378602D01*
X147679185Y-99290609D01*
X147679172Y-99290602D01*
X147533501Y-99230264D01*
X147533489Y-99230261D01*
X147378845Y-99199500D01*
X147378842Y-99199500D01*
X147221158Y-99199500D01*
X147221155Y-99199500D01*
X147066510Y-99230261D01*
X147066498Y-99230264D01*
X146920827Y-99290602D01*
X146920814Y-99290609D01*
X146789711Y-99378210D01*
X146789707Y-99378213D01*
X146678213Y-99489707D01*
X146678210Y-99489711D01*
X146590609Y-99620814D01*
X146590602Y-99620827D01*
X146530264Y-99766498D01*
X146530261Y-99766510D01*
X146499500Y-99921153D01*
X140175500Y-99921153D01*
X140175500Y-98021153D01*
X150949500Y-98021153D01*
X150949500Y-98178846D01*
X150980261Y-98333489D01*
X150980264Y-98333501D01*
X151040602Y-98479172D01*
X151040609Y-98479185D01*
X151128210Y-98610288D01*
X151128213Y-98610292D01*
X151239707Y-98721786D01*
X151239711Y-98721789D01*
X151370814Y-98809390D01*
X151370827Y-98809397D01*
X151516498Y-98869735D01*
X151516503Y-98869737D01*
X151623982Y-98891116D01*
X151671153Y-98900499D01*
X151671156Y-98900500D01*
X151671158Y-98900500D01*
X151828844Y-98900500D01*
X151828845Y-98900499D01*
X151983497Y-98869737D01*
X152101592Y-98820821D01*
X152129172Y-98809397D01*
X152129172Y-98809396D01*
X152129179Y-98809394D01*
X152260289Y-98721789D01*
X152371789Y-98610289D01*
X152459394Y-98479179D01*
X152463209Y-98469970D01*
X152519735Y-98333501D01*
X152519737Y-98333497D01*
X152522192Y-98321153D01*
X161799500Y-98321153D01*
X161799500Y-98478846D01*
X161830261Y-98633489D01*
X161830264Y-98633501D01*
X161890602Y-98779172D01*
X161890609Y-98779185D01*
X161978210Y-98910288D01*
X161978213Y-98910292D01*
X162089707Y-99021786D01*
X162089711Y-99021789D01*
X162220814Y-99109390D01*
X162220827Y-99109397D01*
X162366498Y-99169735D01*
X162366503Y-99169737D01*
X162516131Y-99199500D01*
X162521153Y-99200499D01*
X162521156Y-99200500D01*
X162521158Y-99200500D01*
X162678844Y-99200500D01*
X162678845Y-99200499D01*
X162833497Y-99169737D01*
X162979179Y-99109394D01*
X163070430Y-99048422D01*
X163115354Y-99018405D01*
X163116737Y-99020475D01*
X163170970Y-98997413D01*
X163239843Y-99009173D01*
X163291425Y-99056301D01*
X163307855Y-99101175D01*
X163330290Y-99242826D01*
X163391117Y-99430029D01*
X163467110Y-99579172D01*
X163480476Y-99605405D01*
X163596172Y-99764646D01*
X163735354Y-99903828D01*
X163894595Y-100019524D01*
X163955603Y-100050609D01*
X164069970Y-100108882D01*
X164069972Y-100108882D01*
X164069975Y-100108884D01*
X164103165Y-100119668D01*
X164257173Y-100169709D01*
X164451578Y-100200500D01*
X164451583Y-100200500D01*
X164648422Y-100200500D01*
X164842826Y-100169709D01*
X164883174Y-100156599D01*
X165030025Y-100108884D01*
X165205405Y-100019524D01*
X165364646Y-99903828D01*
X165503828Y-99764646D01*
X165619524Y-99605405D01*
X165708884Y-99430025D01*
X165769709Y-99242826D01*
X165781285Y-99169737D01*
X165800500Y-99048422D01*
X165800500Y-98851577D01*
X165769709Y-98657173D01*
X165728542Y-98530476D01*
X165708884Y-98469975D01*
X165708882Y-98469972D01*
X165708882Y-98469970D01*
X165619523Y-98294594D01*
X165503828Y-98135354D01*
X165364646Y-97996172D01*
X165205405Y-97880476D01*
X165177995Y-97866510D01*
X165030029Y-97791117D01*
X164842826Y-97730290D01*
X164648422Y-97699500D01*
X164648417Y-97699500D01*
X164451583Y-97699500D01*
X164451578Y-97699500D01*
X164257173Y-97730290D01*
X164069970Y-97791117D01*
X163894594Y-97880476D01*
X163803741Y-97946485D01*
X163735354Y-97996172D01*
X163735352Y-97996174D01*
X163735351Y-97996174D01*
X163596171Y-98135354D01*
X163573884Y-98166030D01*
X163518553Y-98208695D01*
X163448939Y-98214673D01*
X163387145Y-98182066D01*
X163359006Y-98140595D01*
X163309397Y-98020827D01*
X163309390Y-98020814D01*
X163221789Y-97889711D01*
X163221786Y-97889707D01*
X163110292Y-97778213D01*
X163110288Y-97778210D01*
X162979185Y-97690609D01*
X162979172Y-97690602D01*
X162833501Y-97630264D01*
X162833489Y-97630261D01*
X162678845Y-97599500D01*
X162678842Y-97599500D01*
X162521158Y-97599500D01*
X162521155Y-97599500D01*
X162366510Y-97630261D01*
X162366498Y-97630264D01*
X162220827Y-97690602D01*
X162220814Y-97690609D01*
X162089711Y-97778210D01*
X162089707Y-97778213D01*
X161978213Y-97889707D01*
X161978210Y-97889711D01*
X161890609Y-98020814D01*
X161890602Y-98020827D01*
X161830264Y-98166498D01*
X161830261Y-98166510D01*
X161799500Y-98321153D01*
X152522192Y-98321153D01*
X152528216Y-98290874D01*
X152528216Y-98290873D01*
X152550499Y-98178846D01*
X152550500Y-98178844D01*
X152550500Y-98021155D01*
X152550499Y-98021153D01*
X152524353Y-97889711D01*
X152519737Y-97866503D01*
X152519735Y-97866498D01*
X152459397Y-97720827D01*
X152459390Y-97720814D01*
X152371789Y-97589711D01*
X152371786Y-97589707D01*
X152260292Y-97478213D01*
X152260288Y-97478210D01*
X152129185Y-97390609D01*
X152129172Y-97390602D01*
X151983501Y-97330264D01*
X151983489Y-97330261D01*
X151828845Y-97299500D01*
X151828842Y-97299500D01*
X151671158Y-97299500D01*
X151671155Y-97299500D01*
X151516510Y-97330261D01*
X151516498Y-97330264D01*
X151370827Y-97390602D01*
X151370814Y-97390609D01*
X151239711Y-97478210D01*
X151239707Y-97478213D01*
X151128213Y-97589707D01*
X151128210Y-97589711D01*
X151040609Y-97720814D01*
X151040602Y-97720827D01*
X150980264Y-97866498D01*
X150980261Y-97866510D01*
X150949500Y-98021153D01*
X140175500Y-98021153D01*
X140175500Y-96224500D01*
X140195185Y-96157461D01*
X140247989Y-96111706D01*
X140299500Y-96100500D01*
X140378844Y-96100500D01*
X140378845Y-96100499D01*
X140533497Y-96069737D01*
X140679179Y-96009394D01*
X140810289Y-95921789D01*
X140921789Y-95810289D01*
X141009394Y-95679179D01*
X141069737Y-95533497D01*
X141100500Y-95378842D01*
X141100500Y-95221158D01*
X141100500Y-95221155D01*
X141100499Y-95221153D01*
X141080543Y-95120827D01*
X141069737Y-95066503D01*
X141042398Y-95000500D01*
X141009397Y-94920827D01*
X141009390Y-94920814D01*
X140921789Y-94789711D01*
X140921786Y-94789707D01*
X140810292Y-94678213D01*
X140810288Y-94678210D01*
X140679185Y-94590609D01*
X140679172Y-94590602D01*
X140533501Y-94530264D01*
X140533489Y-94530261D01*
X140378845Y-94499500D01*
X140378842Y-94499500D01*
X140299500Y-94499500D01*
X140232461Y-94479815D01*
X140186706Y-94427011D01*
X140175500Y-94375500D01*
X140175500Y-93076200D01*
X140195185Y-93009161D01*
X140247989Y-92963406D01*
X140317147Y-92953462D01*
X140346952Y-92961639D01*
X140351218Y-92963406D01*
X140366503Y-92969737D01*
X140521153Y-93000499D01*
X140521156Y-93000500D01*
X140521158Y-93000500D01*
X140678844Y-93000500D01*
X140678845Y-93000499D01*
X140833497Y-92969737D01*
X140979179Y-92909394D01*
X141110289Y-92821789D01*
X141221789Y-92710289D01*
X141309394Y-92579179D01*
X141314329Y-92567266D01*
X141330106Y-92529175D01*
X141369737Y-92433497D01*
X141400500Y-92278842D01*
X141400500Y-92121158D01*
X141400500Y-92121155D01*
X141400499Y-92121153D01*
X141382420Y-92030263D01*
X141369737Y-91966503D01*
X141356808Y-91935289D01*
X141320218Y-91846952D01*
X141316710Y-91814326D01*
X141312041Y-91781853D01*
X141312994Y-91779765D01*
X141312749Y-91777483D01*
X141327437Y-91748139D01*
X141341066Y-91718297D01*
X141342996Y-91717056D01*
X141344024Y-91715004D01*
X141372239Y-91698263D01*
X141399844Y-91680523D01*
X141402873Y-91680087D01*
X141404113Y-91679352D01*
X141434779Y-91675500D01*
X141492059Y-91675500D01*
X141559098Y-91695185D01*
X141579740Y-91711819D01*
X141589707Y-91721786D01*
X141589711Y-91721789D01*
X141720814Y-91809390D01*
X141720827Y-91809397D01*
X141858683Y-91866498D01*
X141866503Y-91869737D01*
X141955813Y-91887502D01*
X142021147Y-91900498D01*
X142021148Y-91900498D01*
X142021158Y-91900500D01*
X142021167Y-91900500D01*
X142025653Y-91900942D01*
X142090442Y-91927098D01*
X142130805Y-91984130D01*
X142133927Y-92053930D01*
X142131748Y-92060590D01*
X142132031Y-92060676D01*
X142130261Y-92066510D01*
X142099500Y-92221153D01*
X142099500Y-92378846D01*
X142130261Y-92533489D01*
X142130264Y-92533501D01*
X142190602Y-92679172D01*
X142190609Y-92679185D01*
X142278602Y-92810874D01*
X142299480Y-92877551D01*
X142299500Y-92879765D01*
X142299500Y-94374684D01*
X142290061Y-94422136D01*
X142230264Y-94566498D01*
X142230261Y-94566510D01*
X142199500Y-94721153D01*
X142199500Y-94878846D01*
X142212573Y-94944568D01*
X142206346Y-95014159D01*
X142163483Y-95069337D01*
X142138411Y-95083319D01*
X142120826Y-95090603D01*
X142120814Y-95090609D01*
X141989711Y-95178210D01*
X141989707Y-95178213D01*
X141878213Y-95289707D01*
X141878210Y-95289711D01*
X141790609Y-95420814D01*
X141790602Y-95420827D01*
X141730264Y-95566498D01*
X141730261Y-95566510D01*
X141699500Y-95721153D01*
X141699500Y-95878846D01*
X141730261Y-96033489D01*
X141730264Y-96033501D01*
X141790602Y-96179172D01*
X141790609Y-96179185D01*
X141878210Y-96310288D01*
X141878213Y-96310292D01*
X141989707Y-96421786D01*
X141989711Y-96421789D01*
X142120814Y-96509390D01*
X142120827Y-96509397D01*
X142266498Y-96569735D01*
X142266503Y-96569737D01*
X142421153Y-96600499D01*
X142421156Y-96600500D01*
X142421158Y-96600500D01*
X142578844Y-96600500D01*
X142578845Y-96600499D01*
X142733497Y-96569737D01*
X142879179Y-96509394D01*
X143010289Y-96421789D01*
X143121789Y-96310289D01*
X143161403Y-96251002D01*
X143215013Y-96206199D01*
X143284338Y-96197490D01*
X143314882Y-96207809D01*
X143315192Y-96207063D01*
X143421277Y-96251004D01*
X143466503Y-96269737D01*
X143618509Y-96299973D01*
X143621153Y-96300499D01*
X143621156Y-96300500D01*
X143621158Y-96300500D01*
X143778844Y-96300500D01*
X143778845Y-96300499D01*
X143933497Y-96269737D01*
X144079179Y-96209394D01*
X144210289Y-96121789D01*
X144321789Y-96010289D01*
X144409394Y-95879179D01*
X144469737Y-95733497D01*
X144500500Y-95578842D01*
X144500500Y-95421158D01*
X144500500Y-95421155D01*
X144500499Y-95421153D01*
X144500432Y-95420814D01*
X144469737Y-95266503D01*
X144450955Y-95221158D01*
X144409397Y-95120827D01*
X144409390Y-95120814D01*
X144321789Y-94989711D01*
X144321786Y-94989707D01*
X144210292Y-94878213D01*
X144210288Y-94878210D01*
X144079185Y-94790609D01*
X144079172Y-94790602D01*
X143933501Y-94730264D01*
X143933492Y-94730261D01*
X143878166Y-94719256D01*
X143816256Y-94686870D01*
X143781682Y-94626154D01*
X143780750Y-94621874D01*
X143769737Y-94566503D01*
X143733569Y-94479185D01*
X143709397Y-94420827D01*
X143709390Y-94420814D01*
X143621789Y-94289711D01*
X143621786Y-94289707D01*
X143536819Y-94204740D01*
X143523263Y-94179915D01*
X143511706Y-94166577D01*
X143510074Y-94159075D01*
X143505523Y-94151994D01*
X143504631Y-94145793D01*
X143503334Y-94143417D01*
X143500940Y-94121153D01*
X163899500Y-94121153D01*
X163899500Y-94278846D01*
X163930261Y-94433489D01*
X163930264Y-94433501D01*
X163990602Y-94579172D01*
X163990609Y-94579185D01*
X164078210Y-94710288D01*
X164078213Y-94710292D01*
X164189707Y-94821786D01*
X164189711Y-94821789D01*
X164320814Y-94909390D01*
X164320827Y-94909397D01*
X164405739Y-94944568D01*
X164466503Y-94969737D01*
X164599400Y-94996172D01*
X164621153Y-95000499D01*
X164621156Y-95000500D01*
X164621158Y-95000500D01*
X164778844Y-95000500D01*
X164778845Y-95000499D01*
X164933497Y-94969737D01*
X165051592Y-94920821D01*
X165079172Y-94909397D01*
X165079172Y-94909396D01*
X165079179Y-94909394D01*
X165210289Y-94821789D01*
X165312320Y-94719757D01*
X165373641Y-94686274D01*
X165443333Y-94691258D01*
X165484939Y-94717999D01*
X165485001Y-94717924D01*
X165485647Y-94718454D01*
X165487688Y-94719766D01*
X165489711Y-94721789D01*
X165620814Y-94809390D01*
X165620827Y-94809397D01*
X165766498Y-94869735D01*
X165766503Y-94869737D01*
X165921153Y-94900499D01*
X165921156Y-94900500D01*
X165921158Y-94900500D01*
X166078844Y-94900500D01*
X166078845Y-94900499D01*
X166233497Y-94869737D01*
X166379179Y-94809394D01*
X166510289Y-94721789D01*
X166621789Y-94610289D01*
X166709394Y-94479179D01*
X166769737Y-94333497D01*
X166800500Y-94178842D01*
X166800500Y-94021158D01*
X166800500Y-94021155D01*
X166800499Y-94021153D01*
X166769738Y-93866510D01*
X166769737Y-93866503D01*
X166714282Y-93732621D01*
X166706813Y-93663152D01*
X166738088Y-93600673D01*
X166781392Y-93570607D01*
X166783488Y-93569738D01*
X166783497Y-93569737D01*
X166929179Y-93509394D01*
X167060289Y-93421789D01*
X167171789Y-93310289D01*
X167259394Y-93179179D01*
X167319737Y-93033497D01*
X167332802Y-92967810D01*
X167365186Y-92905903D01*
X167425901Y-92871328D01*
X167430213Y-92870390D01*
X167433497Y-92869737D01*
X167579179Y-92809394D01*
X167710289Y-92721789D01*
X167821789Y-92610289D01*
X167909394Y-92479179D01*
X167969737Y-92333497D01*
X168000500Y-92178842D01*
X168000500Y-92021158D01*
X168000500Y-92021155D01*
X168000499Y-92021153D01*
X167993135Y-91984130D01*
X167969737Y-91866503D01*
X167937929Y-91789711D01*
X167909397Y-91720827D01*
X167909390Y-91720814D01*
X167821789Y-91589711D01*
X167821786Y-91589707D01*
X167710292Y-91478213D01*
X167710288Y-91478210D01*
X167579185Y-91390609D01*
X167579172Y-91390602D01*
X167433501Y-91330264D01*
X167433489Y-91330261D01*
X167278845Y-91299500D01*
X167278842Y-91299500D01*
X167121158Y-91299500D01*
X167121155Y-91299500D01*
X166966510Y-91330261D01*
X166966498Y-91330264D01*
X166820827Y-91390602D01*
X166820814Y-91390609D01*
X166689711Y-91478210D01*
X166689707Y-91478213D01*
X166578213Y-91589707D01*
X166578210Y-91589711D01*
X166490609Y-91720814D01*
X166490602Y-91720827D01*
X166430264Y-91866498D01*
X166430261Y-91866508D01*
X166417197Y-91932187D01*
X166384812Y-91994098D01*
X166324096Y-92028672D01*
X166319774Y-92029612D01*
X166316505Y-92030262D01*
X166316500Y-92030263D01*
X166170827Y-92090602D01*
X166170814Y-92090609D01*
X166039711Y-92178210D01*
X166039707Y-92178213D01*
X165928213Y-92289707D01*
X165928210Y-92289711D01*
X165840609Y-92420814D01*
X165840602Y-92420827D01*
X165780264Y-92566498D01*
X165780261Y-92566510D01*
X165749500Y-92721153D01*
X165749500Y-92878846D01*
X165780261Y-93033489D01*
X165780264Y-93033501D01*
X165835717Y-93167377D01*
X165843186Y-93236846D01*
X165811911Y-93299325D01*
X165768609Y-93329390D01*
X165620823Y-93390604D01*
X165620814Y-93390609D01*
X165489711Y-93478210D01*
X165387680Y-93580241D01*
X165326357Y-93613725D01*
X165256665Y-93608741D01*
X165215060Y-93582000D01*
X165214999Y-93582076D01*
X165214350Y-93581544D01*
X165212311Y-93580233D01*
X165210288Y-93578210D01*
X165079185Y-93490609D01*
X165079172Y-93490602D01*
X164933501Y-93430264D01*
X164933489Y-93430261D01*
X164778845Y-93399500D01*
X164778842Y-93399500D01*
X164621158Y-93399500D01*
X164621155Y-93399500D01*
X164466510Y-93430261D01*
X164466498Y-93430264D01*
X164320827Y-93490602D01*
X164320814Y-93490609D01*
X164189711Y-93578210D01*
X164189707Y-93578213D01*
X164078213Y-93689707D01*
X164078210Y-93689711D01*
X163990609Y-93820814D01*
X163990602Y-93820827D01*
X163930264Y-93966498D01*
X163930261Y-93966510D01*
X163899500Y-94121153D01*
X143500940Y-94121153D01*
X143500500Y-94117059D01*
X143500500Y-93021153D01*
X144399500Y-93021153D01*
X144399500Y-93178846D01*
X144430261Y-93333489D01*
X144430264Y-93333501D01*
X144490602Y-93479172D01*
X144490609Y-93479185D01*
X144578210Y-93610288D01*
X144578213Y-93610292D01*
X144689707Y-93721786D01*
X144689711Y-93721789D01*
X144820814Y-93809390D01*
X144820827Y-93809397D01*
X144958683Y-93866498D01*
X144966503Y-93869737D01*
X145121153Y-93900499D01*
X145121156Y-93900500D01*
X145121158Y-93900500D01*
X145278844Y-93900500D01*
X145278845Y-93900499D01*
X145433497Y-93869737D01*
X145551592Y-93820821D01*
X145579172Y-93809397D01*
X145579172Y-93809396D01*
X145579179Y-93809394D01*
X145710289Y-93721789D01*
X145821789Y-93610289D01*
X145909394Y-93479179D01*
X145969737Y-93333497D01*
X146000500Y-93178842D01*
X146000500Y-93021158D01*
X146000500Y-93021155D01*
X146000499Y-93021153D01*
X145986446Y-92950503D01*
X145969737Y-92866503D01*
X145930507Y-92771792D01*
X145909397Y-92720827D01*
X145909390Y-92720814D01*
X145821789Y-92589711D01*
X145821786Y-92589707D01*
X145710292Y-92478213D01*
X145710288Y-92478210D01*
X145579185Y-92390609D01*
X145579172Y-92390602D01*
X145433501Y-92330264D01*
X145433489Y-92330261D01*
X145278845Y-92299500D01*
X145278842Y-92299500D01*
X145121158Y-92299500D01*
X145121155Y-92299500D01*
X144966510Y-92330261D01*
X144966498Y-92330264D01*
X144820827Y-92390602D01*
X144820814Y-92390609D01*
X144689711Y-92478210D01*
X144689707Y-92478213D01*
X144578213Y-92589707D01*
X144578210Y-92589711D01*
X144490609Y-92720814D01*
X144490602Y-92720827D01*
X144430264Y-92866498D01*
X144430261Y-92866510D01*
X144399500Y-93021153D01*
X143500500Y-93021153D01*
X143500500Y-92879765D01*
X143520185Y-92812726D01*
X143521398Y-92810874D01*
X143609390Y-92679185D01*
X143609390Y-92679184D01*
X143609394Y-92679179D01*
X143669737Y-92533497D01*
X143700500Y-92378842D01*
X143700500Y-92221158D01*
X143700500Y-92221155D01*
X143700499Y-92221153D01*
X143695245Y-92194738D01*
X143669737Y-92066503D01*
X143654726Y-92030262D01*
X143609397Y-91920827D01*
X143609390Y-91920814D01*
X143521789Y-91789711D01*
X143521786Y-91789707D01*
X143410292Y-91678213D01*
X143410288Y-91678210D01*
X143279185Y-91590609D01*
X143279172Y-91590602D01*
X143133501Y-91530264D01*
X143133489Y-91530261D01*
X142978848Y-91499500D01*
X142974335Y-91499056D01*
X142909548Y-91472894D01*
X142869190Y-91415859D01*
X142866074Y-91346059D01*
X142868261Y-91339412D01*
X142867969Y-91339324D01*
X142869731Y-91333509D01*
X142869737Y-91333497D01*
X142900500Y-91178842D01*
X142900500Y-91021158D01*
X142900500Y-91021155D01*
X142900499Y-91021153D01*
X142892906Y-90982981D01*
X142869737Y-90866503D01*
X142850981Y-90821221D01*
X142809397Y-90720827D01*
X142809390Y-90720814D01*
X142721789Y-90589711D01*
X142721786Y-90589707D01*
X142610292Y-90478213D01*
X142610288Y-90478210D01*
X142479185Y-90390609D01*
X142479172Y-90390602D01*
X142333501Y-90330264D01*
X142333489Y-90330261D01*
X142178845Y-90299500D01*
X142178842Y-90299500D01*
X142021158Y-90299500D01*
X142021155Y-90299500D01*
X141866510Y-90330261D01*
X141866498Y-90330264D01*
X141720827Y-90390602D01*
X141720814Y-90390609D01*
X141589711Y-90478210D01*
X141589707Y-90478213D01*
X141579740Y-90488181D01*
X141518417Y-90521666D01*
X141492059Y-90524500D01*
X140524233Y-90524500D01*
X140393325Y-90559575D01*
X140393326Y-90559576D01*
X140377864Y-90563719D01*
X140246635Y-90639485D01*
X140246632Y-90639487D01*
X140139483Y-90746637D01*
X134961418Y-95924700D01*
X134900095Y-95958185D01*
X134830403Y-95953201D01*
X134774470Y-95911329D01*
X134753828Y-95855988D01*
X134751263Y-95856395D01*
X134719709Y-95657173D01*
X134658882Y-95469970D01*
X134569523Y-95294594D01*
X134453828Y-95135354D01*
X134314646Y-94996172D01*
X134155405Y-94880476D01*
X134150958Y-94878210D01*
X133980029Y-94791117D01*
X133792826Y-94730290D01*
X133598422Y-94699500D01*
X133598417Y-94699500D01*
X133401583Y-94699500D01*
X133401578Y-94699500D01*
X133207173Y-94730290D01*
X133019970Y-94791117D01*
X132844594Y-94880476D01*
X132789065Y-94920821D01*
X132685354Y-94996172D01*
X132685352Y-94996174D01*
X132685351Y-94996174D01*
X132546174Y-95135351D01*
X132546174Y-95135352D01*
X132546172Y-95135354D01*
X132515033Y-95178213D01*
X132430476Y-95294594D01*
X132341117Y-95469970D01*
X132280290Y-95657173D01*
X132249500Y-95851577D01*
X132249500Y-96048422D01*
X132280290Y-96242826D01*
X132341117Y-96430029D01*
X132392298Y-96530476D01*
X132430476Y-96605405D01*
X132546172Y-96764646D01*
X132685354Y-96903828D01*
X132844595Y-97019524D01*
X132927455Y-97061743D01*
X133019970Y-97108882D01*
X133019972Y-97108882D01*
X133019975Y-97108884D01*
X133120317Y-97141487D01*
X133207173Y-97169709D01*
X133401578Y-97200500D01*
X133401583Y-97200500D01*
X133598422Y-97200500D01*
X133781102Y-97171566D01*
X133850395Y-97180520D01*
X133903847Y-97225517D01*
X133924487Y-97292268D01*
X133924500Y-97294039D01*
X133924500Y-98592059D01*
X133904815Y-98659098D01*
X133888181Y-98679740D01*
X133878213Y-98689707D01*
X133878210Y-98689711D01*
X133790609Y-98820814D01*
X133790606Y-98820821D01*
X133763771Y-98885605D01*
X133719929Y-98940008D01*
X133653635Y-98962072D01*
X133592915Y-98948636D01*
X133480029Y-98891117D01*
X133292826Y-98830290D01*
X133098422Y-98799500D01*
X133098417Y-98799500D01*
X132901583Y-98799500D01*
X132901578Y-98799500D01*
X132707173Y-98830290D01*
X132519970Y-98891117D01*
X132344594Y-98980476D01*
X132281619Y-99026231D01*
X132185354Y-99096172D01*
X132185352Y-99096174D01*
X132185351Y-99096174D01*
X132046174Y-99235351D01*
X132046174Y-99235352D01*
X132046172Y-99235354D01*
X132014573Y-99278846D01*
X131930476Y-99394594D01*
X131841117Y-99569970D01*
X131780290Y-99757173D01*
X131749500Y-99951577D01*
X129200620Y-99951577D01*
X129219709Y-99892826D01*
X129239715Y-99766510D01*
X129250500Y-99698422D01*
X129250500Y-99501577D01*
X129219709Y-99307173D01*
X129159267Y-99121155D01*
X129158884Y-99119975D01*
X129158882Y-99119972D01*
X129158882Y-99119970D01*
X129108856Y-99021789D01*
X129069524Y-98944595D01*
X128953828Y-98785354D01*
X128814646Y-98646172D01*
X128655405Y-98530476D01*
X128480029Y-98441117D01*
X128292826Y-98380290D01*
X128098422Y-98349500D01*
X128098417Y-98349500D01*
X127901583Y-98349500D01*
X127901578Y-98349500D01*
X127707173Y-98380290D01*
X127519970Y-98441117D01*
X127344594Y-98530476D01*
X127259834Y-98592059D01*
X127185354Y-98646172D01*
X127185352Y-98646174D01*
X127185351Y-98646174D01*
X127046174Y-98785351D01*
X127046174Y-98785352D01*
X127046172Y-98785354D01*
X127020409Y-98820814D01*
X126930476Y-98944594D01*
X126841117Y-99119970D01*
X126780290Y-99307173D01*
X126749500Y-99501577D01*
X126000500Y-99501577D01*
X126000500Y-91105719D01*
X126020185Y-91038680D01*
X126072989Y-90992925D01*
X126142147Y-90982981D01*
X126205703Y-91012006D01*
X126241541Y-91064764D01*
X126301133Y-91235068D01*
X126432733Y-91508338D01*
X126446510Y-91530264D01*
X126594108Y-91765164D01*
X126783221Y-92002304D01*
X126997696Y-92216779D01*
X127234836Y-92405892D01*
X127491659Y-92567265D01*
X127491661Y-92567266D01*
X127580997Y-92610288D01*
X127764935Y-92698868D01*
X127973332Y-92771789D01*
X128051216Y-92799042D01*
X128051228Y-92799046D01*
X128346937Y-92866540D01*
X128346946Y-92866541D01*
X128346951Y-92866542D01*
X128524541Y-92886551D01*
X128648337Y-92900499D01*
X128648340Y-92900500D01*
X128648343Y-92900500D01*
X128951660Y-92900500D01*
X128951661Y-92900499D01*
X129135687Y-92879765D01*
X129253048Y-92866542D01*
X129253051Y-92866541D01*
X129253063Y-92866540D01*
X129548772Y-92799046D01*
X129835065Y-92698868D01*
X130108341Y-92567265D01*
X130365164Y-92405892D01*
X130602304Y-92216779D01*
X130816779Y-92002304D01*
X131005892Y-91765164D01*
X131167265Y-91508341D01*
X131171523Y-91499500D01*
X131257410Y-91321153D01*
X133099500Y-91321153D01*
X133099500Y-91478846D01*
X133130261Y-91633489D01*
X133130264Y-91633501D01*
X133190604Y-91779176D01*
X133190605Y-91779178D01*
X133190606Y-91779179D01*
X133214090Y-91814326D01*
X133226162Y-91832392D01*
X133247040Y-91899069D01*
X133237623Y-91948732D01*
X133230262Y-91966502D01*
X133230261Y-91966505D01*
X133199500Y-92121153D01*
X133199500Y-92278846D01*
X133230261Y-92433489D01*
X133230264Y-92433501D01*
X133290602Y-92579172D01*
X133290609Y-92579185D01*
X133378210Y-92710288D01*
X133378213Y-92710292D01*
X133489707Y-92821786D01*
X133489711Y-92821789D01*
X133620814Y-92909390D01*
X133620827Y-92909397D01*
X133751218Y-92963406D01*
X133766503Y-92969737D01*
X133921153Y-93000499D01*
X133921156Y-93000500D01*
X133921158Y-93000500D01*
X134078844Y-93000500D01*
X134078845Y-93000499D01*
X134233497Y-92969737D01*
X134379179Y-92909394D01*
X134510289Y-92821789D01*
X134621789Y-92710289D01*
X134709394Y-92579179D01*
X134714329Y-92567266D01*
X134730106Y-92529175D01*
X134769737Y-92433497D01*
X134800500Y-92278842D01*
X134800500Y-92121158D01*
X134800500Y-92121155D01*
X134800499Y-92121153D01*
X134782420Y-92030263D01*
X134769737Y-91966503D01*
X134756808Y-91935289D01*
X134709397Y-91820827D01*
X134709395Y-91820823D01*
X134709394Y-91820821D01*
X134698274Y-91804179D01*
X134673837Y-91767606D01*
X134652959Y-91700929D01*
X134662377Y-91651264D01*
X134669737Y-91633497D01*
X134700500Y-91478842D01*
X134700500Y-91321158D01*
X134700500Y-91321155D01*
X134700499Y-91321153D01*
X134683377Y-91235075D01*
X134669737Y-91166503D01*
X134627596Y-91064764D01*
X134609397Y-91020827D01*
X134609390Y-91020814D01*
X134521789Y-90889711D01*
X134521786Y-90889707D01*
X134410292Y-90778213D01*
X134410288Y-90778210D01*
X134279185Y-90690609D01*
X134279172Y-90690602D01*
X134133501Y-90630264D01*
X134133489Y-90630261D01*
X133978845Y-90599500D01*
X133978842Y-90599500D01*
X133821158Y-90599500D01*
X133821155Y-90599500D01*
X133666510Y-90630261D01*
X133666498Y-90630264D01*
X133520827Y-90690602D01*
X133520814Y-90690609D01*
X133389711Y-90778210D01*
X133389707Y-90778213D01*
X133278213Y-90889707D01*
X133278210Y-90889711D01*
X133190609Y-91020814D01*
X133190602Y-91020827D01*
X133130264Y-91166498D01*
X133130261Y-91166510D01*
X133099500Y-91321153D01*
X131257410Y-91321153D01*
X131286251Y-91261265D01*
X131286251Y-91261264D01*
X131286252Y-91261263D01*
X131298863Y-91235075D01*
X131298868Y-91235065D01*
X131399046Y-90948772D01*
X131466540Y-90653063D01*
X131473679Y-90589707D01*
X131496111Y-90390609D01*
X131500500Y-90351657D01*
X131500500Y-90048343D01*
X131486170Y-89921158D01*
X131466542Y-89746951D01*
X131466541Y-89746946D01*
X131466540Y-89746937D01*
X131399046Y-89451228D01*
X131358458Y-89335235D01*
X131350718Y-89313115D01*
X136086363Y-89313115D01*
X136086363Y-89470808D01*
X136117124Y-89625451D01*
X136117127Y-89625463D01*
X136177465Y-89771134D01*
X136177472Y-89771147D01*
X136265073Y-89902250D01*
X136265076Y-89902254D01*
X136376570Y-90013748D01*
X136376574Y-90013751D01*
X136507677Y-90101352D01*
X136507690Y-90101359D01*
X136653361Y-90161697D01*
X136653366Y-90161699D01*
X136808016Y-90192461D01*
X136808019Y-90192462D01*
X136808021Y-90192462D01*
X136965707Y-90192462D01*
X136965708Y-90192461D01*
X137120360Y-90161699D01*
X137233029Y-90115029D01*
X137266035Y-90101359D01*
X137266035Y-90101358D01*
X137266042Y-90101356D01*
X137397152Y-90013751D01*
X137508652Y-89902251D01*
X137596257Y-89771141D01*
X137656600Y-89625459D01*
X137687363Y-89470804D01*
X137687363Y-89313120D01*
X137687363Y-89313117D01*
X137687362Y-89313115D01*
X137680610Y-89279172D01*
X137656600Y-89158465D01*
X137656325Y-89157802D01*
X137656285Y-89157428D01*
X137654832Y-89152638D01*
X137655740Y-89152362D01*
X137648853Y-89088337D01*
X137667780Y-89041456D01*
X137709394Y-88979179D01*
X137769737Y-88833497D01*
X137772193Y-88821153D01*
X146809500Y-88821153D01*
X146809500Y-88978846D01*
X146840261Y-89133489D01*
X146840264Y-89133501D01*
X146900602Y-89279172D01*
X146900609Y-89279185D01*
X146968713Y-89381109D01*
X146989591Y-89447787D01*
X146971107Y-89515167D01*
X146968713Y-89518891D01*
X146900609Y-89620814D01*
X146900602Y-89620827D01*
X146840264Y-89766498D01*
X146840261Y-89766510D01*
X146809500Y-89921153D01*
X146809500Y-90078846D01*
X146840261Y-90233489D01*
X146840264Y-90233501D01*
X146900602Y-90379172D01*
X146900609Y-90379185D01*
X146988210Y-90510288D01*
X146988213Y-90510292D01*
X147099707Y-90621786D01*
X147099711Y-90621789D01*
X147230814Y-90709390D01*
X147230818Y-90709392D01*
X147230821Y-90709394D01*
X147338782Y-90754112D01*
X147393182Y-90797951D01*
X147405888Y-90821220D01*
X147450602Y-90929172D01*
X147450609Y-90929185D01*
X147538210Y-91060288D01*
X147538213Y-91060292D01*
X147649707Y-91171786D01*
X147649711Y-91171789D01*
X147780814Y-91259390D01*
X147780827Y-91259397D01*
X147877646Y-91299500D01*
X147926503Y-91319737D01*
X148076146Y-91349503D01*
X148081153Y-91350499D01*
X148081156Y-91350500D01*
X148081158Y-91350500D01*
X148238844Y-91350500D01*
X148238845Y-91350499D01*
X148393497Y-91319737D01*
X148534662Y-91261265D01*
X148539172Y-91259397D01*
X148539172Y-91259396D01*
X148539179Y-91259394D01*
X148641111Y-91191284D01*
X148707786Y-91170408D01*
X148775166Y-91188892D01*
X148778847Y-91191257D01*
X148880821Y-91259394D01*
X148880823Y-91259395D01*
X148880827Y-91259397D01*
X148977646Y-91299500D01*
X149026503Y-91319737D01*
X149176146Y-91349503D01*
X149181153Y-91350499D01*
X149181156Y-91350500D01*
X149181158Y-91350500D01*
X149338844Y-91350500D01*
X149338845Y-91350499D01*
X149493497Y-91319737D01*
X149634662Y-91261265D01*
X149639172Y-91259397D01*
X149639172Y-91259396D01*
X149639179Y-91259394D01*
X149770289Y-91171789D01*
X149881789Y-91060289D01*
X149969394Y-90929179D01*
X150014112Y-90821217D01*
X150057951Y-90766817D01*
X150081210Y-90754115D01*
X150189179Y-90709394D01*
X150320289Y-90621789D01*
X150431789Y-90510289D01*
X150519394Y-90379179D01*
X150579737Y-90233497D01*
X150602084Y-90121153D01*
X153474500Y-90121153D01*
X153474500Y-90278846D01*
X153505261Y-90433489D01*
X153505264Y-90433501D01*
X153565602Y-90579172D01*
X153565609Y-90579185D01*
X153653210Y-90710288D01*
X153653213Y-90710292D01*
X153764707Y-90821786D01*
X153764711Y-90821789D01*
X153800283Y-90845558D01*
X153845088Y-90899170D01*
X153853795Y-90968495D01*
X153834495Y-91017549D01*
X153815611Y-91045811D01*
X153815602Y-91045827D01*
X153755264Y-91191498D01*
X153755261Y-91191510D01*
X153724500Y-91346153D01*
X153724500Y-91503846D01*
X153755261Y-91658489D01*
X153755264Y-91658501D01*
X153815602Y-91804172D01*
X153815609Y-91804185D01*
X153903210Y-91935288D01*
X153903213Y-91935292D01*
X154014707Y-92046786D01*
X154014711Y-92046789D01*
X154145814Y-92134390D01*
X154145827Y-92134397D01*
X154253138Y-92178846D01*
X154291503Y-92194737D01*
X154446153Y-92225499D01*
X154446156Y-92225500D01*
X154446158Y-92225500D01*
X154603844Y-92225500D01*
X154603845Y-92225499D01*
X154758497Y-92194737D01*
X154904179Y-92134394D01*
X154998821Y-92071156D01*
X159399500Y-92071156D01*
X159399500Y-92228849D01*
X159430261Y-92383492D01*
X159430264Y-92383504D01*
X159490602Y-92529175D01*
X159490609Y-92529188D01*
X159578210Y-92660291D01*
X159578213Y-92660295D01*
X159689707Y-92771789D01*
X159689711Y-92771792D01*
X159820814Y-92859393D01*
X159820827Y-92859400D01*
X159966498Y-92919738D01*
X159966503Y-92919740D01*
X160121153Y-92950502D01*
X160121156Y-92950503D01*
X160121158Y-92950503D01*
X160278844Y-92950503D01*
X160278845Y-92950502D01*
X160433497Y-92919740D01*
X160562007Y-92866510D01*
X160579172Y-92859400D01*
X160579172Y-92859399D01*
X160579179Y-92859397D01*
X160710289Y-92771792D01*
X160821789Y-92660292D01*
X160909394Y-92529182D01*
X160969737Y-92383500D01*
X161000500Y-92228845D01*
X161000500Y-92071161D01*
X161000500Y-92071158D01*
X161000499Y-92071156D01*
X160998397Y-92060590D01*
X160969737Y-91916506D01*
X160963106Y-91900498D01*
X160909397Y-91770830D01*
X160909390Y-91770817D01*
X160821789Y-91639714D01*
X160821786Y-91639710D01*
X160710292Y-91528216D01*
X160710288Y-91528213D01*
X160579185Y-91440612D01*
X160579172Y-91440605D01*
X160433501Y-91380267D01*
X160433489Y-91380264D01*
X160278845Y-91349503D01*
X160278842Y-91349503D01*
X160121158Y-91349503D01*
X160121155Y-91349503D01*
X159966510Y-91380264D01*
X159966498Y-91380267D01*
X159820827Y-91440605D01*
X159820814Y-91440612D01*
X159689711Y-91528213D01*
X159689707Y-91528216D01*
X159578213Y-91639710D01*
X159578210Y-91639714D01*
X159490609Y-91770817D01*
X159490602Y-91770830D01*
X159430264Y-91916501D01*
X159430261Y-91916513D01*
X159399500Y-92071156D01*
X154998821Y-92071156D01*
X155035289Y-92046789D01*
X155068630Y-92013448D01*
X155104691Y-91977388D01*
X155146786Y-91935292D01*
X155146789Y-91935289D01*
X155234394Y-91804179D01*
X155240389Y-91789707D01*
X155268922Y-91720821D01*
X155294737Y-91658497D01*
X155325500Y-91503842D01*
X155325500Y-91346158D01*
X155325500Y-91346155D01*
X155325499Y-91346153D01*
X155320527Y-91321158D01*
X155294737Y-91191503D01*
X155294647Y-91191286D01*
X155234397Y-91045827D01*
X155234390Y-91045814D01*
X155146789Y-90914711D01*
X155146786Y-90914707D01*
X155035292Y-90803213D01*
X154999715Y-90779441D01*
X154954911Y-90725828D01*
X154946204Y-90656503D01*
X154956752Y-90622819D01*
X154960579Y-90614820D01*
X154984394Y-90579179D01*
X155027968Y-90473980D01*
X155029404Y-90470980D01*
X155050615Y-90447366D01*
X155070538Y-90422644D01*
X155073799Y-90421558D01*
X155076096Y-90419002D01*
X155106709Y-90410604D01*
X155136833Y-90400579D01*
X155141259Y-90400500D01*
X155203844Y-90400500D01*
X155203845Y-90400499D01*
X155358497Y-90369737D01*
X155504179Y-90309394D01*
X155635289Y-90221789D01*
X155746789Y-90110289D01*
X155834394Y-89979179D01*
X155894737Y-89833497D01*
X155925500Y-89678842D01*
X155925500Y-89521158D01*
X155925500Y-89521155D01*
X155925499Y-89521153D01*
X155911590Y-89451228D01*
X155894737Y-89366503D01*
X155890351Y-89355914D01*
X155834397Y-89220827D01*
X155834390Y-89220814D01*
X155746789Y-89089711D01*
X155746786Y-89089707D01*
X155635292Y-88978213D01*
X155635288Y-88978210D01*
X155504185Y-88890609D01*
X155504172Y-88890602D01*
X155358501Y-88830264D01*
X155358489Y-88830261D01*
X155203845Y-88799500D01*
X155203842Y-88799500D01*
X155046158Y-88799500D01*
X155046155Y-88799500D01*
X154891510Y-88830261D01*
X154891498Y-88830264D01*
X154745827Y-88890602D01*
X154745814Y-88890609D01*
X154614711Y-88978210D01*
X154614707Y-88978213D01*
X154503213Y-89089707D01*
X154503210Y-89089711D01*
X154415609Y-89220814D01*
X154415602Y-89220827D01*
X154373302Y-89322952D01*
X154329462Y-89377356D01*
X154263167Y-89399421D01*
X154258741Y-89399500D01*
X154196155Y-89399500D01*
X154041510Y-89430261D01*
X154041498Y-89430264D01*
X153895827Y-89490602D01*
X153895814Y-89490609D01*
X153764711Y-89578210D01*
X153764707Y-89578213D01*
X153653213Y-89689707D01*
X153653210Y-89689711D01*
X153565609Y-89820814D01*
X153565602Y-89820827D01*
X153505264Y-89966498D01*
X153505261Y-89966510D01*
X153474500Y-90121153D01*
X150602084Y-90121153D01*
X150608107Y-90090875D01*
X150608107Y-90090874D01*
X150610500Y-90078844D01*
X150610500Y-89921155D01*
X150610499Y-89921153D01*
X150590543Y-89820827D01*
X150579737Y-89766503D01*
X150547929Y-89689711D01*
X150519397Y-89620827D01*
X150519393Y-89620820D01*
X150490924Y-89578213D01*
X150451284Y-89518888D01*
X150430408Y-89452214D01*
X150448892Y-89384834D01*
X150451257Y-89381152D01*
X150519394Y-89279179D01*
X150579737Y-89133497D01*
X150610500Y-88978842D01*
X150610500Y-88821158D01*
X150610500Y-88821155D01*
X150610499Y-88821153D01*
X150588167Y-88708884D01*
X150579737Y-88666503D01*
X150560278Y-88619524D01*
X150519397Y-88520827D01*
X150519390Y-88520814D01*
X150431789Y-88389711D01*
X150431786Y-88389707D01*
X150320292Y-88278213D01*
X150320288Y-88278210D01*
X150189185Y-88190609D01*
X150189172Y-88190602D01*
X150081220Y-88145888D01*
X150026816Y-88102048D01*
X150014115Y-88078789D01*
X149969394Y-87970821D01*
X149969392Y-87970818D01*
X149969390Y-87970814D01*
X149881789Y-87839711D01*
X149881786Y-87839707D01*
X149770292Y-87728213D01*
X149770288Y-87728210D01*
X149639185Y-87640609D01*
X149639172Y-87640602D01*
X149493501Y-87580264D01*
X149493489Y-87580261D01*
X149338845Y-87549500D01*
X149338842Y-87549500D01*
X149181158Y-87549500D01*
X149181155Y-87549500D01*
X149026510Y-87580261D01*
X149026498Y-87580264D01*
X148880827Y-87640602D01*
X148880814Y-87640609D01*
X148778891Y-87708713D01*
X148712213Y-87729591D01*
X148644833Y-87711107D01*
X148641109Y-87708713D01*
X148539185Y-87640609D01*
X148539172Y-87640602D01*
X148393501Y-87580264D01*
X148393489Y-87580261D01*
X148238845Y-87549500D01*
X148238842Y-87549500D01*
X148081158Y-87549500D01*
X148081155Y-87549500D01*
X147926510Y-87580261D01*
X147926498Y-87580264D01*
X147780827Y-87640602D01*
X147780814Y-87640609D01*
X147649711Y-87728210D01*
X147649707Y-87728213D01*
X147538213Y-87839707D01*
X147538210Y-87839711D01*
X147450609Y-87970814D01*
X147450604Y-87970823D01*
X147405888Y-88078780D01*
X147362047Y-88133183D01*
X147338780Y-88145888D01*
X147230823Y-88190604D01*
X147230814Y-88190609D01*
X147099711Y-88278210D01*
X147099707Y-88278213D01*
X146988213Y-88389707D01*
X146988210Y-88389711D01*
X146900609Y-88520814D01*
X146900602Y-88520827D01*
X146840264Y-88666498D01*
X146840261Y-88666510D01*
X146809500Y-88821153D01*
X137772193Y-88821153D01*
X137776301Y-88800500D01*
X137778216Y-88790874D01*
X137778216Y-88790873D01*
X137800499Y-88678846D01*
X137800500Y-88678844D01*
X137800500Y-88521155D01*
X137800499Y-88521153D01*
X137780734Y-88421789D01*
X137769737Y-88366503D01*
X137746452Y-88310288D01*
X137709397Y-88220827D01*
X137709390Y-88220814D01*
X137621789Y-88089711D01*
X137621786Y-88089707D01*
X137510292Y-87978213D01*
X137510288Y-87978210D01*
X137379185Y-87890609D01*
X137379172Y-87890602D01*
X137233501Y-87830264D01*
X137233489Y-87830261D01*
X137078845Y-87799500D01*
X137078842Y-87799500D01*
X136921158Y-87799500D01*
X136921155Y-87799500D01*
X136766510Y-87830261D01*
X136766498Y-87830264D01*
X136620827Y-87890602D01*
X136620814Y-87890609D01*
X136489711Y-87978210D01*
X136489707Y-87978213D01*
X136378213Y-88089707D01*
X136378210Y-88089711D01*
X136290609Y-88220814D01*
X136290602Y-88220827D01*
X136230264Y-88366498D01*
X136230261Y-88366510D01*
X136199500Y-88521153D01*
X136199500Y-88678846D01*
X136230260Y-88833488D01*
X136230263Y-88833498D01*
X136230539Y-88834163D01*
X136230579Y-88834538D01*
X136232030Y-88839320D01*
X136231123Y-88839595D01*
X136238008Y-88903633D01*
X136219081Y-88950504D01*
X136177468Y-89012783D01*
X136177467Y-89012784D01*
X136117127Y-89158460D01*
X136117124Y-89158472D01*
X136086363Y-89313115D01*
X131350718Y-89313115D01*
X131318421Y-89220814D01*
X131298868Y-89164935D01*
X131167265Y-88891659D01*
X131005892Y-88634836D01*
X130816779Y-88397696D01*
X130602304Y-88183221D01*
X130597235Y-88179179D01*
X130460001Y-88069738D01*
X130365164Y-87994108D01*
X130108341Y-87832735D01*
X130108338Y-87832733D01*
X129835068Y-87701133D01*
X129548783Y-87600957D01*
X129548771Y-87600953D01*
X129402648Y-87567602D01*
X129323338Y-87549500D01*
X129253063Y-87533460D01*
X129253060Y-87533459D01*
X129253048Y-87533457D01*
X128951663Y-87499500D01*
X128951657Y-87499500D01*
X128648343Y-87499500D01*
X128648336Y-87499500D01*
X128346951Y-87533457D01*
X128346937Y-87533460D01*
X128051228Y-87600953D01*
X128051216Y-87600957D01*
X127764931Y-87701133D01*
X127491661Y-87832733D01*
X127234837Y-87994107D01*
X126997696Y-88183220D01*
X126783220Y-88397696D01*
X126594107Y-88634837D01*
X126432733Y-88891661D01*
X126301133Y-89164931D01*
X126241541Y-89335235D01*
X126200820Y-89392011D01*
X126135867Y-89417758D01*
X126067305Y-89404302D01*
X126016902Y-89355914D01*
X126000500Y-89294280D01*
X126000500Y-87451577D01*
X131949500Y-87451577D01*
X131949500Y-87648422D01*
X131980290Y-87842826D01*
X132041117Y-88030029D01*
X132122937Y-88190609D01*
X132130476Y-88205405D01*
X132246172Y-88364646D01*
X132385354Y-88503828D01*
X132544595Y-88619524D01*
X132574647Y-88634836D01*
X132719970Y-88708882D01*
X132719972Y-88708882D01*
X132719975Y-88708884D01*
X132820317Y-88741487D01*
X132907173Y-88769709D01*
X133101578Y-88800500D01*
X133101583Y-88800500D01*
X133298422Y-88800500D01*
X133492826Y-88769709D01*
X133680025Y-88708884D01*
X133855405Y-88619524D01*
X134014646Y-88503828D01*
X134153828Y-88364646D01*
X134269524Y-88205405D01*
X134358884Y-88030025D01*
X134419709Y-87842826D01*
X134424862Y-87810289D01*
X134438980Y-87721153D01*
X139399500Y-87721153D01*
X139399500Y-87878846D01*
X139430261Y-88033489D01*
X139430264Y-88033501D01*
X139490602Y-88179172D01*
X139490609Y-88179185D01*
X139578210Y-88310288D01*
X139578213Y-88310292D01*
X139689707Y-88421786D01*
X139689711Y-88421789D01*
X139820814Y-88509390D01*
X139820827Y-88509397D01*
X139966498Y-88569735D01*
X139966503Y-88569737D01*
X140121153Y-88600499D01*
X140121156Y-88600500D01*
X140121158Y-88600500D01*
X140278844Y-88600500D01*
X140278845Y-88600499D01*
X140433497Y-88569737D01*
X140551592Y-88520821D01*
X140579172Y-88509397D01*
X140579172Y-88509396D01*
X140579179Y-88509394D01*
X140710289Y-88421789D01*
X140821789Y-88310289D01*
X140909394Y-88179179D01*
X140969737Y-88033497D01*
X141000500Y-87878842D01*
X141000500Y-87721158D01*
X141000500Y-87721155D01*
X141000499Y-87721153D01*
X140998501Y-87711107D01*
X140969737Y-87566503D01*
X140922136Y-87451583D01*
X140909397Y-87420827D01*
X140909390Y-87420814D01*
X140821789Y-87289711D01*
X140821786Y-87289707D01*
X140710292Y-87178213D01*
X140710288Y-87178210D01*
X140579185Y-87090609D01*
X140579172Y-87090602D01*
X140433501Y-87030264D01*
X140433489Y-87030261D01*
X140278845Y-86999500D01*
X140278842Y-86999500D01*
X140121158Y-86999500D01*
X140121155Y-86999500D01*
X139966510Y-87030261D01*
X139966498Y-87030264D01*
X139820827Y-87090602D01*
X139820814Y-87090609D01*
X139689711Y-87178210D01*
X139689707Y-87178213D01*
X139578213Y-87289707D01*
X139578210Y-87289711D01*
X139490609Y-87420814D01*
X139490602Y-87420827D01*
X139430264Y-87566498D01*
X139430261Y-87566510D01*
X139399500Y-87721153D01*
X134438980Y-87721153D01*
X134450500Y-87648422D01*
X134450500Y-87451577D01*
X134419709Y-87257173D01*
X134391487Y-87170317D01*
X134358884Y-87069975D01*
X134358882Y-87069972D01*
X134358882Y-87069970D01*
X134311743Y-86977455D01*
X134269524Y-86894595D01*
X134153828Y-86735354D01*
X134014646Y-86596172D01*
X133855405Y-86480476D01*
X133680029Y-86391117D01*
X133492826Y-86330290D01*
X133298422Y-86299500D01*
X133298417Y-86299500D01*
X133101583Y-86299500D01*
X133101578Y-86299500D01*
X132907173Y-86330290D01*
X132719970Y-86391117D01*
X132544594Y-86480476D01*
X132476072Y-86530261D01*
X132385354Y-86596172D01*
X132385352Y-86596174D01*
X132385351Y-86596174D01*
X132246174Y-86735351D01*
X132246174Y-86735352D01*
X132246172Y-86735354D01*
X132206682Y-86789707D01*
X132130476Y-86894594D01*
X132041117Y-87069970D01*
X131980290Y-87257173D01*
X131949500Y-87451577D01*
X126000500Y-87451577D01*
X126000500Y-85321153D01*
X127399500Y-85321153D01*
X127399500Y-85478846D01*
X127430261Y-85633489D01*
X127430264Y-85633501D01*
X127490602Y-85779172D01*
X127490609Y-85779185D01*
X127578210Y-85910288D01*
X127578213Y-85910292D01*
X127689707Y-86021786D01*
X127689711Y-86021789D01*
X127820814Y-86109390D01*
X127820827Y-86109397D01*
X127966498Y-86169735D01*
X127966503Y-86169737D01*
X128121153Y-86200499D01*
X128121156Y-86200500D01*
X128121158Y-86200500D01*
X128278844Y-86200500D01*
X128278845Y-86200499D01*
X128426378Y-86171153D01*
X152499500Y-86171153D01*
X152499500Y-86328846D01*
X152530261Y-86483489D01*
X152530264Y-86483501D01*
X152590602Y-86629172D01*
X152590609Y-86629185D01*
X152678210Y-86760288D01*
X152678213Y-86760292D01*
X152789707Y-86871786D01*
X152789711Y-86871789D01*
X152920814Y-86959390D01*
X152920827Y-86959397D01*
X153017646Y-86999500D01*
X153066503Y-87019737D01*
X153221153Y-87050499D01*
X153221156Y-87050500D01*
X153221158Y-87050500D01*
X153378844Y-87050500D01*
X153378845Y-87050499D01*
X153533497Y-87019737D01*
X153679179Y-86959394D01*
X153810289Y-86871789D01*
X153921789Y-86760289D01*
X154009394Y-86629179D01*
X154069737Y-86483497D01*
X154100500Y-86328842D01*
X154100500Y-86171158D01*
X154100500Y-86171155D01*
X154100499Y-86171153D01*
X154070788Y-86021789D01*
X154069737Y-86016503D01*
X154069735Y-86016498D01*
X154009397Y-85870827D01*
X154009390Y-85870814D01*
X153921789Y-85739711D01*
X153921786Y-85739707D01*
X153810292Y-85628213D01*
X153810288Y-85628210D01*
X153679185Y-85540609D01*
X153679172Y-85540602D01*
X153533501Y-85480264D01*
X153533489Y-85480261D01*
X153378845Y-85449500D01*
X153378842Y-85449500D01*
X153221158Y-85449500D01*
X153221155Y-85449500D01*
X153066510Y-85480261D01*
X153066498Y-85480264D01*
X152920827Y-85540602D01*
X152920814Y-85540609D01*
X152789711Y-85628210D01*
X152789707Y-85628213D01*
X152678213Y-85739707D01*
X152678210Y-85739711D01*
X152590609Y-85870814D01*
X152590602Y-85870827D01*
X152530264Y-86016498D01*
X152530261Y-86016510D01*
X152499500Y-86171153D01*
X128426378Y-86171153D01*
X128433497Y-86169737D01*
X128579179Y-86109394D01*
X128579185Y-86109390D01*
X128650164Y-86061964D01*
X128681224Y-86041209D01*
X128710289Y-86021789D01*
X128821789Y-85910289D01*
X128909394Y-85779179D01*
X128969737Y-85633497D01*
X129000500Y-85478842D01*
X129000500Y-85321158D01*
X129000500Y-85321155D01*
X129000499Y-85321153D01*
X128986422Y-85250382D01*
X128969737Y-85166503D01*
X128945090Y-85107000D01*
X128909397Y-85020827D01*
X128909390Y-85020814D01*
X128821789Y-84889711D01*
X128821786Y-84889707D01*
X128710292Y-84778213D01*
X128710288Y-84778210D01*
X128624897Y-84721153D01*
X154299500Y-84721153D01*
X154299500Y-84878846D01*
X154330261Y-85033489D01*
X154330264Y-85033501D01*
X154390602Y-85179172D01*
X154390609Y-85179185D01*
X154478210Y-85310288D01*
X154478213Y-85310292D01*
X154589707Y-85421786D01*
X154589711Y-85421789D01*
X154720814Y-85509390D01*
X154720827Y-85509397D01*
X154796181Y-85540609D01*
X154866503Y-85569737D01*
X155021153Y-85600499D01*
X155021156Y-85600500D01*
X155021158Y-85600500D01*
X155178844Y-85600500D01*
X155178845Y-85600499D01*
X155333497Y-85569737D01*
X155479179Y-85509394D01*
X155610289Y-85421789D01*
X155721789Y-85310289D01*
X155809394Y-85179179D01*
X155869737Y-85033497D01*
X155900500Y-84878842D01*
X155900500Y-84721158D01*
X155900500Y-84721155D01*
X155900499Y-84721153D01*
X155880543Y-84620827D01*
X155869737Y-84566503D01*
X155837929Y-84489711D01*
X155809397Y-84420827D01*
X155809390Y-84420814D01*
X155721789Y-84289711D01*
X155721786Y-84289707D01*
X155610292Y-84178213D01*
X155610288Y-84178210D01*
X155479185Y-84090609D01*
X155479172Y-84090602D01*
X155333501Y-84030264D01*
X155333489Y-84030261D01*
X155178845Y-83999500D01*
X155178842Y-83999500D01*
X155021158Y-83999500D01*
X155021155Y-83999500D01*
X154866510Y-84030261D01*
X154866498Y-84030264D01*
X154720827Y-84090602D01*
X154720814Y-84090609D01*
X154589711Y-84178210D01*
X154589707Y-84178213D01*
X154478213Y-84289707D01*
X154478210Y-84289711D01*
X154390609Y-84420814D01*
X154390602Y-84420827D01*
X154330264Y-84566498D01*
X154330261Y-84566510D01*
X154299500Y-84721153D01*
X128624897Y-84721153D01*
X128579185Y-84690609D01*
X128579172Y-84690602D01*
X128433501Y-84630264D01*
X128433489Y-84630261D01*
X128278845Y-84599500D01*
X128278842Y-84599500D01*
X128121158Y-84599500D01*
X128121155Y-84599500D01*
X127966510Y-84630261D01*
X127966498Y-84630264D01*
X127820827Y-84690602D01*
X127820814Y-84690609D01*
X127689711Y-84778210D01*
X127689707Y-84778213D01*
X127578213Y-84889707D01*
X127578210Y-84889711D01*
X127490609Y-85020814D01*
X127490602Y-85020827D01*
X127430264Y-85166498D01*
X127430261Y-85166510D01*
X127399500Y-85321153D01*
X126000500Y-85321153D01*
X126000500Y-84004427D01*
X126000816Y-83995581D01*
X126005213Y-83934108D01*
X126015130Y-83795436D01*
X126017646Y-83777938D01*
X126059356Y-83586199D01*
X126064333Y-83569248D01*
X126132911Y-83385385D01*
X126140259Y-83369298D01*
X126205673Y-83249500D01*
X126234291Y-83197089D01*
X126243845Y-83182221D01*
X126361448Y-83025123D01*
X126373020Y-83011769D01*
X126511769Y-82873020D01*
X126525123Y-82861448D01*
X126682221Y-82743845D01*
X126697089Y-82734291D01*
X126869298Y-82640258D01*
X126885385Y-82632911D01*
X127069248Y-82564333D01*
X127086199Y-82559356D01*
X127277938Y-82517646D01*
X127295436Y-82515130D01*
X127495582Y-82500816D01*
X127504428Y-82500500D01*
X127565892Y-82500500D01*
X147634108Y-82500500D01*
X158677582Y-82500500D01*
X158744621Y-82520185D01*
G37*
%TD.AperFunction*%
%TD*%
M02*
