M48
; DRILL file {KiCad 9.0.0} date 2025-12-27T14:24:29-0800
; FORMAT={-:-/ absolute / metric / decimal}
; #@! TF.CreationDate,2025-12-27T14:24:29-08:00
; #@! TF.GenerationSoftware,Kicad,Pcbnew,9.0.0
; #@! TF.FileFunction,MixedPlating,1,4
FMAT,2
METRIC
; #@! TA.AperFunction,Plated,PTH,ComponentDrill
T1C0.200
; #@! TA.AperFunction,Plated,PTH,ViaDrill
T2C0.300
; #@! TA.AperFunction,Plated,PTH,ComponentDrill
T3C0.400
; #@! TA.AperFunction,Plated,PTH,ComponentDrill
T4C0.600
; #@! TA.AperFunction,Plated,PTH,ComponentDrill
T5C0.700
; #@! TA.AperFunction,Plated,PTH,ComponentDrill
T6C1.100
; #@! TA.AperFunction,Plated,PTH,ComponentDrill
T7C2.200
; #@! TA.AperFunction,NonPlated,NPTH,ComponentDrill
T8C0.650
%
G90
G05
T1
X147.61Y-88.9
X147.61Y-90.0
X148.16Y-88.35
X148.16Y-89.45
X148.16Y-90.55
X148.71Y-88.9
X148.71Y-90.0
X149.26Y-88.35
X149.26Y-89.45
X149.26Y-90.55
X149.81Y-88.9
X149.81Y-90.0
T2
X127.3Y-95.0
X128.2Y-85.4
X128.3Y-83.3
X130.025Y-105.025
X133.775Y-108.3
X133.9Y-91.4
X134.0Y-92.2
X134.5Y-99.2
X135.4Y-99.2
X136.887Y-89.392
X137.0Y-88.6
X137.2Y-103.5
X137.8Y-109.5
X140.2Y-87.8
X140.3Y-95.3
X140.4Y-105.1
X140.6Y-92.2
X140.7Y-83.3
X141.3Y-107.9
X141.8Y-95.0
X142.1Y-91.1
X142.5Y-95.8
X142.5Y-107.9
X142.9Y-92.3
X143.0Y-94.8
X143.7Y-95.5
X144.2Y-109.5
X144.7Y-110.562
X145.2Y-93.1
X145.6Y-112.2
X145.7Y-111.0
X146.5Y-117.0
X147.3Y-100.0
X147.325Y-102.925
X149.5Y-117.0
X149.8Y-111.0
X150.0Y-109.9
X150.4Y-84.6
X150.7Y-106.5
X151.75Y-98.1
X151.75Y-99.7
X153.0Y-102.2
X153.3Y-86.25
X154.275Y-90.2
X154.3Y-115.1
X154.525Y-91.425
X155.1Y-84.8
X155.125Y-89.6
X158.5Y-94.6
X160.1Y-105.3
X160.2Y-92.15
X161.4Y-99.4
X162.0Y-88.2
X162.5Y-104.526
X162.6Y-98.4
X162.7Y-84.3
X163.7Y-85.0
X164.7Y-94.2
X166.0Y-94.1
X166.55Y-92.8
X167.0Y-87.3
X167.2Y-92.1
X167.7Y-102.75
X167.7Y-104.3
T3
X127.15Y-90.2
X127.633Y-89.033
X127.633Y-91.367
X127.65Y-119.61
X128.133Y-118.443
X128.133Y-120.777
X128.8Y-88.55
X128.8Y-91.85
X129.3Y-117.96
X129.3Y-121.26
X129.967Y-89.033
X129.967Y-91.367
X130.45Y-90.2
X130.467Y-118.443
X130.467Y-120.777
X130.95Y-119.61
X164.7Y-119.51
X165.183Y-118.343
X165.183Y-120.677
X166.35Y-117.86
X166.35Y-121.16
X167.517Y-118.343
X167.517Y-120.677
X168.0Y-119.51
T5
X128.0Y-99.6
X128.7Y-111.6
X131.3Y-112.15
X133.0Y-100.05
X133.2Y-87.55
X133.5Y-95.95
X136.0Y-97.6
X143.4Y-105.55
X148.6Y-101.65
X156.4Y-100.3
X156.5Y-109.15
X159.1Y-100.3
X159.3Y-83.85
X163.7Y-112.15
X164.55Y-98.95
X166.0Y-85.75
X166.2Y-109.3
X166.4Y-112.35
X168.4Y-84.5
T6
X134.25Y-117.36
X134.25Y-121.86
X140.75Y-117.36
X140.75Y-121.86
X154.8Y-117.26
X154.8Y-121.76
X161.3Y-117.26
X161.3Y-121.76
T7
X128.8Y-90.2
X129.3Y-119.61
X166.35Y-119.51
T8
X144.86Y-117.045
X150.64Y-117.045
T4
G00X143.43Y-115.995
M15
G01X143.43Y-117.095
M16
G05
G00X143.43Y-120.325
M15
G01X143.43Y-121.125
M16
G05
G00X152.07Y-115.995
M15
G01X152.07Y-117.095
M16
G05
G00X152.07Y-120.325
M15
G01X152.07Y-121.125
M16
G05
M30
