%TF.GenerationSoftware,KiCad,Pcbnew,9.0.0*%
%TF.CreationDate,2025-12-27T14:24:40-08:00*%
%TF.ProjectId,esp_module_rev1,6573705f-6d6f-4647-956c-655f72657631,rev?*%
%TF.SameCoordinates,Original*%
%TF.FileFunction,Copper,L1,Top*%
%TF.FilePolarity,Positive*%
%FSLAX46Y46*%
G04 Gerber Fmt 4.6, Leading zero omitted, Abs format (unit mm)*
G04 Created by KiCad (PCBNEW 9.0.0) date 2025-12-27 14:24:40*
%MOMM*%
%LPD*%
G01*
G04 APERTURE LIST*
G04 Aperture macros list*
%AMRoundRect*
0 Rectangle with rounded corners*
0 $1 Rounding radius*
0 $2 $3 $4 $5 $6 $7 $8 $9 X,Y pos of 4 corners*
0 Add a 4 corners polygon primitive as box body*
4,1,4,$2,$3,$4,$5,$6,$7,$8,$9,$2,$3,0*
0 Add four circle primitives for the rounded corners*
1,1,$1+$1,$2,$3*
1,1,$1+$1,$4,$5*
1,1,$1+$1,$6,$7*
1,1,$1+$1,$8,$9*
0 Add four rect primitives between the rounded corners*
20,1,$1+$1,$2,$3,$4,$5,0*
20,1,$1+$1,$4,$5,$6,$7,0*
20,1,$1+$1,$6,$7,$8,$9,0*
20,1,$1+$1,$8,$9,$2,$3,0*%
G04 Aperture macros list end*
%TA.AperFunction,SMDPad,CuDef*%
%ADD10R,1.500000X0.900000*%
%TD*%
%TA.AperFunction,HeatsinkPad*%
%ADD11C,0.600000*%
%TD*%
%TA.AperFunction,HeatsinkPad*%
%ADD12R,2.900000X2.900000*%
%TD*%
%TA.AperFunction,SMDPad,CuDef*%
%ADD13RoundRect,0.150000X-0.512500X-0.150000X0.512500X-0.150000X0.512500X0.150000X-0.512500X0.150000X0*%
%TD*%
%TA.AperFunction,SMDPad,CuDef*%
%ADD14RoundRect,0.237500X-0.237500X0.300000X-0.237500X-0.300000X0.237500X-0.300000X0.237500X0.300000X0*%
%TD*%
%TA.AperFunction,SMDPad,CuDef*%
%ADD15RoundRect,0.237500X0.250000X0.237500X-0.250000X0.237500X-0.250000X-0.237500X0.250000X-0.237500X0*%
%TD*%
%TA.AperFunction,SMDPad,CuDef*%
%ADD16RoundRect,0.087500X-0.225000X-0.087500X0.225000X-0.087500X0.225000X0.087500X-0.225000X0.087500X0*%
%TD*%
%TA.AperFunction,SMDPad,CuDef*%
%ADD17RoundRect,0.087500X-0.087500X-0.225000X0.087500X-0.225000X0.087500X0.225000X-0.087500X0.225000X0*%
%TD*%
%TA.AperFunction,SMDPad,CuDef*%
%ADD18RoundRect,0.150000X-0.150000X-0.425000X0.150000X-0.425000X0.150000X0.425000X-0.150000X0.425000X0*%
%TD*%
%TA.AperFunction,SMDPad,CuDef*%
%ADD19RoundRect,0.075000X-0.075000X-0.500000X0.075000X-0.500000X0.075000X0.500000X-0.075000X0.500000X0*%
%TD*%
%TA.AperFunction,HeatsinkPad*%
%ADD20O,1.000000X2.100000*%
%TD*%
%TA.AperFunction,HeatsinkPad*%
%ADD21O,1.000000X1.800000*%
%TD*%
%TA.AperFunction,ComponentPad*%
%ADD22C,1.500000*%
%TD*%
%TA.AperFunction,SMDPad,CuDef*%
%ADD23R,0.254000X0.279400*%
%TD*%
%TA.AperFunction,SMDPad,CuDef*%
%ADD24R,0.279400X0.254000*%
%TD*%
%TA.AperFunction,SMDPad,CuDef*%
%ADD25RoundRect,0.237500X0.237500X-0.250000X0.237500X0.250000X-0.237500X0.250000X-0.237500X-0.250000X0*%
%TD*%
%TA.AperFunction,SMDPad,CuDef*%
%ADD26RoundRect,0.237500X-0.300000X-0.237500X0.300000X-0.237500X0.300000X0.237500X-0.300000X0.237500X0*%
%TD*%
%TA.AperFunction,SMDPad,CuDef*%
%ADD27RoundRect,0.237500X-0.250000X-0.237500X0.250000X-0.237500X0.250000X0.237500X-0.250000X0.237500X0*%
%TD*%
%TA.AperFunction,SMDPad,CuDef*%
%ADD28RoundRect,0.250000X-0.325000X-0.450000X0.325000X-0.450000X0.325000X0.450000X-0.325000X0.450000X0*%
%TD*%
%TA.AperFunction,SMDPad,CuDef*%
%ADD29RoundRect,0.150000X0.700000X-0.150000X0.700000X0.150000X-0.700000X0.150000X-0.700000X-0.150000X0*%
%TD*%
%TA.AperFunction,SMDPad,CuDef*%
%ADD30RoundRect,0.250000X1.150000X-0.250000X1.150000X0.250000X-1.150000X0.250000X-1.150000X-0.250000X0*%
%TD*%
%TA.AperFunction,SMDPad,CuDef*%
%ADD31RoundRect,0.237500X0.237500X-0.300000X0.237500X0.300000X-0.237500X0.300000X-0.237500X-0.300000X0*%
%TD*%
%TA.AperFunction,SMDPad,CuDef*%
%ADD32RoundRect,0.112500X-0.187500X-0.112500X0.187500X-0.112500X0.187500X0.112500X-0.187500X0.112500X0*%
%TD*%
%TA.AperFunction,SMDPad,CuDef*%
%ADD33RoundRect,0.150000X-0.150000X0.587500X-0.150000X-0.587500X0.150000X-0.587500X0.150000X0.587500X0*%
%TD*%
%TA.AperFunction,SMDPad,CuDef*%
%ADD34RoundRect,0.150000X-0.150000X0.512500X-0.150000X-0.512500X0.150000X-0.512500X0.150000X0.512500X0*%
%TD*%
%TA.AperFunction,ComponentPad*%
%ADD35C,0.700000*%
%TD*%
%TA.AperFunction,ComponentPad*%
%ADD36C,4.400000*%
%TD*%
%TA.AperFunction,ComponentPad*%
%ADD37C,2.000000*%
%TD*%
%TA.AperFunction,SMDPad,CuDef*%
%ADD38RoundRect,0.250001X-0.462499X-0.624999X0.462499X-0.624999X0.462499X0.624999X-0.462499X0.624999X0*%
%TD*%
%TA.AperFunction,SMDPad,CuDef*%
%ADD39RoundRect,0.237500X-0.237500X0.250000X-0.237500X-0.250000X0.237500X-0.250000X0.237500X0.250000X0*%
%TD*%
%TA.AperFunction,SMDPad,CuDef*%
%ADD40R,0.300000X1.600000*%
%TD*%
%TA.AperFunction,SMDPad,CuDef*%
%ADD41RoundRect,0.150000X0.150000X-0.512500X0.150000X0.512500X-0.150000X0.512500X-0.150000X-0.512500X0*%
%TD*%
%TA.AperFunction,SMDPad,CuDef*%
%ADD42RoundRect,0.237500X0.300000X0.237500X-0.300000X0.237500X-0.300000X-0.237500X0.300000X-0.237500X0*%
%TD*%
%TA.AperFunction,ViaPad*%
%ADD43C,0.600000*%
%TD*%
%TA.AperFunction,Conductor*%
%ADD44C,0.500000*%
%TD*%
%TA.AperFunction,Conductor*%
%ADD45C,0.150000*%
%TD*%
%TA.AperFunction,Conductor*%
%ADD46C,0.200000*%
%TD*%
%TA.AperFunction,Conductor*%
%ADD47C,0.300000*%
%TD*%
G04 APERTURE END LIST*
D10*
%TO.P,U5,1,3V3*%
%TO.N,+3V3*%
X139000000Y-83250000D03*
%TO.P,U5,2,EN*%
%TO.N,/ESP32_EN*%
X139000000Y-84750000D03*
%TO.P,U5,3,IO4*%
%TO.N,/BMP_INT*%
X139000000Y-86250000D03*
%TO.P,U5,4,IO5*%
%TO.N,/MAX_INT*%
X139000000Y-87750000D03*
%TO.P,U5,5,IO6*%
%TO.N,/LSM_INT1*%
X139000000Y-89250000D03*
%TO.P,U5,6,IO7*%
%TO.N,Net-(U5-IO7)*%
X139000000Y-90750000D03*
%TO.P,U5,7,IO8*%
%TO.N,Net-(U5-IO8)*%
X139000000Y-92250000D03*
%TO.P,U5,8,IO9*%
%TO.N,/BOOT_SEL_GPIO9*%
X139000000Y-93750000D03*
%TO.P,U5,9,GND*%
%TO.N,GND*%
X139000000Y-95250000D03*
%TO.P,U5,10,IO10*%
%TO.N,/USER_LED*%
X156500000Y-95250000D03*
%TO.P,U5,11,IO20/RXD*%
%TO.N,unconnected-(U5-IO20{slash}RXD-Pad11)*%
X156500000Y-93750000D03*
%TO.P,U5,12,IO21/TXD*%
%TO.N,unconnected-(U5-IO21{slash}TXD-Pad12)*%
X156500000Y-92250000D03*
%TO.P,U5,13,IO18*%
%TO.N,/USB_D-*%
X156500000Y-90750000D03*
%TO.P,U5,14,IO19*%
%TO.N,/USB_D+*%
X156500000Y-89250000D03*
%TO.P,U5,15,IO3*%
%TO.N,/I2C_SDA*%
X156500000Y-87750000D03*
%TO.P,U5,16,IO2*%
%TO.N,Net-(U5-IO2)*%
X156500000Y-86250000D03*
%TO.P,U5,17,IO1*%
%TO.N,/CURR_SENSE*%
X156500000Y-84750000D03*
%TO.P,U5,18,IO0*%
%TO.N,/VBATT_SENSE*%
X156500000Y-83250000D03*
D11*
%TO.P,U5,19,GND*%
%TO.N,GND*%
X147610000Y-88900000D03*
X147610000Y-90000000D03*
X148160000Y-88350000D03*
X148160000Y-89450000D03*
X148160000Y-90550000D03*
X148710000Y-88900000D03*
D12*
X148710000Y-89450000D03*
D11*
X148710000Y-90000000D03*
X149260000Y-88350000D03*
X149260000Y-89450000D03*
X149260000Y-90550000D03*
X149810000Y-88900000D03*
X149810000Y-90000000D03*
%TD*%
D13*
%TO.P,U4,1,IN*%
%TO.N,Net-(D3-K)*%
X157662500Y-113000000D03*
%TO.P,U4,2,GND*%
%TO.N,GND*%
X157662500Y-113950000D03*
%TO.P,U4,3,EN*%
%TO.N,Net-(U4-EN)*%
X157662500Y-114900000D03*
%TO.P,U4,4,NC*%
%TO.N,unconnected-(U4-NC-Pad4)*%
X159937500Y-114900000D03*
%TO.P,U4,5,OUT*%
%TO.N,+1V8*%
X159937500Y-113000000D03*
%TD*%
D14*
%TO.P,C7,1*%
%TO.N,+3V3*%
X135200000Y-83387500D03*
%TO.P,C7,2*%
%TO.N,GND*%
X135200000Y-85112500D03*
%TD*%
D15*
%TO.P,R16,1*%
%TO.N,Net-(R16-Pad1)*%
X160312500Y-86000000D03*
%TO.P,R16,2*%
%TO.N,/CURR_SENSE*%
X158487500Y-86000000D03*
%TD*%
D16*
%TO.P,U8,1,SDO/SA0*%
%TO.N,GND*%
X142487500Y-97500000D03*
%TO.P,U8,2,SDX*%
X142487500Y-98000000D03*
%TO.P,U8,3,SCX*%
X142487500Y-98500000D03*
%TO.P,U8,4,INT1*%
%TO.N,/LSM_INT1*%
X142487500Y-99000000D03*
D17*
%TO.P,U8,5,VDDIO*%
%TO.N,+3V3*%
X143150000Y-99162500D03*
%TO.P,U8,6,GND*%
%TO.N,GND*%
X143650000Y-99162500D03*
%TO.P,U8,7,GND*%
X144150000Y-99162500D03*
D16*
%TO.P,U8,8,VDD*%
%TO.N,+3V3*%
X144812500Y-99000000D03*
%TO.P,U8,9,INT2*%
%TO.N,/LSM_INT2*%
X144812500Y-98500000D03*
%TO.P,U8,10,NC*%
%TO.N,unconnected-(U8-NC-Pad10)*%
X144812500Y-98000000D03*
%TO.P,U8,11,NC*%
%TO.N,unconnected-(U8-NC-Pad11)*%
X144812500Y-97500000D03*
D17*
%TO.P,U8,12,CS*%
%TO.N,Net-(U8-CS)*%
X144150000Y-97337500D03*
%TO.P,U8,13,SCL*%
%TO.N,/I2C_SCL*%
X143650000Y-97337500D03*
%TO.P,U8,14,SDA*%
%TO.N,/I2C_SDA*%
X143150000Y-97337500D03*
%TD*%
D15*
%TO.P,R20,1*%
%TO.N,+BATT*%
X138912500Y-104700000D03*
%TO.P,R20,2*%
%TO.N,Net-(J3-Pin_1)*%
X137087500Y-104700000D03*
%TD*%
D18*
%TO.P,J1,A1,GND*%
%TO.N,GND*%
X144550000Y-115970000D03*
%TO.P,J1,A4,VBUS*%
%TO.N,+USB_VBUS*%
X145350000Y-115970000D03*
D19*
%TO.P,J1,A5,CC1*%
%TO.N,/USB_CC1*%
X146500000Y-115970000D03*
%TO.P,J1,A6,D+*%
%TO.N,Net-(J1-D+-PadA6)*%
X147500000Y-115970000D03*
%TO.P,J1,A7,D-*%
%TO.N,Net-(J1-D--PadA7)*%
X148000000Y-115970000D03*
%TO.P,J1,A8*%
%TO.N,N/C*%
X149000000Y-115970000D03*
D18*
%TO.P,J1,A9,VBUS*%
%TO.N,+USB_VBUS*%
X150150000Y-115970000D03*
%TO.P,J1,A12,GND*%
%TO.N,GND*%
X150950000Y-115970000D03*
%TO.P,J1,B1,GND*%
X150950000Y-115970000D03*
%TO.P,J1,B4,VBUS*%
%TO.N,+USB_VBUS*%
X150150000Y-115970000D03*
D19*
%TO.P,J1,B5,CC2*%
%TO.N,/USB_CC2*%
X149500000Y-115970000D03*
%TO.P,J1,B6,D+*%
%TO.N,Net-(J1-D+-PadA6)*%
X148500000Y-115970000D03*
%TO.P,J1,B7,D-*%
%TO.N,Net-(J1-D--PadA7)*%
X147000000Y-115970000D03*
%TO.P,J1,B8*%
%TO.N,N/C*%
X146000000Y-115970000D03*
D18*
%TO.P,J1,B9,VBUS*%
%TO.N,+USB_VBUS*%
X145350000Y-115970000D03*
%TO.P,J1,B12,GND*%
%TO.N,GND*%
X144550000Y-115970000D03*
D20*
%TO.P,J1,S1,SHIELD*%
X143430000Y-116545000D03*
D21*
X143430000Y-120725000D03*
D20*
X152070000Y-116545000D03*
D21*
X152070000Y-120725000D03*
%TD*%
D22*
%TO.P,TP8,1,1*%
%TO.N,/I2C_SDA*%
X159100000Y-100300000D03*
%TD*%
%TO.P,TP9,1,1*%
%TO.N,/I2C_SCL*%
X166000000Y-85750000D03*
%TD*%
D23*
%TO.P,U10,1,VDDIO*%
%TO.N,+1V8*%
X162700000Y-103550000D03*
%TO.P,U10,2,SCK*%
%TO.N,/I2C_SCL_1V8*%
X163200000Y-103550000D03*
D24*
%TO.P,U10,3,VSS*%
%TO.N,GND*%
X163737400Y-103262599D03*
%TO.P,U10,4,SDI*%
%TO.N,/I2C_SDA_1V8*%
X163737400Y-102762600D03*
%TO.P,U10,5,SDO*%
%TO.N,Net-(U10-SDO)*%
X163737400Y-102262601D03*
D23*
%TO.P,U10,6,CSB*%
%TO.N,+1V8*%
X163200000Y-101975200D03*
%TO.P,U10,7,INT*%
%TO.N,/BMP_INT*%
X162700000Y-101975200D03*
D24*
%TO.P,U10,8,VSS*%
%TO.N,GND*%
X162162600Y-102262601D03*
%TO.P,U10,9,VSS*%
X162162600Y-102762600D03*
%TO.P,U10,10,VDD*%
%TO.N,+1V8*%
X162162600Y-103262599D03*
%TD*%
D15*
%TO.P,R8,1*%
%TO.N,+USB_VBUSF*%
X147312500Y-104250000D03*
%TO.P,R8,2*%
%TO.N,GND*%
X145487500Y-104250000D03*
%TD*%
D25*
%TO.P,R6,1*%
%TO.N,Net-(U3-EN)*%
X139600000Y-114862500D03*
%TO.P,R6,2*%
%TO.N,Net-(D2-K)*%
X139600000Y-113037500D03*
%TD*%
D22*
%TO.P,TP15,1,1*%
%TO.N,/LSM_INT2*%
X156400000Y-100300000D03*
%TD*%
D15*
%TO.P,R12,1*%
%TO.N,Net-(U5-IO8)*%
X137012500Y-92150000D03*
%TO.P,R12,2*%
%TO.N,/I2C_SCL*%
X135187500Y-92150000D03*
%TD*%
D26*
%TO.P,C21,1*%
%TO.N,+1V8*%
X163837500Y-105362500D03*
%TO.P,C21,2*%
%TO.N,GND*%
X165562500Y-105362500D03*
%TD*%
D22*
%TO.P,TP12,1,1*%
%TO.N,/MAX_INT*%
X128000000Y-99600000D03*
%TD*%
D27*
%TO.P,R18,1*%
%TO.N,+BATT*%
X135400000Y-106700000D03*
%TO.P,R18,2*%
%TO.N,/VBATT_SENSE*%
X137225000Y-106700000D03*
%TD*%
D28*
%TO.P,D1,1,K*%
%TO.N,Net-(D1-K)*%
X152475000Y-103500000D03*
%TO.P,D1,2,A*%
%TO.N,Net-(D1-A)*%
X154525000Y-103500000D03*
%TD*%
D29*
%TO.P,J3,1,Pin_1*%
%TO.N,Net-(J3-Pin_1)*%
X132525000Y-105775000D03*
%TO.P,J3,2,Pin_2*%
%TO.N,GND*%
X132525000Y-104525000D03*
D30*
%TO.P,J3,MP*%
%TO.N,N/C*%
X129175000Y-107625000D03*
X129175000Y-102675000D03*
%TD*%
D25*
%TO.P,R2,1*%
%TO.N,+USB_VBUSF*%
X156600000Y-106962500D03*
%TO.P,R2,2*%
%TO.N,Net-(D1-A)*%
X156600000Y-105137500D03*
%TD*%
D31*
%TO.P,C15,1*%
%TO.N,+3V3*%
X146300000Y-99012500D03*
%TO.P,C15,2*%
%TO.N,GND*%
X146300000Y-97287500D03*
%TD*%
D22*
%TO.P,TP5,1,1*%
%TO.N,Net-(D3-K)*%
X156500000Y-109150000D03*
%TD*%
D31*
%TO.P,C22,1*%
%TO.N,+3V3*%
X134100000Y-111712500D03*
%TO.P,C22,2*%
%TO.N,GND*%
X134100000Y-109987500D03*
%TD*%
%TO.P,C3,1*%
%TO.N,+USB_VBUS*%
X145650000Y-109612500D03*
%TO.P,C3,2*%
%TO.N,GND*%
X145650000Y-107887500D03*
%TD*%
D22*
%TO.P,TP14,1,1*%
%TO.N,/LSM_INT1*%
X136000000Y-97600000D03*
%TD*%
D32*
%TO.P,D2,1,K*%
%TO.N,Net-(D2-K)*%
X141150000Y-109650000D03*
%TO.P,D2,2,A*%
%TO.N,+USB_VBUSF*%
X143250000Y-109650000D03*
%TD*%
D27*
%TO.P,R9,1*%
%TO.N,+3V3*%
X131487500Y-83250000D03*
%TO.P,R9,2*%
%TO.N,/ESP32_EN*%
X133312500Y-83250000D03*
%TD*%
D33*
%TO.P,Q2,1,G*%
%TO.N,+USB_VBUSF*%
X154150000Y-111812500D03*
%TO.P,Q2,2,S*%
%TO.N,Net-(D3-K)*%
X152250000Y-111812500D03*
%TO.P,Q2,3,D*%
%TO.N,+BATT*%
X153200000Y-113687500D03*
%TD*%
D22*
%TO.P,TP4,1,1*%
%TO.N,Net-(D2-K)*%
X128700000Y-111600000D03*
%TD*%
D14*
%TO.P,C24,1*%
%TO.N,+3V3*%
X139700000Y-100737500D03*
%TO.P,C24,2*%
%TO.N,GND*%
X139700000Y-102462500D03*
%TD*%
D27*
%TO.P,R3,1*%
%TO.N,Net-(U1-PROG)*%
X156600000Y-103450000D03*
%TO.P,R3,2*%
%TO.N,GND*%
X158425000Y-103450000D03*
%TD*%
D25*
%TO.P,R22,1*%
%TO.N,GND*%
X165200000Y-103662500D03*
%TO.P,R22,2*%
%TO.N,Net-(U10-SDO)*%
X165200000Y-101837500D03*
%TD*%
D34*
%TO.P,U3,1,IN*%
%TO.N,Net-(D2-K)*%
X137950000Y-112412500D03*
%TO.P,U3,2,GND*%
%TO.N,GND*%
X137000000Y-112412500D03*
%TO.P,U3,3,EN*%
%TO.N,Net-(U3-EN)*%
X136050000Y-112412500D03*
%TO.P,U3,4,NC*%
%TO.N,unconnected-(U3-NC-Pad4)*%
X136050000Y-114687500D03*
%TO.P,U3,5,OUT*%
%TO.N,+3V3*%
X137950000Y-114687500D03*
%TD*%
D35*
%TO.P,H2,1,1*%
%TO.N,GND*%
X164700000Y-119510000D03*
X165183274Y-118343274D03*
X165183274Y-120676726D03*
X166350000Y-117860000D03*
D36*
X166350000Y-119510000D03*
D35*
X166350000Y-121160000D03*
X167516726Y-118343274D03*
X167516726Y-120676726D03*
X168000000Y-119510000D03*
%TD*%
D13*
%TO.P,U1,1,STAT*%
%TO.N,Net-(D1-K)*%
X152212500Y-105650000D03*
%TO.P,U1,2,V_{SS}*%
%TO.N,GND*%
X152212500Y-106600000D03*
%TO.P,U1,3,V_{BAT}*%
%TO.N,+BATT*%
X152212500Y-107550000D03*
%TO.P,U1,4,V_{DD}*%
%TO.N,+USB_VBUSF*%
X154487500Y-107550000D03*
%TO.P,U1,5,PROG*%
%TO.N,Net-(U1-PROG)*%
X154487500Y-105650000D03*
%TD*%
D37*
%TO.P,SW1,1,1*%
%TO.N,GND*%
X134250000Y-117360000D03*
X140750000Y-117360000D03*
%TO.P,SW1,2,2*%
%TO.N,/ESP32_EN*%
X134250000Y-121860000D03*
X140750000Y-121860000D03*
%TD*%
D31*
%TO.P,C23,1*%
%TO.N,+1V8*%
X161200000Y-111312500D03*
%TO.P,C23,2*%
%TO.N,GND*%
X161200000Y-109587500D03*
%TD*%
D26*
%TO.P,C2,1*%
%TO.N,+USB_VBUSF*%
X158337500Y-106650000D03*
%TO.P,C2,2*%
%TO.N,GND*%
X160062500Y-106650000D03*
%TD*%
D38*
%TO.P,D4,1,K*%
%TO.N,GND*%
X153412500Y-97750000D03*
%TO.P,D4,2,A*%
%TO.N,Net-(D4-A)*%
X156387500Y-97750000D03*
%TD*%
D15*
%TO.P,R19,1*%
%TO.N,/VBATT_SENSE*%
X137212500Y-108300000D03*
%TO.P,R19,2*%
%TO.N,GND*%
X135387500Y-108300000D03*
%TD*%
D32*
%TO.P,D3,1,K*%
%TO.N,Net-(D3-K)*%
X152150000Y-109650000D03*
%TO.P,D3,2,A*%
%TO.N,+USB_VBUSF*%
X154250000Y-109650000D03*
%TD*%
D22*
%TO.P,TP19,1,1*%
%TO.N,/ESP32_EN*%
X133200000Y-87550000D03*
%TD*%
D33*
%TO.P,Q1,1,G*%
%TO.N,+USB_VBUSF*%
X143150000Y-111812500D03*
%TO.P,Q1,2,S*%
%TO.N,Net-(D2-K)*%
X141250000Y-111812500D03*
%TO.P,Q1,3,D*%
%TO.N,+BATT*%
X142200000Y-113687500D03*
%TD*%
D39*
%TO.P,R21,1*%
%TO.N,Net-(U8-CS)*%
X141000000Y-97287500D03*
%TO.P,R21,2*%
%TO.N,+3V3*%
X141000000Y-99112500D03*
%TD*%
D22*
%TO.P,TP11,1,1*%
%TO.N,Net-(R16-Pad1)*%
X168400000Y-84500000D03*
%TD*%
D26*
%TO.P,C13,1*%
%TO.N,+3V3*%
X161487500Y-95287500D03*
%TO.P,C13,2*%
%TO.N,GND*%
X163212500Y-95287500D03*
%TD*%
D40*
%TO.P,U6,1,B2*%
%TO.N,/I2C_SCL*%
X161350000Y-93312500D03*
%TO.P,U6,2,GND*%
%TO.N,GND*%
X162000000Y-93312500D03*
%TO.P,U6,3,VCCA*%
%TO.N,+1V8*%
X162650000Y-93312500D03*
%TO.P,U6,4,A2*%
%TO.N,/I2C_SCL_1V8*%
X163300000Y-93312500D03*
%TO.P,U6,5,A1*%
%TO.N,/I2C_SDA_1V8*%
X163300000Y-89912500D03*
%TO.P,U6,6,OE*%
%TO.N,+1V8*%
X162650000Y-89912500D03*
%TO.P,U6,7,VCCB*%
%TO.N,+3V3*%
X162000000Y-89912500D03*
%TO.P,U6,8,B1*%
%TO.N,/I2C_SDA*%
X161350000Y-89912500D03*
%TD*%
D15*
%TO.P,R10,1*%
%TO.N,Net-(U5-IO7)*%
X137012500Y-90450000D03*
%TO.P,R10,2*%
%TO.N,/LSM_INT2*%
X135187500Y-90450000D03*
%TD*%
D35*
%TO.P,H3,1,1*%
%TO.N,GND*%
X127150000Y-90200000D03*
X127633274Y-89033274D03*
X127633274Y-91366726D03*
X128800000Y-88550000D03*
D36*
X128800000Y-90200000D03*
D35*
X128800000Y-91850000D03*
X129966726Y-89033274D03*
X129966726Y-91366726D03*
X130450000Y-90200000D03*
%TD*%
D26*
%TO.P,C6,1*%
%TO.N,Net-(D3-K)*%
X157537500Y-111250000D03*
%TO.P,C6,2*%
%TO.N,GND*%
X159262500Y-111250000D03*
%TD*%
D22*
%TO.P,TP16,1,1*%
%TO.N,+USB_VBUS*%
X143400000Y-105550000D03*
%TD*%
D41*
%TO.P,U2,1,I/O1*%
%TO.N,Net-(J1-D--PadA7)*%
X146800000Y-113787500D03*
%TO.P,U2,2,GND*%
%TO.N,GND*%
X147750000Y-113787500D03*
%TO.P,U2,3,I/O2*%
%TO.N,Net-(J1-D+-PadA6)*%
X148700000Y-113787500D03*
%TO.P,U2,4,I/O2*%
%TO.N,/USB_D+*%
X148700000Y-111512500D03*
%TO.P,U2,5,VBUS*%
%TO.N,+USB_VBUS*%
X147750000Y-111512500D03*
%TO.P,U2,6,I/O1*%
%TO.N,/USB_D-*%
X146800000Y-111512500D03*
%TD*%
D22*
%TO.P,TP2,1,1*%
%TO.N,+3V3*%
X131300000Y-112150000D03*
%TD*%
%TO.P,TP17,1,1*%
%TO.N,+USB_VBUSF*%
X148600000Y-101650000D03*
%TD*%
D37*
%TO.P,SW2,1,1*%
%TO.N,GND*%
X154800000Y-117260000D03*
X161300000Y-117260000D03*
%TO.P,SW2,2,2*%
%TO.N,/BOOT_SEL_GPIO9*%
X154800000Y-121760000D03*
X161300000Y-121760000D03*
%TD*%
D22*
%TO.P,TP6,1,1*%
%TO.N,/I2C_SDA_1V8*%
X166400000Y-112350000D03*
%TD*%
D26*
%TO.P,C12,1*%
%TO.N,+3V3*%
X161462500Y-96962500D03*
%TO.P,C12,2*%
%TO.N,GND*%
X163187500Y-96962500D03*
%TD*%
D14*
%TO.P,C10,1*%
%TO.N,/BOOT_SEL_GPIO9*%
X137000000Y-93787500D03*
%TO.P,C10,2*%
%TO.N,GND*%
X137000000Y-95512500D03*
%TD*%
D26*
%TO.P,C20,1*%
%TO.N,+1V8*%
X163837500Y-107062500D03*
%TO.P,C20,2*%
%TO.N,GND*%
X165562500Y-107062500D03*
%TD*%
D42*
%TO.P,C9,1*%
%TO.N,/ESP32_EN*%
X133325000Y-85350000D03*
%TO.P,C9,2*%
%TO.N,GND*%
X131600000Y-85350000D03*
%TD*%
D14*
%TO.P,C8,1*%
%TO.N,+3V3*%
X137000000Y-83387500D03*
%TO.P,C8,2*%
%TO.N,GND*%
X137000000Y-85112500D03*
%TD*%
D25*
%TO.P,R13,1*%
%TO.N,Net-(D4-A)*%
X158300000Y-98075000D03*
%TO.P,R13,2*%
%TO.N,/USER_LED*%
X158300000Y-96250000D03*
%TD*%
D14*
%TO.P,C1,1*%
%TO.N,+BATT*%
X150450000Y-103587500D03*
%TO.P,C1,2*%
%TO.N,GND*%
X150450000Y-105312500D03*
%TD*%
D22*
%TO.P,TP7,1,1*%
%TO.N,/I2C_SCL_1V8*%
X166200000Y-109300000D03*
%TD*%
D39*
%TO.P,R1,1*%
%TO.N,+USB_VBUSF*%
X147250000Y-107837500D03*
%TO.P,R1,2*%
%TO.N,+USB_VBUS*%
X147250000Y-109662500D03*
%TD*%
D22*
%TO.P,TP1,1,1*%
%TO.N,+BATT*%
X133000000Y-100050000D03*
%TD*%
D13*
%TO.P,U7,1*%
%TO.N,Net-(R16-Pad1)*%
X135562500Y-100450000D03*
%TO.P,U7,2,GND*%
%TO.N,GND*%
X135562500Y-101400000D03*
%TO.P,U7,3,+*%
%TO.N,Net-(J3-Pin_1)*%
X135562500Y-102350000D03*
%TO.P,U7,4,-*%
%TO.N,+BATT*%
X137837500Y-102350000D03*
%TO.P,U7,5,V+*%
%TO.N,+3V3*%
X137837500Y-100450000D03*
%TD*%
D25*
%TO.P,R15,1*%
%TO.N,+3V3*%
X158400000Y-91012500D03*
%TO.P,R15,2*%
%TO.N,/USB_D+*%
X158400000Y-89187500D03*
%TD*%
D14*
%TO.P,C4,1*%
%TO.N,+USB_VBUSF*%
X148850000Y-107887500D03*
%TO.P,C4,2*%
%TO.N,GND*%
X148850000Y-109612500D03*
%TD*%
D31*
%TO.P,C11,1*%
%TO.N,+1V8*%
X163400000Y-88062500D03*
%TO.P,C11,2*%
%TO.N,GND*%
X163400000Y-86337500D03*
%TD*%
%TO.P,C14,1*%
%TO.N,+3V3*%
X149250000Y-99062500D03*
%TO.P,C14,2*%
%TO.N,GND*%
X149250000Y-97337500D03*
%TD*%
D42*
%TO.P,C5,1*%
%TO.N,Net-(D2-K)*%
X137862500Y-110550000D03*
%TO.P,C5,2*%
%TO.N,GND*%
X136137500Y-110550000D03*
%TD*%
D25*
%TO.P,R7,1*%
%TO.N,Net-(U4-EN)*%
X155800000Y-114862500D03*
%TO.P,R7,2*%
%TO.N,Net-(D3-K)*%
X155800000Y-113037500D03*
%TD*%
D22*
%TO.P,TP18,1,1*%
%TO.N,/BOOT_SEL_GPIO9*%
X133500000Y-95950000D03*
%TD*%
D35*
%TO.P,H1,1,1*%
%TO.N,GND*%
X127650000Y-119610000D03*
X128133274Y-118443274D03*
X128133274Y-120776726D03*
X129300000Y-117960000D03*
D36*
X129300000Y-119610000D03*
D35*
X129300000Y-121260000D03*
X130466726Y-118443274D03*
X130466726Y-120776726D03*
X130950000Y-119610000D03*
%TD*%
D27*
%TO.P,R11,1*%
%TO.N,+3V3*%
X132087500Y-93850000D03*
%TO.P,R11,2*%
%TO.N,/BOOT_SEL_GPIO9*%
X133912500Y-93850000D03*
%TD*%
D22*
%TO.P,TP10,1,1*%
%TO.N,/VBATT_SENSE*%
X159300000Y-83850000D03*
%TD*%
%TO.P,TP13,1,1*%
%TO.N,/BMP_INT*%
X164550000Y-98950000D03*
%TD*%
%TO.P,TP3,1,1*%
%TO.N,+1V8*%
X163700000Y-112150000D03*
%TD*%
D43*
%TO.N,+BATT*%
X140400000Y-105100000D03*
X137200000Y-103500000D03*
X153000000Y-102200000D03*
X154300000Y-115100000D03*
%TO.N,GND*%
X142500000Y-95800000D03*
X150000000Y-109900000D03*
X145600000Y-112200000D03*
X167700000Y-104300000D03*
X128200000Y-85400000D03*
X130025000Y-105025000D03*
X147325000Y-102925000D03*
X142500000Y-107900000D03*
X162600000Y-98400000D03*
X160100000Y-105300000D03*
X140300000Y-95300000D03*
X154275000Y-90200000D03*
X151750000Y-98100000D03*
X133775000Y-108300000D03*
X150700000Y-106500000D03*
X137000000Y-88600000D03*
X163700000Y-85000000D03*
%TO.N,+USB_VBUSF*%
X144200000Y-109500000D03*
%TO.N,+USB_VBUS*%
X144700000Y-110562500D03*
%TO.N,Net-(D2-K)*%
X137800000Y-109500000D03*
%TO.N,+3V3*%
X128300000Y-83300000D03*
X140700000Y-83300000D03*
X141800000Y-95000000D03*
X151750000Y-99700000D03*
X127300000Y-95000000D03*
X162000000Y-88200000D03*
X150400000Y-84600000D03*
X135400000Y-99200000D03*
X158500000Y-94600000D03*
X161400000Y-99400000D03*
%TO.N,+1V8*%
X166550000Y-92800000D03*
X167000000Y-87300000D03*
%TO.N,/USB_CC2*%
X149500000Y-117000000D03*
%TO.N,/USB_CC1*%
X146500000Y-117000000D03*
%TO.N,/VBATT_SENSE*%
X141300000Y-107900000D03*
X140600000Y-92200000D03*
%TO.N,/I2C_SCL*%
X134000000Y-92200000D03*
X143700000Y-95500000D03*
X160200000Y-92150003D03*
X167200000Y-92100000D03*
%TO.N,/I2C_SDA*%
X143000000Y-94800000D03*
X142900000Y-92300000D03*
%TO.N,/I2C_SCL_1V8*%
X162500000Y-104525735D03*
X164700000Y-94200000D03*
%TO.N,/I2C_SDA_1V8*%
X166000000Y-94100000D03*
X167700000Y-102750000D03*
%TO.N,/LSM_INT2*%
X147300000Y-100000000D03*
X133900000Y-91400000D03*
%TO.N,/LSM_INT1*%
X136886863Y-89391962D03*
%TO.N,/MAX_INT*%
X145200000Y-93100000D03*
X140200000Y-87800000D03*
%TO.N,/BMP_INT*%
X153300000Y-86250000D03*
%TO.N,/USB_D-*%
X154525000Y-91425000D03*
X145700000Y-111000000D03*
%TO.N,/USB_D+*%
X155125000Y-89600000D03*
X149800000Y-111000000D03*
%TO.N,Net-(R16-Pad1)*%
X162700000Y-84300000D03*
X134500000Y-99200000D03*
X142100000Y-91100000D03*
%TO.N,Net-(U5-IO2)*%
X155100000Y-84800000D03*
%TD*%
D44*
%TO.N,+BATT*%
X142500000Y-118800000D02*
X152000000Y-118800000D01*
D45*
X137837500Y-103437500D02*
X137837500Y-102350000D01*
D44*
X154300000Y-115100000D02*
X153200000Y-115100000D01*
X149803864Y-103587500D02*
X150450000Y-103587500D01*
X152000000Y-118800000D02*
X153200000Y-117600000D01*
X153200000Y-115100000D02*
X153200000Y-113687500D01*
X149100000Y-104291364D02*
X149803864Y-103587500D01*
X153200000Y-117600000D02*
X153200000Y-115100000D01*
X140000000Y-104700000D02*
X140400000Y-105100000D01*
X153000000Y-102200000D02*
X150800000Y-102200000D01*
D45*
X138912500Y-104700000D02*
X138912500Y-103912500D01*
X138912500Y-104700000D02*
X138912500Y-105487500D01*
X137775000Y-103500000D02*
X137200000Y-103500000D01*
X135400000Y-106300000D02*
X135400000Y-106700000D01*
D44*
X150800000Y-102200000D02*
X150450000Y-102550000D01*
D45*
X138912500Y-103912500D02*
X138700000Y-103700000D01*
D44*
X142200000Y-113687500D02*
X142200000Y-118500000D01*
X149100000Y-106200000D02*
X149100000Y-104291364D01*
D45*
X138700000Y-105700000D02*
X136000000Y-105700000D01*
D44*
X150450000Y-107550000D02*
X149100000Y-106200000D01*
X142200000Y-118500000D02*
X142500000Y-118800000D01*
X152212500Y-107550000D02*
X150450000Y-107550000D01*
D45*
X137837500Y-103437500D02*
X137775000Y-103500000D01*
D44*
X138912500Y-104700000D02*
X140000000Y-104700000D01*
D45*
X138700000Y-103700000D02*
X138100000Y-103700000D01*
X136000000Y-105700000D02*
X135400000Y-106300000D01*
X138100000Y-103700000D02*
X137837500Y-103437500D01*
D44*
X150450000Y-102550000D02*
X150450000Y-103587500D01*
D45*
X138912500Y-105487500D02*
X138700000Y-105700000D01*
D46*
%TO.N,GND*%
X160000000Y-103450000D02*
X160950000Y-103450000D01*
D44*
X146300000Y-97287500D02*
X149200000Y-97287500D01*
X165562500Y-105362500D02*
X166637500Y-105362500D01*
X131600000Y-85350000D02*
X128250000Y-85350000D01*
D45*
X135387500Y-109800000D02*
X135575000Y-109987500D01*
D47*
X139700000Y-102400000D02*
X138700000Y-101400000D01*
D46*
X160000000Y-103450000D02*
X160000000Y-105200000D01*
D44*
X151800000Y-97337500D02*
X151800000Y-98050000D01*
D46*
X143650000Y-99162500D02*
X143650000Y-98750000D01*
X142487500Y-97500000D02*
X142487500Y-95812500D01*
D44*
X132525000Y-102075000D02*
X132525000Y-104525000D01*
X132525000Y-104525000D02*
X130525000Y-104525000D01*
X159812500Y-109587500D02*
X160000000Y-109587500D01*
X160000000Y-109587500D02*
X161200000Y-109587500D01*
X150450000Y-106250000D02*
X150700000Y-106500000D01*
D47*
X163400000Y-86337500D02*
X163400000Y-85300000D01*
D46*
X143650000Y-98750000D02*
X143400000Y-98500000D01*
D44*
X144005000Y-115970000D02*
X143430000Y-116545000D01*
X139000000Y-95250000D02*
X140250000Y-95250000D01*
X147203100Y-112674000D02*
X147750000Y-113220900D01*
X133200000Y-101400000D02*
X132525000Y-102075000D01*
D46*
X161637400Y-102762600D02*
X162162600Y-102762600D01*
X163737400Y-103262599D02*
X163737400Y-103337400D01*
D44*
X150800000Y-106600000D02*
X150700000Y-106500000D01*
X151495000Y-115970000D02*
X152070000Y-116545000D01*
X151800000Y-98050000D02*
X151750000Y-98100000D01*
D47*
X150000000Y-109900000D02*
X149900000Y-109900000D01*
D44*
X149250000Y-97337500D02*
X151800000Y-97337500D01*
X145650000Y-107887500D02*
X145650000Y-104412500D01*
X159262500Y-111250000D02*
X159262500Y-110137500D01*
D47*
X149600000Y-109600000D02*
X149425000Y-109600000D01*
X162875000Y-95287500D02*
X163212500Y-95287500D01*
D46*
X160950000Y-103450000D02*
X161637400Y-102762600D01*
D44*
X137000000Y-85112500D02*
X137000000Y-88600000D01*
D47*
X160062500Y-105337500D02*
X160100000Y-105300000D01*
D46*
X144150000Y-99162500D02*
X144150000Y-98650000D01*
D44*
X146074000Y-112674000D02*
X147203100Y-112674000D01*
X163212500Y-96937500D02*
X163187500Y-96962500D01*
D47*
X149425000Y-109600000D02*
X149412500Y-109612500D01*
D44*
X135575000Y-109987500D02*
X136137500Y-110550000D01*
X130525000Y-104525000D02*
X130025000Y-105025000D01*
X149200000Y-97287500D02*
X149250000Y-97337500D01*
X142512500Y-107887500D02*
X142500000Y-107900000D01*
X140250000Y-95250000D02*
X140300000Y-95300000D01*
D46*
X163737400Y-103337400D02*
X164062500Y-103662500D01*
D44*
X151800000Y-97337500D02*
X153000000Y-97337500D01*
D45*
X135387500Y-108300000D02*
X135387500Y-109800000D01*
D44*
X144550000Y-115970000D02*
X144005000Y-115970000D01*
D47*
X158800000Y-113474999D02*
X158800000Y-111712500D01*
D44*
X145650000Y-107887500D02*
X142512500Y-107887500D01*
X135200000Y-85112500D02*
X137000000Y-85112500D01*
X163187500Y-96962500D02*
X163187500Y-97812500D01*
X160062500Y-106650000D02*
X160062500Y-109525000D01*
X166637500Y-105362500D02*
X167700000Y-104300000D01*
D47*
X149900000Y-109900000D02*
X149600000Y-109600000D01*
D46*
X142487500Y-95812500D02*
X142500000Y-95800000D01*
D47*
X162000000Y-94412500D02*
X162875000Y-95287500D01*
D44*
X152212500Y-106600000D02*
X150800000Y-106600000D01*
D46*
X142487500Y-98000000D02*
X142487500Y-97500000D01*
X162162600Y-102762600D02*
X162162600Y-102262601D01*
D44*
X135387500Y-108300000D02*
X133775000Y-108300000D01*
X145650000Y-104412500D02*
X145487500Y-104250000D01*
X128250000Y-85350000D02*
X128200000Y-85400000D01*
D46*
X143400000Y-98500000D02*
X142487500Y-98500000D01*
X164062500Y-103662500D02*
X165200000Y-103662500D01*
D44*
X134100000Y-109987500D02*
X135575000Y-109987500D01*
D47*
X162000000Y-93312500D02*
X162000000Y-94412500D01*
D44*
X159262500Y-110137500D02*
X159812500Y-109587500D01*
X160062500Y-109525000D02*
X160000000Y-109587500D01*
D46*
X160000000Y-105200000D02*
X160100000Y-105300000D01*
D47*
X158800000Y-111712500D02*
X159262500Y-111250000D01*
X137000000Y-112412500D02*
X137000000Y-111412500D01*
X158324999Y-113950000D02*
X158800000Y-113474999D01*
D46*
X144150000Y-98650000D02*
X144000000Y-98500000D01*
D44*
X163212500Y-95287500D02*
X163212500Y-96937500D01*
X165562500Y-105362500D02*
X165562500Y-107062500D01*
D46*
X158425000Y-103450000D02*
X160000000Y-103450000D01*
D47*
X163400000Y-85300000D02*
X163700000Y-85000000D01*
D46*
X142487500Y-98500000D02*
X142487500Y-98000000D01*
D44*
X165562500Y-105362500D02*
X165562500Y-104025000D01*
X147750000Y-113220900D02*
X147750000Y-113787500D01*
D46*
X144000000Y-98500000D02*
X143400000Y-98500000D01*
D44*
X145600000Y-112200000D02*
X146074000Y-112674000D01*
X163187500Y-97812500D02*
X162600000Y-98400000D01*
D47*
X149412500Y-109612500D02*
X148850000Y-109612500D01*
X138700000Y-101400000D02*
X135562500Y-101400000D01*
X157662500Y-113950000D02*
X158324999Y-113950000D01*
X160062500Y-106650000D02*
X160062500Y-105337500D01*
X137000000Y-111412500D02*
X136137500Y-110550000D01*
D44*
X137000000Y-95512500D02*
X138737500Y-95512500D01*
D47*
X139700000Y-102462500D02*
X139700000Y-102400000D01*
D44*
X150450000Y-105312500D02*
X150450000Y-106250000D01*
X150950000Y-115970000D02*
X151495000Y-115970000D01*
X165562500Y-104025000D02*
X165200000Y-103662500D01*
X135562500Y-101400000D02*
X133200000Y-101400000D01*
X138737500Y-95512500D02*
X139000000Y-95250000D01*
X153000000Y-97337500D02*
X153412500Y-97750000D01*
%TO.N,+USB_VBUSF*%
X154150000Y-111812500D02*
X154150000Y-109750000D01*
X148600000Y-103800000D02*
X148600000Y-101650000D01*
X143250000Y-111712500D02*
X143150000Y-111812500D01*
X151500000Y-108900000D02*
X153800000Y-108900000D01*
X147250000Y-104312500D02*
X147312500Y-104250000D01*
X154487500Y-107550000D02*
X154487500Y-107112500D01*
X147312500Y-104250000D02*
X148150000Y-104250000D01*
X149262500Y-108300000D02*
X150900000Y-108300000D01*
X154250000Y-109350000D02*
X154250000Y-109650000D01*
X153800000Y-108900000D02*
X154400000Y-108900000D01*
X154500000Y-108800000D02*
X154487500Y-108787500D01*
X144050000Y-109650000D02*
X144200000Y-109500000D01*
X148800000Y-107837500D02*
X148850000Y-107887500D01*
X150900000Y-108300000D02*
X151500000Y-108900000D01*
X143250000Y-109650000D02*
X144050000Y-109650000D01*
X153800000Y-108900000D02*
X154250000Y-109350000D01*
X148150000Y-104250000D02*
X148600000Y-103800000D01*
X148850000Y-107887500D02*
X149262500Y-108300000D01*
X154150000Y-109750000D02*
X154250000Y-109650000D01*
X154487500Y-107112500D02*
X154637500Y-106962500D01*
X147250000Y-107837500D02*
X148800000Y-107837500D01*
X158025000Y-106962500D02*
X158337500Y-106650000D01*
X154400000Y-108900000D02*
X154500000Y-108800000D01*
X154487500Y-108787500D02*
X154487500Y-107550000D01*
X143250000Y-109650000D02*
X143250000Y-111712500D01*
X154637500Y-106962500D02*
X156600000Y-106962500D01*
X147250000Y-107837500D02*
X147250000Y-104312500D01*
X156600000Y-106962500D02*
X158025000Y-106962500D01*
%TO.N,+USB_VBUS*%
X147200000Y-109612500D02*
X147250000Y-109662500D01*
X148201001Y-112626000D02*
X147750000Y-112174999D01*
X149055100Y-112626000D02*
X148201001Y-112626000D01*
X150150000Y-113720900D02*
X149055100Y-112626000D01*
X150150000Y-115970000D02*
X150150000Y-113720900D01*
X144700000Y-110562500D02*
X145650000Y-109612500D01*
X147250000Y-109662500D02*
X147750000Y-110162500D01*
X145650000Y-109612500D02*
X147200000Y-109612500D01*
X145301000Y-115291900D02*
X144700000Y-114690900D01*
X147750000Y-112174999D02*
X147750000Y-111512500D01*
X145301000Y-115921000D02*
X145301000Y-115291900D01*
X147750000Y-110162500D02*
X147750000Y-111512500D01*
X144700000Y-114690900D02*
X144700000Y-110562500D01*
X145350000Y-115970000D02*
X145301000Y-115921000D01*
D47*
%TO.N,Net-(D2-K)*%
X137862500Y-110550000D02*
X137862500Y-112325000D01*
X137862500Y-109562500D02*
X137800000Y-109500000D01*
X139600000Y-113037500D02*
X141062500Y-113037500D01*
X141250000Y-112850000D02*
X141250000Y-111812500D01*
X137862500Y-112325000D02*
X137950000Y-112412500D01*
X138975000Y-112412500D02*
X139600000Y-113037500D01*
D44*
X141150000Y-111712500D02*
X141250000Y-111812500D01*
X141150000Y-109650000D02*
X141150000Y-111712500D01*
D47*
X141062500Y-113037500D02*
X141250000Y-112850000D01*
X137862500Y-110550000D02*
X137862500Y-109562500D01*
X137950000Y-112412500D02*
X138975000Y-112412500D01*
D45*
%TO.N,Net-(D3-K)*%
X152250000Y-111812500D02*
X152712500Y-111812500D01*
X153937500Y-113037500D02*
X155800000Y-113037500D01*
D44*
X155800000Y-113037500D02*
X157625000Y-113037500D01*
D47*
X156500000Y-111000000D02*
X156500000Y-109150000D01*
D44*
X157625000Y-113037500D02*
X157662500Y-113000000D01*
X152150000Y-111712500D02*
X152250000Y-111812500D01*
X157662500Y-111375000D02*
X157537500Y-111250000D01*
D47*
X156750000Y-111250000D02*
X156500000Y-111000000D01*
X157537500Y-111250000D02*
X156750000Y-111250000D01*
D44*
X157662500Y-113000000D02*
X157662500Y-111375000D01*
D45*
X152712500Y-111812500D02*
X153937500Y-113037500D01*
D44*
X152150000Y-109650000D02*
X152150000Y-111712500D01*
%TO.N,+3V3*%
X135300000Y-116100000D02*
X137200000Y-116100000D01*
D47*
X140662500Y-100737500D02*
X141000000Y-100400000D01*
D44*
X149900000Y-99700000D02*
X151750000Y-99700000D01*
X161462500Y-96962500D02*
X161462500Y-99337500D01*
D46*
X141000000Y-99700000D02*
X141100000Y-99800000D01*
X144600000Y-99800000D02*
X144812500Y-99587500D01*
D47*
X158400000Y-94500000D02*
X158500000Y-94600000D01*
D44*
X139000000Y-83250000D02*
X137137500Y-83250000D01*
X149250000Y-99062500D02*
X149262500Y-99062500D01*
X149200000Y-99012500D02*
X149250000Y-99062500D01*
X132087500Y-93850000D02*
X128450000Y-93850000D01*
X146300000Y-99012500D02*
X149200000Y-99012500D01*
D46*
X141100000Y-99800000D02*
X142800000Y-99800000D01*
D47*
X158400000Y-91012500D02*
X158400000Y-94500000D01*
D44*
X140650000Y-83250000D02*
X140700000Y-83300000D01*
X128450000Y-93850000D02*
X127300000Y-95000000D01*
X137950000Y-115349999D02*
X137950000Y-114687500D01*
X133662500Y-112150000D02*
X134100000Y-111712500D01*
X161462500Y-99337500D02*
X161400000Y-99400000D01*
D47*
X162000000Y-89912500D02*
X162000000Y-88200000D01*
X137837500Y-100450000D02*
X139412500Y-100450000D01*
D44*
X133662500Y-112150000D02*
X133662500Y-114462500D01*
X149262500Y-99062500D02*
X149900000Y-99700000D01*
D46*
X141000000Y-99112500D02*
X141000000Y-99700000D01*
D44*
X133662500Y-114462500D02*
X135300000Y-116100000D01*
D46*
X142800000Y-99800000D02*
X143150000Y-99450000D01*
D44*
X128350000Y-83250000D02*
X128300000Y-83300000D01*
X137000000Y-83387500D02*
X135200000Y-83387500D01*
D46*
X142800000Y-99800000D02*
X144600000Y-99800000D01*
D47*
X139412500Y-100450000D02*
X139700000Y-100737500D01*
D44*
X131300000Y-112150000D02*
X133662500Y-112150000D01*
X137137500Y-83250000D02*
X137000000Y-83387500D01*
X131487500Y-83250000D02*
X128350000Y-83250000D01*
D47*
X139700000Y-100737500D02*
X140662500Y-100737500D01*
D44*
X161487500Y-95287500D02*
X161487500Y-96937500D01*
X161487500Y-96937500D02*
X161462500Y-96962500D01*
X141000000Y-99112500D02*
X135487500Y-99112500D01*
D46*
X144812500Y-99587500D02*
X144812500Y-99000000D01*
D47*
X141000000Y-100400000D02*
X141000000Y-99112500D01*
D44*
X135487500Y-99112500D02*
X135400000Y-99200000D01*
X139000000Y-83250000D02*
X140650000Y-83250000D01*
X137200000Y-116100000D02*
X137950000Y-115349999D01*
D46*
X143150000Y-99450000D02*
X143150000Y-99162500D01*
D44*
%TO.N,+1V8*%
X161750000Y-112150000D02*
X163700000Y-112150000D01*
D46*
X162162600Y-103262599D02*
X161700000Y-103725199D01*
X162262500Y-105362500D02*
X163837500Y-105362500D01*
D44*
X163837500Y-112012500D02*
X163700000Y-112150000D01*
D47*
X162650000Y-89912500D02*
X162650000Y-88475000D01*
X166550000Y-88125000D02*
X166362500Y-87937500D01*
D44*
X163837500Y-107062500D02*
X163837500Y-105362500D01*
D47*
X166550000Y-92800000D02*
X166550000Y-88125000D01*
D44*
X161200000Y-112700000D02*
X161750000Y-112150000D01*
D47*
X162650000Y-88475000D02*
X163187500Y-87937500D01*
D46*
X161700000Y-103725199D02*
X161700000Y-104800000D01*
D47*
X163300000Y-88050000D02*
X163187500Y-87937500D01*
D46*
X163200000Y-101975200D02*
X163200000Y-102700000D01*
D47*
X162650000Y-89912500D02*
X162650000Y-93312500D01*
D46*
X162525000Y-103375000D02*
X162700000Y-103550000D01*
D44*
X161200000Y-112700000D02*
X161200000Y-111312500D01*
X159937500Y-113000000D02*
X160900000Y-113000000D01*
D46*
X162412599Y-103262599D02*
X162525000Y-103375000D01*
D44*
X160900000Y-113000000D02*
X161200000Y-112700000D01*
D46*
X163200000Y-102700000D02*
X162525000Y-103375000D01*
D47*
X163187500Y-87937500D02*
X166362500Y-87937500D01*
X166362500Y-87937500D02*
X167000000Y-87300000D01*
D46*
X161700000Y-104800000D02*
X162262500Y-105362500D01*
X162162600Y-103262599D02*
X162412599Y-103262599D01*
D44*
X163837500Y-107062500D02*
X163837500Y-112012500D01*
D47*
%TO.N,/BOOT_SEL_GPIO9*%
X137000000Y-93787500D02*
X138962500Y-93787500D01*
X133912500Y-93850000D02*
X133912500Y-95537500D01*
X136937500Y-93850000D02*
X137000000Y-93787500D01*
D44*
X154800000Y-121760000D02*
X161300000Y-121760000D01*
D47*
X133912500Y-93850000D02*
X136937500Y-93850000D01*
X133912500Y-95537500D02*
X133500000Y-95950000D01*
X138962500Y-93787500D02*
X139000000Y-93750000D01*
D46*
%TO.N,/ESP32_EN*%
X138524000Y-84274000D02*
X139000000Y-84750000D01*
X127450000Y-87550000D02*
X126349000Y-88651000D01*
X133510000Y-122600000D02*
X134250000Y-121860000D01*
X133312500Y-84300000D02*
X133312500Y-85337500D01*
X133312500Y-84300000D02*
X133338500Y-84274000D01*
D44*
X134250000Y-121860000D02*
X140750000Y-121860000D01*
D46*
X133338500Y-84274000D02*
X138524000Y-84274000D01*
X133325000Y-85350000D02*
X133325000Y-85625000D01*
X126349000Y-121349000D02*
X127600000Y-122600000D01*
X133325000Y-85625000D02*
X133200000Y-85750000D01*
X133312500Y-83250000D02*
X133312500Y-84300000D01*
X126349000Y-88651000D02*
X126349000Y-121349000D01*
X127600000Y-122600000D02*
X133510000Y-122600000D01*
X133200000Y-87550000D02*
X127450000Y-87550000D01*
X133200000Y-85750000D02*
X133200000Y-87550000D01*
X133312500Y-85337500D02*
X133325000Y-85350000D01*
D47*
%TO.N,Net-(D1-K)*%
X152475000Y-103500000D02*
X152475000Y-105387500D01*
X152475000Y-105387500D02*
X152212500Y-105650000D01*
%TO.N,Net-(D1-A)*%
X154525000Y-103500000D02*
X153300000Y-104725000D01*
X153300000Y-105900000D02*
X153761500Y-106361500D01*
X153761500Y-106361500D02*
X155874654Y-106361500D01*
X153300000Y-104725000D02*
X153300000Y-105900000D01*
X155874654Y-106361500D02*
X156600000Y-105636154D01*
X156600000Y-105636154D02*
X156600000Y-105137500D01*
D44*
%TO.N,Net-(D4-A)*%
X156387500Y-97750000D02*
X157975000Y-97750000D01*
X157975000Y-97750000D02*
X158300000Y-98075000D01*
D46*
%TO.N,Net-(J1-D--PadA7)*%
X147000000Y-115970000D02*
X147000000Y-116578824D01*
X147267176Y-116846000D02*
X147732824Y-116846000D01*
X148000000Y-116578824D02*
X148000000Y-115970000D01*
X147000000Y-116578824D02*
X147267176Y-116846000D01*
X147000000Y-115970000D02*
X147000000Y-115361176D01*
X147732824Y-116846000D02*
X148000000Y-116578824D01*
X146800000Y-115161176D02*
X146800000Y-113787500D01*
X147000000Y-115361176D02*
X146800000Y-115161176D01*
%TO.N,/USB_CC2*%
X149500000Y-115970000D02*
X149500000Y-117000000D01*
%TO.N,Net-(J1-D+-PadA6)*%
X148232824Y-115094000D02*
X148500000Y-115361176D01*
X147767176Y-115094000D02*
X148232824Y-115094000D01*
X148500000Y-115361176D02*
X148500000Y-115970000D01*
X147500000Y-115970000D02*
X147500000Y-115361176D01*
X148700000Y-114626824D02*
X148700000Y-113787500D01*
X148232824Y-115094000D02*
X148700000Y-114626824D01*
X147500000Y-115361176D02*
X147767176Y-115094000D01*
%TO.N,/USB_CC1*%
X146500000Y-115970000D02*
X146500000Y-117000000D01*
D44*
%TO.N,Net-(U4-EN)*%
X155800000Y-114862500D02*
X157625000Y-114862500D01*
X157625000Y-114862500D02*
X157662500Y-114900000D01*
D45*
%TO.N,/VBATT_SENSE*%
X137225000Y-108287500D02*
X137212500Y-108300000D01*
X137225000Y-106700000D02*
X137225000Y-108287500D01*
D47*
X156500000Y-83250000D02*
X158700000Y-83250000D01*
X158700000Y-83250000D02*
X159300000Y-83850000D01*
D45*
X137225000Y-106700000D02*
X140100000Y-106700000D01*
X140100000Y-106700000D02*
X141300000Y-107900000D01*
%TO.N,/I2C_SCL*%
X161300000Y-92100000D02*
X160250003Y-92100000D01*
X161350000Y-92150000D02*
X161300000Y-92100000D01*
X160250003Y-92100000D02*
X160200000Y-92150003D01*
D46*
X143650000Y-95550000D02*
X143700000Y-95500000D01*
D47*
X135187500Y-92150000D02*
X134050000Y-92150000D01*
X166950000Y-85750000D02*
X166000000Y-85750000D01*
X134050000Y-92150000D02*
X134000000Y-92200000D01*
D45*
X161350000Y-93312500D02*
X161350000Y-92150000D01*
D47*
X167900000Y-86700000D02*
X166950000Y-85750000D01*
X167200000Y-92100000D02*
X167900000Y-91400000D01*
X167900000Y-91400000D02*
X167900000Y-86700000D01*
D46*
X143650000Y-97337500D02*
X143650000Y-95550000D01*
%TO.N,/I2C_SDA*%
X142900000Y-92300000D02*
X142900000Y-88200000D01*
X143100000Y-97287500D02*
X143150000Y-97337500D01*
D45*
X160900000Y-91400000D02*
X161350000Y-90950000D01*
X161350000Y-90950000D02*
X161350000Y-89912500D01*
X159100000Y-100300000D02*
X160300000Y-99100000D01*
X161350000Y-88150000D02*
X160950000Y-87750000D01*
D46*
X155000000Y-87200000D02*
X155550000Y-87750000D01*
D45*
X160300000Y-93100000D02*
X159500000Y-92300000D01*
X160950000Y-87750000D02*
X156500000Y-87750000D01*
X159500000Y-92300000D02*
X159500000Y-91600000D01*
X160300000Y-99100000D02*
X160300000Y-93100000D01*
D46*
X155550000Y-87750000D02*
X156500000Y-87750000D01*
D45*
X159500000Y-91600000D02*
X159700000Y-91400000D01*
D46*
X143900000Y-87200000D02*
X155000000Y-87200000D01*
D45*
X159700000Y-91400000D02*
X160900000Y-91400000D01*
D46*
X142900000Y-88200000D02*
X143900000Y-87200000D01*
X143000000Y-94800000D02*
X143100000Y-94900000D01*
D45*
X161350000Y-89912500D02*
X161350000Y-88150000D01*
D46*
X143100000Y-94900000D02*
X143100000Y-97287500D01*
D44*
%TO.N,/USER_LED*%
X158300000Y-96250000D02*
X158300000Y-95600000D01*
X157950000Y-95250000D02*
X156500000Y-95250000D01*
X158300000Y-95600000D02*
X157950000Y-95250000D01*
D46*
%TO.N,/I2C_SCL_1V8*%
X164700000Y-93475000D02*
X164537500Y-93312500D01*
D47*
X162500000Y-104525735D02*
X162762600Y-104525735D01*
X163200000Y-104088335D02*
X163200000Y-103550000D01*
D46*
X164537500Y-93312500D02*
X163300000Y-93312500D01*
D47*
X162762600Y-104525735D02*
X163200000Y-104088335D01*
D46*
X164700000Y-94200000D02*
X164700000Y-93475000D01*
%TO.N,/I2C_SDA_1V8*%
X166000000Y-90200000D02*
X165712500Y-89912500D01*
X166000000Y-94100000D02*
X166000000Y-90200000D01*
X165712500Y-89912500D02*
X163300000Y-89912500D01*
X163737400Y-102762600D02*
X167687400Y-102762600D01*
X167687400Y-102762600D02*
X167700000Y-102750000D01*
%TO.N,/LSM_INT2*%
X145400000Y-98600000D02*
X145500000Y-98700000D01*
X134050000Y-90450000D02*
X135187500Y-90450000D01*
X145500000Y-99900000D02*
X145600000Y-100000000D01*
X133900000Y-90600000D02*
X134050000Y-90450000D01*
X145600000Y-100000000D02*
X147300000Y-100000000D01*
X144812500Y-98500000D02*
X145300000Y-98500000D01*
X133900000Y-91400000D02*
X133900000Y-90600000D01*
X145500000Y-98700000D02*
X145500000Y-99900000D01*
X145300000Y-98500000D02*
X145400000Y-98600000D01*
%TO.N,/LSM_INT1*%
X141476000Y-98076000D02*
X136476000Y-98076000D01*
X141800000Y-98700000D02*
X141800000Y-98400000D01*
X142100000Y-99000000D02*
X141800000Y-98700000D01*
X142487500Y-99000000D02*
X142100000Y-99000000D01*
X136886863Y-89391962D02*
X137028825Y-89250000D01*
X137028825Y-89250000D02*
X139000000Y-89250000D01*
X136476000Y-98076000D02*
X136000000Y-97600000D01*
X141800000Y-98400000D02*
X141476000Y-98076000D01*
D47*
%TO.N,/MAX_INT*%
X142779346Y-93100000D02*
X140200000Y-90520654D01*
X145200000Y-93100000D02*
X142779346Y-93100000D01*
X140150000Y-87750000D02*
X140200000Y-87800000D01*
X140200000Y-90520654D02*
X140200000Y-87800000D01*
X139000000Y-87750000D02*
X140150000Y-87750000D01*
%TO.N,/BMP_INT*%
X162700000Y-100800000D02*
X162700000Y-101975200D01*
D46*
X153300000Y-86250000D02*
X139000000Y-86250000D01*
D47*
X164550000Y-98950000D02*
X162700000Y-100800000D01*
D46*
%TO.N,/CURR_SENSE*%
X158487500Y-85387500D02*
X157850000Y-84750000D01*
X158487500Y-86000000D02*
X158487500Y-85387500D01*
X157850000Y-84750000D02*
X156500000Y-84750000D01*
D47*
%TO.N,/USB_D-*%
X154525000Y-91425000D02*
X154525000Y-91075000D01*
X145700000Y-111300000D02*
X145912500Y-111512500D01*
X145912500Y-111512500D02*
X146800000Y-111512500D01*
X154850000Y-90750000D02*
X156500000Y-90750000D01*
X145700000Y-111000000D02*
X145700000Y-111300000D01*
X154525000Y-91075000D02*
X154850000Y-90750000D01*
%TO.N,/USB_D+*%
X156475000Y-89225000D02*
X156500000Y-89250000D01*
X149800000Y-111300000D02*
X149587500Y-111512500D01*
X149587500Y-111512500D02*
X148700000Y-111512500D01*
X155125000Y-89600000D02*
X155500000Y-89225000D01*
X156500000Y-89250000D02*
X158337500Y-89250000D01*
X158337500Y-89250000D02*
X158400000Y-89187500D01*
X155500000Y-89225000D02*
X156475000Y-89225000D01*
D46*
X156200000Y-89550000D02*
X156500000Y-89250000D01*
D47*
X149800000Y-111000000D02*
X149800000Y-111300000D01*
D45*
%TO.N,Net-(J3-Pin_1)*%
X136800000Y-103900000D02*
X135800000Y-103900000D01*
D44*
X132525000Y-105775000D02*
X133550000Y-105775000D01*
D45*
X135562500Y-103662500D02*
X135562500Y-102350000D01*
D44*
X133550000Y-105775000D02*
X134375000Y-104950000D01*
X134375000Y-102475000D02*
X134500000Y-102350000D01*
D45*
X137087500Y-104700000D02*
X137087500Y-104187500D01*
X137087500Y-104187500D02*
X136800000Y-103900000D01*
D44*
X134375000Y-104950000D02*
X134375000Y-102475000D01*
X134500000Y-102350000D02*
X135562500Y-102350000D01*
D45*
X135800000Y-103900000D02*
X135562500Y-103662500D01*
D47*
%TO.N,Net-(U1-PROG)*%
X154487500Y-105650000D02*
X155450000Y-105650000D01*
X155450000Y-105650000D02*
X155600000Y-105500000D01*
X155600000Y-103900000D02*
X156050000Y-103450000D01*
X156050000Y-103450000D02*
X156600000Y-103450000D01*
X155600000Y-105500000D02*
X155600000Y-103900000D01*
D46*
%TO.N,Net-(U3-EN)*%
X136050000Y-113074999D02*
X136575001Y-113600000D01*
X138800000Y-114800000D02*
X138862500Y-114862500D01*
X138500000Y-113600000D02*
X138800000Y-113900000D01*
X138800000Y-113900000D02*
X138800000Y-114800000D01*
X136050000Y-112412500D02*
X136050000Y-113074999D01*
X136575001Y-113600000D02*
X138500000Y-113600000D01*
X138862500Y-114862500D02*
X139600000Y-114862500D01*
D47*
%TO.N,Net-(U5-IO7)*%
X137012500Y-90450000D02*
X138700000Y-90450000D01*
X138700000Y-90450000D02*
X139000000Y-90750000D01*
%TO.N,Net-(U5-IO8)*%
X137012500Y-92150000D02*
X138900000Y-92150000D01*
X138900000Y-92150000D02*
X139000000Y-92250000D01*
D46*
%TO.N,Net-(U8-CS)*%
X144150000Y-96450000D02*
X144700000Y-95900000D01*
X144400000Y-94200000D02*
X141200000Y-94200000D01*
X144700000Y-94500000D02*
X144400000Y-94200000D01*
X144150000Y-97337500D02*
X144150000Y-96450000D01*
X141000000Y-94400000D02*
X141000000Y-97287500D01*
X141200000Y-94200000D02*
X141000000Y-94400000D01*
X144700000Y-95900000D02*
X144700000Y-94500000D01*
%TO.N,Net-(U10-SDO)*%
X165162500Y-101800000D02*
X165200000Y-101837500D01*
X164200001Y-101800000D02*
X165162500Y-101800000D01*
X163737400Y-102262601D02*
X164200001Y-101800000D01*
D45*
%TO.N,Net-(R16-Pad1)*%
X134800000Y-100300000D02*
X134500000Y-100000000D01*
D46*
X161000000Y-85312500D02*
X161000000Y-84600000D01*
X160312500Y-86000000D02*
X161000000Y-85312500D01*
X161400000Y-84200000D02*
X167400000Y-84200000D01*
D45*
X135562500Y-100450000D02*
X134950000Y-100450000D01*
D46*
X167700000Y-84500000D02*
X168400000Y-84500000D01*
X167400000Y-84200000D02*
X167700000Y-84500000D01*
X161000000Y-84600000D02*
X161400000Y-84200000D01*
D45*
X134500000Y-100000000D02*
X134500000Y-99200000D01*
X134950000Y-100450000D02*
X134800000Y-100300000D01*
D47*
%TO.N,Net-(U5-IO2)*%
X155750000Y-86250000D02*
X155100000Y-85600000D01*
X156500000Y-86250000D02*
X155750000Y-86250000D01*
X155100000Y-85600000D02*
X155100000Y-84800000D01*
%TD*%
M02*
