%TF.GenerationSoftware,KiCad,Pcbnew,9.0.0*%
%TF.CreationDate,2025-12-27T14:24:40-08:00*%
%TF.ProjectId,esp_module_rev1,6573705f-6d6f-4647-956c-655f72657631,rev?*%
%TF.SameCoordinates,Original*%
%TF.FileFunction,Soldermask,Top*%
%TF.FilePolarity,Negative*%
%FSLAX46Y46*%
G04 Gerber Fmt 4.6, Leading zero omitted, Abs format (unit mm)*
G04 Created by KiCad (PCBNEW 9.0.0) date 2025-12-27 14:24:40*
%MOMM*%
%LPD*%
G01*
G04 APERTURE LIST*
G04 Aperture macros list*
%AMRoundRect*
0 Rectangle with rounded corners*
0 $1 Rounding radius*
0 $2 $3 $4 $5 $6 $7 $8 $9 X,Y pos of 4 corners*
0 Add a 4 corners polygon primitive as box body*
4,1,4,$2,$3,$4,$5,$6,$7,$8,$9,$2,$3,0*
0 Add four circle primitives for the rounded corners*
1,1,$1+$1,$2,$3*
1,1,$1+$1,$4,$5*
1,1,$1+$1,$6,$7*
1,1,$1+$1,$8,$9*
0 Add four rect primitives between the rounded corners*
20,1,$1+$1,$2,$3,$4,$5,0*
20,1,$1+$1,$4,$5,$6,$7,0*
20,1,$1+$1,$6,$7,$8,$9,0*
20,1,$1+$1,$8,$9,$2,$3,0*%
G04 Aperture macros list end*
%ADD10R,1.500000X0.900000*%
%ADD11C,0.600000*%
%ADD12R,2.900000X2.900000*%
%ADD13RoundRect,0.150000X-0.512500X-0.150000X0.512500X-0.150000X0.512500X0.150000X-0.512500X0.150000X0*%
%ADD14RoundRect,0.237500X-0.237500X0.300000X-0.237500X-0.300000X0.237500X-0.300000X0.237500X0.300000X0*%
%ADD15RoundRect,0.237500X0.250000X0.237500X-0.250000X0.237500X-0.250000X-0.237500X0.250000X-0.237500X0*%
%ADD16RoundRect,0.087500X-0.225000X-0.087500X0.225000X-0.087500X0.225000X0.087500X-0.225000X0.087500X0*%
%ADD17RoundRect,0.087500X-0.087500X-0.225000X0.087500X-0.225000X0.087500X0.225000X-0.087500X0.225000X0*%
%ADD18C,0.650000*%
%ADD19RoundRect,0.150000X-0.150000X-0.425000X0.150000X-0.425000X0.150000X0.425000X-0.150000X0.425000X0*%
%ADD20RoundRect,0.075000X-0.075000X-0.500000X0.075000X-0.500000X0.075000X0.500000X-0.075000X0.500000X0*%
%ADD21O,1.000000X2.100000*%
%ADD22O,1.000000X1.800000*%
%ADD23C,1.500000*%
%ADD24R,0.254000X0.279400*%
%ADD25R,0.279400X0.254000*%
%ADD26RoundRect,0.237500X0.237500X-0.250000X0.237500X0.250000X-0.237500X0.250000X-0.237500X-0.250000X0*%
%ADD27RoundRect,0.237500X-0.300000X-0.237500X0.300000X-0.237500X0.300000X0.237500X-0.300000X0.237500X0*%
%ADD28RoundRect,0.237500X-0.250000X-0.237500X0.250000X-0.237500X0.250000X0.237500X-0.250000X0.237500X0*%
%ADD29RoundRect,0.250000X-0.325000X-0.450000X0.325000X-0.450000X0.325000X0.450000X-0.325000X0.450000X0*%
%ADD30RoundRect,0.150000X0.700000X-0.150000X0.700000X0.150000X-0.700000X0.150000X-0.700000X-0.150000X0*%
%ADD31RoundRect,0.250000X1.150000X-0.250000X1.150000X0.250000X-1.150000X0.250000X-1.150000X-0.250000X0*%
%ADD32RoundRect,0.237500X0.237500X-0.300000X0.237500X0.300000X-0.237500X0.300000X-0.237500X-0.300000X0*%
%ADD33RoundRect,0.112500X-0.187500X-0.112500X0.187500X-0.112500X0.187500X0.112500X-0.187500X0.112500X0*%
%ADD34RoundRect,0.150000X-0.150000X0.587500X-0.150000X-0.587500X0.150000X-0.587500X0.150000X0.587500X0*%
%ADD35RoundRect,0.150000X-0.150000X0.512500X-0.150000X-0.512500X0.150000X-0.512500X0.150000X0.512500X0*%
%ADD36C,0.700000*%
%ADD37C,4.400000*%
%ADD38C,2.000000*%
%ADD39RoundRect,0.250001X-0.462499X-0.624999X0.462499X-0.624999X0.462499X0.624999X-0.462499X0.624999X0*%
%ADD40RoundRect,0.237500X-0.237500X0.250000X-0.237500X-0.250000X0.237500X-0.250000X0.237500X0.250000X0*%
%ADD41R,0.300000X1.600000*%
%ADD42RoundRect,0.150000X0.150000X-0.512500X0.150000X0.512500X-0.150000X0.512500X-0.150000X-0.512500X0*%
%ADD43RoundRect,0.237500X0.300000X0.237500X-0.300000X0.237500X-0.300000X-0.237500X0.300000X-0.237500X0*%
G04 APERTURE END LIST*
D10*
%TO.C,U5*%
X139000000Y-83250000D03*
X139000000Y-84750000D03*
X139000000Y-86250000D03*
X139000000Y-87750000D03*
X139000000Y-89250000D03*
X139000000Y-90750000D03*
X139000000Y-92250000D03*
X139000000Y-93750000D03*
X139000000Y-95250000D03*
X156500000Y-95250000D03*
X156500000Y-93750000D03*
X156500000Y-92250000D03*
X156500000Y-90750000D03*
X156500000Y-89250000D03*
X156500000Y-87750000D03*
X156500000Y-86250000D03*
X156500000Y-84750000D03*
X156500000Y-83250000D03*
D11*
X147610000Y-88900000D03*
X147610000Y-90000000D03*
X148160000Y-88350000D03*
X148160000Y-89450000D03*
X148160000Y-90550000D03*
X148710000Y-88900000D03*
D12*
X148710000Y-89450000D03*
D11*
X148710000Y-90000000D03*
X149260000Y-88350000D03*
X149260000Y-89450000D03*
X149260000Y-90550000D03*
X149810000Y-88900000D03*
X149810000Y-90000000D03*
%TD*%
D13*
%TO.C,U4*%
X157662500Y-113000000D03*
X157662500Y-113950000D03*
X157662500Y-114900000D03*
X159937500Y-114900000D03*
X159937500Y-113000000D03*
%TD*%
D14*
%TO.C,C7*%
X135200000Y-83387500D03*
X135200000Y-85112500D03*
%TD*%
D15*
%TO.C,R16*%
X160312500Y-86000000D03*
X158487500Y-86000000D03*
%TD*%
D16*
%TO.C,U8*%
X142487500Y-97500000D03*
X142487500Y-98000000D03*
X142487500Y-98500000D03*
X142487500Y-99000000D03*
D17*
X143150000Y-99162500D03*
X143650000Y-99162500D03*
X144150000Y-99162500D03*
D16*
X144812500Y-99000000D03*
X144812500Y-98500000D03*
X144812500Y-98000000D03*
X144812500Y-97500000D03*
D17*
X144150000Y-97337500D03*
X143650000Y-97337500D03*
X143150000Y-97337500D03*
%TD*%
D15*
%TO.C,R20*%
X138912500Y-104700000D03*
X137087500Y-104700000D03*
%TD*%
D18*
%TO.C,J1*%
X144860000Y-117045000D03*
X150640000Y-117045000D03*
D19*
X144550000Y-115970000D03*
X145350000Y-115970000D03*
D20*
X146500000Y-115970000D03*
X147500000Y-115970000D03*
X148000000Y-115970000D03*
X149000000Y-115970000D03*
D19*
X150150000Y-115970000D03*
X150950000Y-115970000D03*
X150950000Y-115970000D03*
X150150000Y-115970000D03*
D20*
X149500000Y-115970000D03*
X148500000Y-115970000D03*
X147000000Y-115970000D03*
X146000000Y-115970000D03*
D19*
X145350000Y-115970000D03*
X144550000Y-115970000D03*
D21*
X143430000Y-116545000D03*
D22*
X143430000Y-120725000D03*
D21*
X152070000Y-116545000D03*
D22*
X152070000Y-120725000D03*
%TD*%
D23*
%TO.C,TP8*%
X159100000Y-100300000D03*
%TD*%
%TO.C,TP9*%
X166000000Y-85750000D03*
%TD*%
D24*
%TO.C,U10*%
X162700000Y-103550000D03*
X163200000Y-103550000D03*
D25*
X163737400Y-103262599D03*
X163737400Y-102762600D03*
X163737400Y-102262601D03*
D24*
X163200000Y-101975200D03*
X162700000Y-101975200D03*
D25*
X162162600Y-102262601D03*
X162162600Y-102762600D03*
X162162600Y-103262599D03*
%TD*%
D15*
%TO.C,R8*%
X147312500Y-104250000D03*
X145487500Y-104250000D03*
%TD*%
D26*
%TO.C,R6*%
X139600000Y-114862500D03*
X139600000Y-113037500D03*
%TD*%
D23*
%TO.C,TP15*%
X156400000Y-100300000D03*
%TD*%
D15*
%TO.C,R12*%
X137012500Y-92150000D03*
X135187500Y-92150000D03*
%TD*%
D27*
%TO.C,C21*%
X163837500Y-105362500D03*
X165562500Y-105362500D03*
%TD*%
D23*
%TO.C,TP12*%
X128000000Y-99600000D03*
%TD*%
D28*
%TO.C,R18*%
X135400000Y-106700000D03*
X137225000Y-106700000D03*
%TD*%
D29*
%TO.C,D1*%
X152475000Y-103500000D03*
X154525000Y-103500000D03*
%TD*%
D30*
%TO.C,J3*%
X132525000Y-105775000D03*
X132525000Y-104525000D03*
D31*
X129175000Y-107625000D03*
X129175000Y-102675000D03*
%TD*%
D26*
%TO.C,R2*%
X156600000Y-106962500D03*
X156600000Y-105137500D03*
%TD*%
D32*
%TO.C,C15*%
X146300000Y-99012500D03*
X146300000Y-97287500D03*
%TD*%
D23*
%TO.C,TP5*%
X156500000Y-109150000D03*
%TD*%
D32*
%TO.C,C22*%
X134100000Y-111712500D03*
X134100000Y-109987500D03*
%TD*%
%TO.C,C3*%
X145650000Y-109612500D03*
X145650000Y-107887500D03*
%TD*%
D23*
%TO.C,TP14*%
X136000000Y-97600000D03*
%TD*%
D33*
%TO.C,D2*%
X141150000Y-109650000D03*
X143250000Y-109650000D03*
%TD*%
D28*
%TO.C,R9*%
X131487500Y-83250000D03*
X133312500Y-83250000D03*
%TD*%
D34*
%TO.C,Q2*%
X154150000Y-111812500D03*
X152250000Y-111812500D03*
X153200000Y-113687500D03*
%TD*%
D23*
%TO.C,TP4*%
X128700000Y-111600000D03*
%TD*%
D14*
%TO.C,C24*%
X139700000Y-100737500D03*
X139700000Y-102462500D03*
%TD*%
D28*
%TO.C,R3*%
X156600000Y-103450000D03*
X158425000Y-103450000D03*
%TD*%
D26*
%TO.C,R22*%
X165200000Y-103662500D03*
X165200000Y-101837500D03*
%TD*%
D35*
%TO.C,U3*%
X137950000Y-112412500D03*
X137000000Y-112412500D03*
X136050000Y-112412500D03*
X136050000Y-114687500D03*
X137950000Y-114687500D03*
%TD*%
D36*
%TO.C,H2*%
X164700000Y-119510000D03*
X165183274Y-118343274D03*
X165183274Y-120676726D03*
X166350000Y-117860000D03*
D37*
X166350000Y-119510000D03*
D36*
X166350000Y-121160000D03*
X167516726Y-118343274D03*
X167516726Y-120676726D03*
X168000000Y-119510000D03*
%TD*%
D13*
%TO.C,U1*%
X152212500Y-105650000D03*
X152212500Y-106600000D03*
X152212500Y-107550000D03*
X154487500Y-107550000D03*
X154487500Y-105650000D03*
%TD*%
D38*
%TO.C,SW1*%
X134250000Y-117360000D03*
X140750000Y-117360000D03*
X134250000Y-121860000D03*
X140750000Y-121860000D03*
%TD*%
D32*
%TO.C,C23*%
X161200000Y-111312500D03*
X161200000Y-109587500D03*
%TD*%
D27*
%TO.C,C2*%
X158337500Y-106650000D03*
X160062500Y-106650000D03*
%TD*%
D39*
%TO.C,D4*%
X153412500Y-97750000D03*
X156387500Y-97750000D03*
%TD*%
D15*
%TO.C,R19*%
X137212500Y-108300000D03*
X135387500Y-108300000D03*
%TD*%
D33*
%TO.C,D3*%
X152150000Y-109650000D03*
X154250000Y-109650000D03*
%TD*%
D23*
%TO.C,TP19*%
X133200000Y-87550000D03*
%TD*%
D34*
%TO.C,Q1*%
X143150000Y-111812500D03*
X141250000Y-111812500D03*
X142200000Y-113687500D03*
%TD*%
D40*
%TO.C,R21*%
X141000000Y-97287500D03*
X141000000Y-99112500D03*
%TD*%
D23*
%TO.C,TP11*%
X168400000Y-84500000D03*
%TD*%
D27*
%TO.C,C13*%
X161487500Y-95287500D03*
X163212500Y-95287500D03*
%TD*%
D41*
%TO.C,U6*%
X161350000Y-93312500D03*
X162000000Y-93312500D03*
X162650000Y-93312500D03*
X163300000Y-93312500D03*
X163300000Y-89912500D03*
X162650000Y-89912500D03*
X162000000Y-89912500D03*
X161350000Y-89912500D03*
%TD*%
D15*
%TO.C,R10*%
X137012500Y-90450000D03*
X135187500Y-90450000D03*
%TD*%
D36*
%TO.C,H3*%
X127150000Y-90200000D03*
X127633274Y-89033274D03*
X127633274Y-91366726D03*
X128800000Y-88550000D03*
D37*
X128800000Y-90200000D03*
D36*
X128800000Y-91850000D03*
X129966726Y-89033274D03*
X129966726Y-91366726D03*
X130450000Y-90200000D03*
%TD*%
D27*
%TO.C,C6*%
X157537500Y-111250000D03*
X159262500Y-111250000D03*
%TD*%
D23*
%TO.C,TP16*%
X143400000Y-105550000D03*
%TD*%
D42*
%TO.C,U2*%
X146800000Y-113787500D03*
X147750000Y-113787500D03*
X148700000Y-113787500D03*
X148700000Y-111512500D03*
X147750000Y-111512500D03*
X146800000Y-111512500D03*
%TD*%
D23*
%TO.C,TP2*%
X131300000Y-112150000D03*
%TD*%
%TO.C,TP17*%
X148600000Y-101650000D03*
%TD*%
D38*
%TO.C,SW2*%
X154800000Y-117260000D03*
X161300000Y-117260000D03*
X154800000Y-121760000D03*
X161300000Y-121760000D03*
%TD*%
D23*
%TO.C,TP6*%
X166400000Y-112350000D03*
%TD*%
D27*
%TO.C,C12*%
X161462500Y-96962500D03*
X163187500Y-96962500D03*
%TD*%
D14*
%TO.C,C10*%
X137000000Y-93787500D03*
X137000000Y-95512500D03*
%TD*%
D27*
%TO.C,C20*%
X163837500Y-107062500D03*
X165562500Y-107062500D03*
%TD*%
D43*
%TO.C,C9*%
X133325000Y-85350000D03*
X131600000Y-85350000D03*
%TD*%
D14*
%TO.C,C8*%
X137000000Y-83387500D03*
X137000000Y-85112500D03*
%TD*%
D26*
%TO.C,R13*%
X158300000Y-98075000D03*
X158300000Y-96250000D03*
%TD*%
D14*
%TO.C,C1*%
X150450000Y-103587500D03*
X150450000Y-105312500D03*
%TD*%
D23*
%TO.C,TP7*%
X166200000Y-109300000D03*
%TD*%
D40*
%TO.C,R1*%
X147250000Y-107837500D03*
X147250000Y-109662500D03*
%TD*%
D23*
%TO.C,TP1*%
X133000000Y-100050000D03*
%TD*%
D13*
%TO.C,U7*%
X135562500Y-100450000D03*
X135562500Y-101400000D03*
X135562500Y-102350000D03*
X137837500Y-102350000D03*
X137837500Y-100450000D03*
%TD*%
D26*
%TO.C,R15*%
X158400000Y-91012500D03*
X158400000Y-89187500D03*
%TD*%
D14*
%TO.C,C4*%
X148850000Y-107887500D03*
X148850000Y-109612500D03*
%TD*%
D32*
%TO.C,C11*%
X163400000Y-88062500D03*
X163400000Y-86337500D03*
%TD*%
%TO.C,C14*%
X149250000Y-99062500D03*
X149250000Y-97337500D03*
%TD*%
D43*
%TO.C,C5*%
X137862500Y-110550000D03*
X136137500Y-110550000D03*
%TD*%
D26*
%TO.C,R7*%
X155800000Y-114862500D03*
X155800000Y-113037500D03*
%TD*%
D23*
%TO.C,TP18*%
X133500000Y-95950000D03*
%TD*%
D36*
%TO.C,H1*%
X127650000Y-119610000D03*
X128133274Y-118443274D03*
X128133274Y-120776726D03*
X129300000Y-117960000D03*
D37*
X129300000Y-119610000D03*
D36*
X129300000Y-121260000D03*
X130466726Y-118443274D03*
X130466726Y-120776726D03*
X130950000Y-119610000D03*
%TD*%
D28*
%TO.C,R11*%
X132087500Y-93850000D03*
X133912500Y-93850000D03*
%TD*%
D23*
%TO.C,TP10*%
X159300000Y-83850000D03*
%TD*%
%TO.C,TP13*%
X164550000Y-98950000D03*
%TD*%
%TO.C,TP3*%
X163700000Y-112150000D03*
%TD*%
M02*
