%TF.GenerationSoftware,KiCad,Pcbnew,9.0.0*%
%TF.CreationDate,2025-12-27T14:24:40-08:00*%
%TF.ProjectId,esp_module_rev1,6573705f-6d6f-4647-956c-655f72657631,rev?*%
%TF.SameCoordinates,Original*%
%TF.FileFunction,Soldermask,Bot*%
%TF.FilePolarity,Negative*%
%FSLAX46Y46*%
G04 Gerber Fmt 4.6, Leading zero omitted, Abs format (unit mm)*
G04 Created by KiCad (PCBNEW 9.0.0) date 2025-12-27 14:24:40*
%MOMM*%
%LPD*%
G01*
G04 APERTURE LIST*
G04 Aperture macros list*
%AMRoundRect*
0 Rectangle with rounded corners*
0 $1 Rounding radius*
0 $2 $3 $4 $5 $6 $7 $8 $9 X,Y pos of 4 corners*
0 Add a 4 corners polygon primitive as box body*
4,1,4,$2,$3,$4,$5,$6,$7,$8,$9,$2,$3,0*
0 Add four circle primitives for the rounded corners*
1,1,$1+$1,$2,$3*
1,1,$1+$1,$4,$5*
1,1,$1+$1,$6,$7*
1,1,$1+$1,$8,$9*
0 Add four rect primitives between the rounded corners*
20,1,$1+$1,$2,$3,$4,$5,0*
20,1,$1+$1,$4,$5,$6,$7,0*
20,1,$1+$1,$6,$7,$8,$9,0*
20,1,$1+$1,$8,$9,$2,$3,0*%
G04 Aperture macros list end*
%ADD10C,0.650000*%
%ADD11O,1.000000X2.100000*%
%ADD12O,1.000000X1.800000*%
%ADD13C,1.500000*%
%ADD14C,0.700000*%
%ADD15C,4.400000*%
%ADD16C,2.000000*%
%ADD17RoundRect,0.237500X-0.237500X0.300000X-0.237500X-0.300000X0.237500X-0.300000X0.237500X0.300000X0*%
%ADD18RoundRect,0.237500X0.237500X-0.300000X0.237500X0.300000X-0.237500X0.300000X-0.237500X-0.300000X0*%
%ADD19RoundRect,0.087500X0.287500X0.087500X-0.287500X0.087500X-0.287500X-0.087500X0.287500X-0.087500X0*%
%ADD20RoundRect,0.237500X-0.237500X0.250000X-0.237500X-0.250000X0.237500X-0.250000X0.237500X0.250000X0*%
%ADD21RoundRect,0.237500X-0.250000X-0.237500X0.250000X-0.237500X0.250000X0.237500X-0.250000X0.237500X0*%
G04 APERTURE END LIST*
D10*
%TO.C,J1*%
X144860000Y-117045000D03*
X150640000Y-117045000D03*
D11*
X143430000Y-116545000D03*
D12*
X143430000Y-120725000D03*
D11*
X152070000Y-116545000D03*
D12*
X152070000Y-120725000D03*
%TD*%
D13*
%TO.C,TP8*%
X159100000Y-100300000D03*
%TD*%
%TO.C,TP9*%
X166000000Y-85750000D03*
%TD*%
%TO.C,TP15*%
X156400000Y-100300000D03*
%TD*%
%TO.C,TP12*%
X128000000Y-99600000D03*
%TD*%
%TO.C,TP5*%
X156500000Y-109150000D03*
%TD*%
%TO.C,TP14*%
X136000000Y-97600000D03*
%TD*%
%TO.C,TP4*%
X128700000Y-111600000D03*
%TD*%
D14*
%TO.C,H2*%
X164700000Y-119510000D03*
X165183274Y-118343274D03*
X165183274Y-120676726D03*
X166350000Y-117860000D03*
D15*
X166350000Y-119510000D03*
D14*
X166350000Y-121160000D03*
X167516726Y-118343274D03*
X167516726Y-120676726D03*
X168000000Y-119510000D03*
%TD*%
D16*
%TO.C,SW1*%
X134250000Y-117360000D03*
X140750000Y-117360000D03*
X134250000Y-121860000D03*
X140750000Y-121860000D03*
%TD*%
D13*
%TO.C,TP19*%
X133200000Y-87550000D03*
%TD*%
%TO.C,TP11*%
X168400000Y-84500000D03*
%TD*%
D14*
%TO.C,H3*%
X127150000Y-90200000D03*
X127633274Y-89033274D03*
X127633274Y-91366726D03*
X128800000Y-88550000D03*
D15*
X128800000Y-90200000D03*
D14*
X128800000Y-91850000D03*
X129966726Y-89033274D03*
X129966726Y-91366726D03*
X130450000Y-90200000D03*
%TD*%
D13*
%TO.C,TP16*%
X143400000Y-105550000D03*
%TD*%
%TO.C,TP2*%
X131300000Y-112150000D03*
%TD*%
%TO.C,TP17*%
X148600000Y-101650000D03*
%TD*%
D16*
%TO.C,SW2*%
X154800000Y-117260000D03*
X161300000Y-117260000D03*
X154800000Y-121760000D03*
X161300000Y-121760000D03*
%TD*%
D13*
%TO.C,TP6*%
X166400000Y-112350000D03*
%TD*%
%TO.C,TP7*%
X166200000Y-109300000D03*
%TD*%
%TO.C,TP1*%
X133000000Y-100050000D03*
%TD*%
%TO.C,TP18*%
X133500000Y-95950000D03*
%TD*%
D14*
%TO.C,H1*%
X127650000Y-119610000D03*
X128133274Y-118443274D03*
X128133274Y-120776726D03*
X129300000Y-117960000D03*
D15*
X129300000Y-119610000D03*
D14*
X129300000Y-121260000D03*
X130466726Y-118443274D03*
X130466726Y-120776726D03*
X130950000Y-119610000D03*
%TD*%
D13*
%TO.C,TP10*%
X159300000Y-83850000D03*
%TD*%
%TO.C,TP13*%
X164550000Y-98950000D03*
%TD*%
%TO.C,TP3*%
X163700000Y-112150000D03*
%TD*%
D17*
%TO.C,C19*%
X146300000Y-99175000D03*
X146300000Y-100900000D03*
%TD*%
%TO.C,C18*%
X144700000Y-99175000D03*
X144700000Y-100900000D03*
%TD*%
D18*
%TO.C,C17*%
X144700000Y-97400000D03*
X144700000Y-95675000D03*
%TD*%
D19*
%TO.C,U9*%
X150700000Y-93600000D03*
X150700000Y-94400000D03*
X150700000Y-95200000D03*
X150700000Y-96000000D03*
X150700000Y-96800000D03*
X150700000Y-97600000D03*
X150700000Y-98400000D03*
X148300000Y-98400000D03*
X148300000Y-97600000D03*
X148300000Y-96800000D03*
X148300000Y-96000000D03*
X148300000Y-95200000D03*
X148300000Y-94400000D03*
X148300000Y-93600000D03*
%TD*%
D18*
%TO.C,C16*%
X146300000Y-97400000D03*
X146300000Y-95675000D03*
%TD*%
D20*
%TO.C,R14*%
X140200000Y-84587500D03*
X140200000Y-86412500D03*
%TD*%
%TO.C,R5*%
X146500000Y-118587500D03*
X146500000Y-120412500D03*
%TD*%
D21*
%TO.C,R23*%
X151787500Y-84600000D03*
X153612500Y-84600000D03*
%TD*%
D20*
%TO.C,R4*%
X149500000Y-118587500D03*
X149500000Y-120412500D03*
%TD*%
M02*
